  0
SECTION
  2
HEADER
  9
$ANGBASE
  50
0.0
  9
$ANGDIR
  70
1
  9
$MEASUREMENT
  70
1
  0
ENDSEC
  0
SECTION
  2
TABLES
  0
TABLE
  2
LTYPE
  70
4
  0
LTYPE
  5
40F
  2
CONTINUOUS
  70
0
  3
Solid line
  72
65
  73
0
  40
0.0
  0
LTYPE
  5
410
  2
DASHDOT
 70
0
  3
Dash Dot ____ _ ____ _
 72
65
 73
4
 40
2.0
 49
1.25
 49
-0.25
 49
0.25
 49
-0.25
  0
LTYPE
  5
411
  2
DASHED
 70
0
  3
Dashed __ __ __ __ __
 72
65
 73
2
 40
0.75
 49
0.5
 49
-0.25
  0
LTYPE
  5
43B
  2
DOTTED
 70
0
  3
Dotted .  .  .  .
 72
65
 73
2
 40
0.2
 49
0.0
 49
-0.2
  0
ENDTAB
  0
TABLE
  2
STYLE
  70
4
  0
STYLE
  2
KICAD
  70
0
  40
0
  41
1
  42
1
  50
0
  71
0
  3
isocp.shx
  0
STYLE
  2
KICADB
  70
0
  40
0
  41
1
  42
1
  50
0
  71
0
  3
isocp.shx
  0
STYLE
  2
KICADI
  70
0
  40
0
  41
1
  42
1
  50
15
  71
0
  3
isocp.shx
  0
STYLE
  2
KICADBI
  70
0
  40
0
  41
1
  42
1
  50
15
  71
0
  3
isocp.shx
  0
ENDTAB
  0
TABLE
  2
LAYER
  70
1
  0
LAYER
  2
BLACK
  70
0
  62
7
  6
CONTINUOUS
  0
ENDTAB
  0
ENDSEC
  0
SECTION
  2
ENTITIES
0
LINE
8
BLACK
6
CONTINUOUS
10
80.9500000000000028
20
-49.1999999999999957
11
180.9499999999999886
21
-49.1999999999999957
0
LINE
8
BLACK
6
CONTINUOUS
10
180.9499999999999886
20
-49.1999999999999957
11
180.9499999999999886
21
-149.1999999999999886
0
LINE
8
BLACK
6
CONTINUOUS
10
180.9499999999999886
20
-149.1999999999999886
11
80.9500000000000028
21
-149.1999999999999886
0
LINE
8
BLACK
6
CONTINUOUS
10
80.9500000000000028
20
-149.1999999999999886
11
80.9500000000000028
21
-49.1999999999999957
0
CIRCLE
8
BLACK
10
177.3499999999999943
20
-59.7999999999999972
40
1.5999989999999999
0
CIRCLE
8
BLACK
10
175.0600000000000023
20
-115.414999999999992
40
0.35
0
CIRCLE
8
BLACK
10
169.9799999999999898
20
-115.414999999999992
40
0.35
0
CIRCLE
8
BLACK
10
156.3499999999999943
20
-116.5450000000000017
40
2.199999
0
CIRCLE
8
BLACK
10
132.9499999999999886
20
-116.5450000000000017
40
0.875
0
CIRCLE
8
BLACK
10
175.0600000000000023
20
-109.1149999999999949
40
0.35
0
CIRCLE
8
BLACK
10
169.9799999999999898
20
-109.1149999999999949
40
0.35
0
CIRCLE
8
BLACK
10
144.2249999999999943
20
-147.
40
0.5
0
CIRCLE
8
BLACK
10
146.7649999999999864
20
-147.
40
0.5
0
CIRCLE
8
BLACK
10
177.8700000000000045
20
-117.7849999999999966
40
0.5
0
CIRCLE
8
BLACK
10
177.8700000000000045
20
-115.2449999999999903
40
0.5
0
CIRCLE
8
BLACK
10
177.8700000000000045
20
-112.7049999999999983
40
0.5
0
CIRCLE
8
BLACK
10
177.8700000000000045
20
-110.164999999999992
40
0.5
0
CIRCLE
8
BLACK
10
177.8700000000000045
20
-107.625
40
0.5
0
CIRCLE
8
BLACK
10
177.8700000000000045
20
-105.0849999999999937
40
0.5
0
CIRCLE
8
BLACK
10
177.8700000000000045
20
-102.5450000000000017
40
0.5
0
CIRCLE
8
BLACK
10
177.8700000000000045
20
-100.0049999999999955
40
0.5
0
CIRCLE
8
BLACK
10
177.8700000000000045
20
-97.4649999999999892
40
0.5
0
CIRCLE
8
BLACK
10
175.0600000000000023
20
-112.2650000000000006
40
0.35
0
CIRCLE
8
BLACK
10
169.9799999999999898
20
-112.2650000000000006
40
0.35
0
CIRCLE
8
BLACK
10
96.3079999999999927
20
-81.7000000000000028
40
0.5499999999999999
0
CIRCLE
8
BLACK
10
93.7680000000000007
20
-81.7000000000000028
40
0.5499999999999999
0
CIRCLE
8
BLACK
10
91.2279999999999944
20
-81.7000000000000028
40
0.5499999999999999
0
CIRCLE
8
BLACK
10
89.4599999999999937
20
-53.5
40
0.5
0
CIRCLE
8
BLACK
10
92.
20
-53.5
40
0.5
0
CIRCLE
8
BLACK
10
94.539999999999992
20
-53.5
40
0.5
0
CIRCLE
8
BLACK
10
97.0799999999999983
20
-53.5
40
0.5
0
CIRCLE
8
BLACK
10
99.6199999999999903
20
-53.5
40
0.5
0
CIRCLE
8
BLACK
10
102.1599999999999966
20
-53.5
40
0.5
0
CIRCLE
8
BLACK
10
104.6999999999999886
20
-53.5
40
0.5
0
CIRCLE
8
BLACK
10
107.2399999999999949
20
-53.5
40
0.5
0
CIRCLE
8
BLACK
10
109.7800000000000011
20
-53.5
40
0.5
0
CIRCLE
8
BLACK
10
112.3199999999999932
20
-53.5
40
0.5
0
CIRCLE
8
BLACK
10
114.8599999999999994
20
-53.5
40
0.5
0
CIRCLE
8
BLACK
10
117.3999999999999915
20
-53.5
40
0.5
0
CIRCLE
8
BLACK
10
119.9399999999999977
20
-53.5
40
0.5
0
CIRCLE
8
BLACK
10
122.4799999999999898
20
-53.5
40
0.5
0
CIRCLE
8
BLACK
10
125.019999999999996
20
-53.5
40
0.5
0
CIRCLE
8
BLACK
10
127.5599999999999881
20
-53.5
40
0.5
0
CIRCLE
8
BLACK
10
130.0999999999999943
20
-53.5
40
0.5
0
CIRCLE
8
BLACK
10
132.6399999999999864
20
-53.5
40
0.5
0
CIRCLE
8
BLACK
10
135.1800000000000068
20
-53.5
40
0.5
0
CIRCLE
8
BLACK
10
137.7199999999999989
20
-53.5
40
0.5
0
CIRCLE
8
BLACK
10
140.2599999999999909
20
-53.5
40
0.5
0
CIRCLE
8
BLACK
10
142.7999999999999829
20
-53.5
40
0.5
0
CIRCLE
8
BLACK
10
145.3400000000000034
20
-53.5
40
0.5
0
CIRCLE
8
BLACK
10
147.8799999999999955
20
-53.5
40
0.5
0
CIRCLE
8
BLACK
10
150.4199999999999875
20
-53.5
40
0.5
0
CIRCLE
8
BLACK
10
152.9599999999999795
20
-53.5
40
0.5
0
CIRCLE
8
BLACK
10
155.5
20
-53.5
40
0.5
0
CIRCLE
8
BLACK
10
158.039999999999992
20
-53.5
40
0.5
0
CIRCLE
8
BLACK
10
160.5799999999999841
20
-53.5
40
0.5
0
CIRCLE
8
BLACK
10
163.1200000000000045
20
-53.5
40
0.5
0
CIRCLE
8
BLACK
10
165.6599999999999966
20
-53.5
40
0.5
0
CIRCLE
8
BLACK
10
168.1999999999999886
20
-53.5
40
0.5
0
CIRCLE
8
BLACK
10
170.7399999999999807
20
-53.5
40
0.5
0
CIRCLE
8
BLACK
10
173.2800000000000011
20
-53.5
40
0.5
0
CIRCLE
8
BLACK
10
175.8199999999999932
20
-53.5
40
0.5
0
CIRCLE
8
BLACK
10
178.3599999999999852
20
-53.5
40
0.5
0
CIRCLE
8
BLACK
10
160.3160000000000025
20
-81.7000000000000028
40
0.5499999999999999
0
CIRCLE
8
BLACK
10
157.775999999999982
20
-81.7000000000000028
40
0.5499999999999999
0
CIRCLE
8
BLACK
10
155.23599999999999
20
-81.7000000000000028
40
0.5499999999999999
0
CIRCLE
8
BLACK
10
138.5499999999999829
20
-144.0024999999999977
40
0.65
0
CIRCLE
8
BLACK
10
133.5499999999999829
20
-144.0024999999999977
40
0.65
0
CIRCLE
8
BLACK
10
124.25
20
-118.5
40
1.3499989999999999
0
CIRCLE
8
BLACK
10
124.25
20
-107.25
40
0.65
0
CIRCLE
8
BLACK
10
124.25
20
-129.75
40
0.65
0
CIRCLE
8
BLACK
10
127.0499999999999972
20
-144.
40
0.65
0
CIRCLE
8
BLACK
10
122.0499999999999972
20
-144.
40
0.65
0
CIRCLE
8
BLACK
10
133.5999999999999943
20
-125.4026509999999917
40
0.4
0
CIRCLE
8
BLACK
10
133.5999999999999943
20
-121.6026509999999945
40
0.4
0
CIRCLE
8
BLACK
10
149.6479999999999961
20
-81.7000000000000028
40
0.5499999999999999
0
CIRCLE
8
BLACK
10
147.1080000000000041
20
-81.7000000000000028
40
0.5499999999999999
0
CIRCLE
8
BLACK
10
144.5679999999999836
20
-81.7000000000000028
40
0.5499999999999999
0
CIRCLE
8
BLACK
10
146.8499999999999943
20
-122.2249999999999943
40
0.999999
0
CIRCLE
8
BLACK
10
172.8499999999999943
20
-122.0249999999999915
40
0.999999
0
CIRCLE
8
BLACK
10
172.8499999999999943
20
-140.0250000000000057
40
0.999999
0
CIRCLE
8
BLACK
10
117.6439999999999912
20
-81.7000000000000028
40
0.5499999999999999
0
CIRCLE
8
BLACK
10
115.1039999999999992
20
-81.7000000000000028
40
0.5499999999999999
0
CIRCLE
8
BLACK
10
112.563999999999993
20
-81.7000000000000028
40
0.5499999999999999
0
CIRCLE
8
BLACK
10
128.3119999999999834
20
-81.7000000000000028
40
0.5499999999999999
0
CIRCLE
8
BLACK
10
125.7719999999999914
20
-81.7000000000000028
40
0.5499999999999999
0
CIRCLE
8
BLACK
10
123.2319999999999993
20
-81.7000000000000028
40
0.5499999999999999
0
CIRCLE
8
BLACK
10
84.2000000000000028
20
-52.7999999999999972
40
1.5999989999999999
0
CIRCLE
8
BLACK
10
85.25
20
-147.0649999999999977
40
0.5
0
CIRCLE
8
BLACK
10
85.25
20
-144.5250000000000057
40
0.5
0
CIRCLE
8
BLACK
10
85.25
20
-141.9849999999999852
40
0.5
0
CIRCLE
8
BLACK
10
85.25
20
-139.4449999999999932
40
0.5
0
CIRCLE
8
BLACK
10
85.25
20
-136.9050000000000011
40
0.5
0
CIRCLE
8
BLACK
10
85.25
20
-134.3649999999999807
40
0.5
0
CIRCLE
8
BLACK
10
85.25
20
-131.8249999999999886
40
0.5
0
CIRCLE
8
BLACK
10
85.25
20
-129.2849999999999966
40
0.5
0
CIRCLE
8
BLACK
10
85.25
20
-126.7449999999999903
40
0.5
0
CIRCLE
8
BLACK
10
85.25
20
-124.2049999999999983
40
0.5
0
CIRCLE
8
BLACK
10
85.25
20
-121.664999999999992
40
0.5
0
CIRCLE
8
BLACK
10
85.25
20
-119.125
40
0.5
0
CIRCLE
8
BLACK
10
85.25
20
-116.5849999999999937
40
0.5
0
CIRCLE
8
BLACK
10
85.25
20
-114.0450000000000017
40
0.5
0
CIRCLE
8
BLACK
10
85.25
20
-111.5049999999999955
40
0.5
0
CIRCLE
8
BLACK
10
85.25
20
-108.9649999999999892
40
0.5
0
CIRCLE
8
BLACK
10
85.25
20
-106.4249999999999972
40
0.5
0
CIRCLE
8
BLACK
10
85.25
20
-103.8849999999999909
40
0.5
0
CIRCLE
8
BLACK
10
85.25
20
-101.3449999999999989
40
0.5
0
CIRCLE
8
BLACK
10
85.25
20
-98.8049999999999926
40
0.5
0
CIRCLE
8
BLACK
10
85.25
20
-96.2650000000000006
40
0.5
0
CIRCLE
8
BLACK
10
85.25
20
-93.7249999999999943
40
0.5
0
CIRCLE
8
BLACK
10
85.25
20
-91.1850000000000023
40
0.5
0
CIRCLE
8
BLACK
10
85.25
20
-88.644999999999996
40
0.5
0
CIRCLE
8
BLACK
10
85.25
20
-86.1049999999999898
40
0.5
0
CIRCLE
8
BLACK
10
85.25
20
-83.5649999999999977
40
0.5
0
CIRCLE
8
BLACK
10
85.25
20
-81.0249999999999915
40
0.5
0
CIRCLE
8
BLACK
10
85.25
20
-78.4849999999999994
40
0.5
0
CIRCLE
8
BLACK
10
85.25
20
-75.9449999999999932
40
0.5
0
CIRCLE
8
BLACK
10
85.25
20
-73.4050000000000011
40
0.5
0
CIRCLE
8
BLACK
10
85.25
20
-70.8649999999999949
40
0.5
0
CIRCLE
8
BLACK
10
85.25
20
-68.3250000000000028
40
0.5
0
CIRCLE
8
BLACK
10
85.25
20
-65.7849999999999966
40
0.5
0
CIRCLE
8
BLACK
10
85.25
20
-63.2449999999999974
40
0.5
0
CIRCLE
8
BLACK
10
85.25
20
-60.7049999999999983
40
0.5
0
CIRCLE
8
BLACK
10
85.25
20
-58.1649999999999991
40
0.5
0
CIRCLE
8
BLACK
10
177.5
20
-145.75
40
1.5999989999999999
0
CIRCLE
8
BLACK
10
175.0600000000000023
20
-118.5649999999999977
40
0.35
0
CIRCLE
8
BLACK
10
169.9799999999999898
20
-118.5649999999999977
40
0.35
0
CIRCLE
8
BLACK
10
90.5
20
-145.
40
1.5999989999999999
0
CIRCLE
8
BLACK
10
151.5
20
-147.
40
0.5
0
CIRCLE
8
BLACK
10
154.039999999999992
20
-147.
40
0.5
0
CIRCLE
8
BLACK
10
103.7999999999999972
20
-144.0499999999999829
40
0.65
0
CIRCLE
8
BLACK
10
98.7999999999999972
20
-144.0499999999999829
40
0.65
0
CIRCLE
8
BLACK
10
164.2299999999999898
20
-59.9099999999999966
40
0.5
0
CIRCLE
8
BLACK
10
166.7699999999999818
20
-59.9099999999999966
40
0.5
0
CIRCLE
8
BLACK
10
169.3100000000000023
20
-59.9099999999999966
40
0.5
0
CIRCLE
8
BLACK
10
171.8499999999999943
20
-59.9099999999999966
40
0.5
0
CIRCLE
8
BLACK
10
138.9799999999999898
20
-81.7000000000000028
40
0.5499999999999999
0
CIRCLE
8
BLACK
10
136.4399999999999977
20
-81.7000000000000028
40
0.5499999999999999
0
CIRCLE
8
BLACK
10
133.9000000000000057
20
-81.7000000000000028
40
0.5499999999999999
0
CIRCLE
8
BLACK
10
106.9759999999999991
20
-81.7659999999999911
40
0.5499999999999999
0
CIRCLE
8
BLACK
10
104.4359999999999928
20
-81.7659999999999911
40
0.5499999999999999
0
CIRCLE
8
BLACK
10
101.8960000000000008
20
-81.7659999999999911
40
0.5499999999999999
0
CIRCLE
8
BLACK
10
146.9000000000000057
20
-59.75
40
2.199999
0
CIRCLE
8
BLACK
10
123.5
20
-59.75
40
0.875
0
CIRCLE
8
BLACK
10
115.2999999999999972
20
-144.
40
0.65
0
CIRCLE
8
BLACK
10
110.2999999999999972
20
-144.
40
0.65
0
CIRCLE
8
BLACK
10
143.7750000000000057
20
-127.25
40
0.5
0
CIRCLE
8
BLACK
10
143.7750000000000057
20
-129.789999999999992
40
0.5
0
CIRCLE
8
BLACK
10
143.7750000000000057
20
-132.3299999999999841
40
0.5
0
CIRCLE
8
BLACK
10
143.7750000000000057
20
-134.8700000000000045
40
0.5
  0
ENDSEC
  0
EOF
