  0
SECTION
  2
HEADER
  9
$ANGBASE
  50
0.0
  9
$ANGDIR
  70
1
  9
$MEASUREMENT
  70
1
  0
ENDSEC
  0
SECTION
  2
TABLES
  0
TABLE
  2
LTYPE
  70
4
  0
LTYPE
  5
40F
  2
CONTINUOUS
  70
0
  3
Solid line
  72
65
  73
0
  40
0.0
  0
LTYPE
  5
410
  2
DASHDOT
 70
0
  3
Dash Dot ____ _ ____ _
 72
65
 73
4
 40
2.0
 49
1.25
 49
-0.25
 49
0.25
 49
-0.25
  0
LTYPE
  5
411
  2
DASHED
 70
0
  3
Dashed __ __ __ __ __
 72
65
 73
2
 40
0.75
 49
0.5
 49
-0.25
  0
LTYPE
  5
43B
  2
DOTTED
 70
0
  3
Dotted .  .  .  .
 72
65
 73
2
 40
0.2
 49
0.0
 49
-0.2
  0
ENDTAB
  0
TABLE
  2
STYLE
  70
4
  0
STYLE
  2
KICAD
  70
0
  40
0
  41
1
  42
1
  50
0
  71
0
  3
isocp.shx
  0
STYLE
  2
KICADB
  70
0
  40
0
  41
1
  42
1
  50
0
  71
0
  3
isocp.shx
  0
STYLE
  2
KICADI
  70
0
  40
0
  41
1
  42
1
  50
15
  71
0
  3
isocp.shx
  0
STYLE
  2
KICADBI
  70
0
  40
0
  41
1
  42
1
  50
15
  71
0
  3
isocp.shx
  0
ENDTAB
  0
TABLE
  2
LAYER
  70
1
  0
LAYER
  2
BLACK
  70
0
  62
7
  6
CONTINUOUS
  0
ENDTAB
  0
ENDSEC
  0
SECTION
  2
ENTITIES
0
CIRCLE
8
BLACK
10
177.5
20
-145.75
40
0.1
0
CIRCLE
8
BLACK
10
90.5
20
-145.0499999999999829
40
0.1
0
CIRCLE
8
BLACK
10
172.9000000000000057
20
-140.0499999999999829
40
0.1
0
CIRCLE
8
BLACK
10
84.2000000000000028
20
-52.6999999999999957
40
0.1
0
CIRCLE
8
BLACK
10
177.3499999999999943
20
-59.75
40
0.1
0
LINE
8
BLACK
6
CONTINUOUS
10
80.9500000000000028
20
-49.1999999999999957
11
180.9499999999999886
21
-49.1999999999999957
0
LINE
8
BLACK
6
CONTINUOUS
10
180.9499999999999886
20
-49.1999999999999957
11
180.9499999999999886
21
-149.1999999999999886
0
LINE
8
BLACK
6
CONTINUOUS
10
180.9499999999999886
20
-149.1999999999999886
11
80.9500000000000028
21
-149.1999999999999886
0
LINE
8
BLACK
6
CONTINUOUS
10
80.9500000000000028
20
-149.1999999999999886
11
80.9500000000000028
21
-49.1999999999999957
0
CIRCLE
8
BLACK
10
133.5749999999999886
20
-123.5749999999999886
40
0.1
0
CIRCLE
8
BLACK
10
172.9000000000000057
20
-122.0999999999999943
40
0.1
0
CIRCLE
8
BLACK
10
124.25
20
-129.75
40
0.2
0
CIRCLE
8
BLACK
10
133.5999999999999943
20
-125.3999999999999915
40
0.1
0
LINE
8
BLACK
6
CONTINUOUS
10
119.3499999999999943
20
-107.1499999999999915
11
129.1500000000000057
21
-107.1499999999999915
0
LINE
8
BLACK
6
CONTINUOUS
10
129.1500000000000057
20
-107.1499999999999915
11
129.1500000000000057
21
-129.8499999999999943
0
LINE
8
BLACK
6
CONTINUOUS
10
129.1500000000000057
20
-129.8499999999999943
11
119.3499999999999943
21
-129.8499999999999943
0
LINE
8
BLACK
6
CONTINUOUS
10
119.3499999999999943
20
-129.8499999999999943
11
119.3499999999999943
21
-107.1499999999999915
0
CIRCLE
8
BLACK
10
146.9499999999999886
20
-59.7999999999999972
40
0.1
0
CIRCLE
8
BLACK
10
124.2999999999999972
20
-118.5499999999999972
40
0.1
0
CIRCLE
8
BLACK
10
156.4000000000000057
20
-116.5
40
0.1
0
CIRCLE
8
BLACK
10
146.9000000000000057
20
-122.25
40
0.1
0
CIRCLE
8
BLACK
10
133.5999999999999943
20
-121.5999999999999943
40
0.1
0
CIRCLE
8
BLACK
10
124.25
20
-107.25
40
0.2
0
LINE
8
BLACK
6
CONTINUOUS
10
134.5605879999999956
20
-121.4698190000000011
11
133.9891599999999983
21
-121.4698190000000011
0
LINE
8
BLACK
6
CONTINUOUS
10
134.2748739999999827
20
-121.4698190000000011
11
134.2748739999999827
21
-120.4698190000000011
0
LINE
8
BLACK
6
CONTINUOUS
10
134.2748739999999827
20
-120.4698190000000011
11
134.1796359999999879
21
-120.6126759999999933
0
LINE
8
BLACK
6
CONTINUOUS
10
134.1796359999999879
20
-120.6126759999999933
11
134.0843979999999931
21
-120.7079139999999882
0
LINE
8
BLACK
6
CONTINUOUS
10
134.0843979999999931
20
-120.7079139999999882
11
133.9891599999999983
21
-120.7555329999999998
0
LINE
8
BLACK
6
CONTINUOUS
10
134.9891599999999983
20
-121.4698190000000011
11
134.9891599999999983
21
-120.8031519999999972
0
LINE
8
BLACK
6
CONTINUOUS
10
134.9891599999999983
20
-120.898389999999992
11
135.0367789999999957
21
-120.8507709999999946
0
LINE
8
BLACK
6
CONTINUOUS
10
135.0367789999999957
20
-120.8507709999999946
11
135.1320169999999905
21
-120.8031519999999972
0
LINE
8
BLACK
6
CONTINUOUS
10
135.1320169999999905
20
-120.8031519999999972
11
135.2748739999999827
21
-120.8031519999999972
0
LINE
8
BLACK
6
CONTINUOUS
10
135.2748739999999827
20
-120.8031519999999972
11
135.370112000000006
21
-120.8507709999999946
0
LINE
8
BLACK
6
CONTINUOUS
10
135.370112000000006
20
-120.8507709999999946
11
135.4177310000000034
21
-120.9460089999999894
0
LINE
8
BLACK
6
CONTINUOUS
10
135.4177310000000034
20
-120.9460089999999894
11
135.4177310000000034
21
-121.4698190000000011
0
LINE
8
BLACK
6
CONTINUOUS
10
135.4177310000000034
20
-120.9460089999999894
11
135.4653500000000008
21
-120.8507709999999946
0
LINE
8
BLACK
6
CONTINUOUS
10
135.4653500000000008
20
-120.8507709999999946
11
135.5605879999999956
21
-120.8031519999999972
0
LINE
8
BLACK
6
CONTINUOUS
10
135.5605879999999956
20
-120.8031519999999972
11
135.7034449999999879
21
-120.8031519999999972
0
LINE
8
BLACK
6
CONTINUOUS
10
135.7034449999999879
20
-120.8031519999999972
11
135.7986839999999802
21
-120.8507709999999946
0
LINE
8
BLACK
6
CONTINUOUS
10
135.7986839999999802
20
-120.8507709999999946
11
135.846303000000006
21
-120.9460089999999894
0
LINE
8
BLACK
6
CONTINUOUS
10
135.846303000000006
20
-120.9460089999999894
11
135.846303000000006
21
-121.4698190000000011
0
LINE
8
BLACK
6
CONTINUOUS
10
136.3224929999999802
20
-121.4698190000000011
11
136.3224929999999802
21
-120.8031519999999972
0
LINE
8
BLACK
6
CONTINUOUS
10
136.3224929999999802
20
-120.898389999999992
11
136.370112000000006
21
-120.8507709999999946
0
LINE
8
BLACK
6
CONTINUOUS
10
136.370112000000006
20
-120.8507709999999946
11
136.4653500000000008
21
-120.8031519999999972
0
LINE
8
BLACK
6
CONTINUOUS
10
136.4653500000000008
20
-120.8031519999999972
11
136.6082069999999931
21
-120.8031519999999972
0
LINE
8
BLACK
6
CONTINUOUS
10
136.6082069999999931
20
-120.8031519999999972
11
136.7034449999999879
21
-120.8507709999999946
0
LINE
8
BLACK
6
CONTINUOUS
10
136.7034449999999879
20
-120.8507709999999946
11
136.7510639999999853
21
-120.9460089999999894
0
LINE
8
BLACK
6
CONTINUOUS
10
136.7510639999999853
20
-120.9460089999999894
11
136.7510639999999853
21
-121.4698190000000011
0
LINE
8
BLACK
6
CONTINUOUS
10
136.7510639999999853
20
-120.9460089999999894
11
136.7986829999999827
21
-120.8507709999999946
0
LINE
8
BLACK
6
CONTINUOUS
10
136.7986829999999827
20
-120.8507709999999946
11
136.893921000000006
21
-120.8031519999999972
0
LINE
8
BLACK
6
CONTINUOUS
10
136.893921000000006
20
-120.8031519999999972
11
137.0367779999999982
21
-120.8031519999999972
0
LINE
8
BLACK
6
CONTINUOUS
10
137.0367779999999982
20
-120.8031519999999972
11
137.1320169999999905
21
-120.8507709999999946
0
LINE
8
BLACK
6
CONTINUOUS
10
137.1320169999999905
20
-120.8507709999999946
11
137.1796359999999879
21
-120.9460089999999894
0
LINE
8
BLACK
6
CONTINUOUS
10
137.1796359999999879
20
-120.9460089999999894
11
137.1796359999999879
21
-121.4698190000000011
0
LINE
8
BLACK
6
CONTINUOUS
10
138.8463019999999801
20
-121.4698190000000011
11
138.8463019999999801
21
-120.4698190000000011
0
LINE
8
BLACK
6
CONTINUOUS
10
138.8463019999999801
20
-121.4221999999999895
11
138.7510639999999853
21
-121.4698190000000011
0
LINE
8
BLACK
6
CONTINUOUS
10
138.7510639999999853
20
-121.4698190000000011
11
138.5605879999999956
21
-121.4698190000000011
0
LINE
8
BLACK
6
CONTINUOUS
10
138.5605879999999956
20
-121.4698190000000011
11
138.4653500000000008
21
-121.4221999999999895
0
LINE
8
BLACK
6
CONTINUOUS
10
138.4653500000000008
20
-121.4221999999999895
11
138.4177310000000034
21
-121.3745799999999946
0
LINE
8
BLACK
6
CONTINUOUS
10
138.4177310000000034
20
-121.3745799999999946
11
138.370112000000006
21
-121.2793419999999998
0
LINE
8
BLACK
6
CONTINUOUS
10
138.370112000000006
20
-121.2793419999999998
11
138.370112000000006
21
-120.9936280000000011
0
LINE
8
BLACK
6
CONTINUOUS
10
138.370112000000006
20
-120.9936280000000011
11
138.4177310000000034
21
-120.898389999999992
0
LINE
8
BLACK
6
CONTINUOUS
10
138.4177310000000034
20
-120.898389999999992
11
138.4653500000000008
21
-120.8507709999999946
0
LINE
8
BLACK
6
CONTINUOUS
10
138.4653500000000008
20
-120.8507709999999946
11
138.5605879999999956
21
-120.8031519999999972
0
LINE
8
BLACK
6
CONTINUOUS
10
138.5605879999999956
20
-120.8031519999999972
11
138.7510639999999853
21
-120.8031519999999972
0
LINE
8
BLACK
6
CONTINUOUS
10
138.7510639999999853
20
-120.8031519999999972
11
138.8463019999999801
21
-120.8507709999999946
0
LINE
8
BLACK
6
CONTINUOUS
10
139.3224929999999802
20
-121.4698190000000011
11
139.3224929999999802
21
-120.8031519999999972
0
LINE
8
BLACK
6
CONTINUOUS
10
139.3224929999999802
20
-120.4698190000000011
11
139.2748739999999827
21
-120.5174379999999985
0
LINE
8
BLACK
6
CONTINUOUS
10
139.2748739999999827
20
-120.5174379999999985
11
139.3224929999999802
21
-120.5650569999999959
0
LINE
8
BLACK
6
CONTINUOUS
10
139.3224929999999802
20
-120.5650569999999959
11
139.370112000000006
21
-120.5174379999999985
0
LINE
8
BLACK
6
CONTINUOUS
10
139.370112000000006
20
-120.5174379999999985
11
139.3224929999999802
21
-120.4698190000000011
0
LINE
8
BLACK
6
CONTINUOUS
10
139.3224929999999802
20
-120.4698190000000011
11
139.3224929999999802
21
-120.5650569999999959
0
LINE
8
BLACK
6
CONTINUOUS
10
140.2272539999999879
20
-121.4698190000000011
11
140.2272539999999879
21
-120.9460089999999894
0
LINE
8
BLACK
6
CONTINUOUS
10
140.2272539999999879
20
-120.9460089999999894
11
140.1796349999999904
21
-120.8507709999999946
0
LINE
8
BLACK
6
CONTINUOUS
10
140.1796349999999904
20
-120.8507709999999946
11
140.0843969999999956
21
-120.8031519999999972
0
LINE
8
BLACK
6
CONTINUOUS
10
140.0843969999999956
20
-120.8031519999999972
11
139.893921000000006
21
-120.8031519999999972
0
LINE
8
BLACK
6
CONTINUOUS
10
139.893921000000006
20
-120.8031519999999972
11
139.7986829999999827
21
-120.8507709999999946
0
LINE
8
BLACK
6
CONTINUOUS
10
140.2272539999999879
20
-121.4221999999999895
11
140.132015999999993
21
-121.4698190000000011
0
LINE
8
BLACK
6
CONTINUOUS
10
140.132015999999993
20
-121.4698190000000011
11
139.893921000000006
21
-121.4698190000000011
0
LINE
8
BLACK
6
CONTINUOUS
10
139.893921000000006
20
-121.4698190000000011
11
139.7986829999999827
21
-121.4221999999999895
0
LINE
8
BLACK
6
CONTINUOUS
10
139.7986829999999827
20
-121.4221999999999895
11
139.7510639999999853
21
-121.3269609999999972
0
LINE
8
BLACK
6
CONTINUOUS
10
139.7510639999999853
20
-121.3269609999999972
11
139.7510639999999853
21
-121.2317229999999881
0
LINE
8
BLACK
6
CONTINUOUS
10
139.7510639999999853
20
-121.2317229999999881
11
139.7986829999999827
21
-121.1364849999999933
0
LINE
8
BLACK
6
CONTINUOUS
10
139.7986829999999827
20
-121.1364849999999933
11
139.893921000000006
21
-121.0888659999999959
0
LINE
8
BLACK
6
CONTINUOUS
10
139.893921000000006
20
-121.0888659999999959
11
140.132015999999993
21
-121.0888659999999959
0
LINE
8
BLACK
6
CONTINUOUS
10
140.132015999999993
20
-121.0888659999999959
11
140.2272539999999879
21
-121.0412469999999985
0
LINE
8
BLACK
6
CONTINUOUS
10
140.7034449999999879
20
-121.4698190000000011
11
140.7034449999999879
21
-120.8031519999999972
0
LINE
8
BLACK
6
CONTINUOUS
10
140.7034449999999879
20
-120.898389999999992
11
140.7510639999999853
21
-120.8507709999999946
0
LINE
8
BLACK
6
CONTINUOUS
10
140.7510639999999853
20
-120.8507709999999946
11
140.8463019999999801
21
-120.8031519999999972
0
LINE
8
BLACK
6
CONTINUOUS
10
140.8463019999999801
20
-120.8031519999999972
11
140.9891590000000008
21
-120.8031519999999972
0
LINE
8
BLACK
6
CONTINUOUS
10
140.9891590000000008
20
-120.8031519999999972
11
141.0843969999999956
21
-120.8507709999999946
0
LINE
8
BLACK
6
CONTINUOUS
10
141.0843969999999956
20
-120.8507709999999946
11
141.132015999999993
21
-120.9460089999999894
0
LINE
8
BLACK
6
CONTINUOUS
10
141.132015999999993
20
-120.9460089999999894
11
141.132015999999993
21
-121.4698190000000011
0
LINE
8
BLACK
6
CONTINUOUS
10
141.132015999999993
20
-120.9460089999999894
11
141.1796349999999904
21
-120.8507709999999946
0
LINE
8
BLACK
6
CONTINUOUS
10
141.1796349999999904
20
-120.8507709999999946
11
141.2748729999999853
21
-120.8031519999999972
0
LINE
8
BLACK
6
CONTINUOUS
10
141.2748729999999853
20
-120.8031519999999972
11
141.4177300000000059
21
-120.8031519999999972
0
LINE
8
BLACK
6
CONTINUOUS
10
141.4177300000000059
20
-120.8031519999999972
11
141.5129689999999982
21
-120.8507709999999946
0
LINE
8
BLACK
6
CONTINUOUS
10
141.5129689999999982
20
-120.8507709999999946
11
141.5605879999999956
21
-120.9460089999999894
0
LINE
8
BLACK
6
CONTINUOUS
10
141.5605879999999956
20
-120.9460089999999894
11
141.5605879999999956
21
-121.4698190000000011
0
LINE
8
BLACK
6
CONTINUOUS
10
84.4415410000000008
20
-51.4698190000000011
11
85.0605879999999956
21
-51.4698190000000011
0
LINE
8
BLACK
6
CONTINUOUS
10
85.0605879999999956
20
-51.4698190000000011
11
84.7272549999999995
21
-51.8507709999999946
0
LINE
8
BLACK
6
CONTINUOUS
10
84.7272549999999995
20
-51.8507709999999946
11
84.8701119999999918
21
-51.8507709999999946
0
LINE
8
BLACK
6
CONTINUOUS
10
84.8701119999999918
20
-51.8507709999999946
11
84.9653500000000008
21
-51.8983899999999991
0
LINE
8
BLACK
6
CONTINUOUS
10
84.9653500000000008
20
-51.8983899999999991
11
85.0129689999999982
21
-51.9460089999999965
0
LINE
8
BLACK
6
CONTINUOUS
10
85.0129689999999982
20
-51.9460089999999965
11
85.0605879999999956
21
-52.0412469999999985
0
LINE
8
BLACK
6
CONTINUOUS
10
85.0605879999999956
20
-52.0412469999999985
11
85.0605879999999956
21
-52.2793419999999998
0
LINE
8
BLACK
6
CONTINUOUS
10
85.0605879999999956
20
-52.2793419999999998
11
85.0129689999999982
21
-52.3745799999999946
0
LINE
8
BLACK
6
CONTINUOUS
10
85.0129689999999982
20
-52.3745799999999946
11
84.9653500000000008
21
-52.4221999999999966
0
LINE
8
BLACK
6
CONTINUOUS
10
84.9653500000000008
20
-52.4221999999999966
11
84.8701119999999918
21
-52.4698190000000011
0
LINE
8
BLACK
6
CONTINUOUS
10
84.8701119999999918
20
-52.4698190000000011
11
84.5843979999999931
21
-52.4698190000000011
0
LINE
8
BLACK
6
CONTINUOUS
10
84.5843979999999931
20
-52.4698190000000011
11
84.4891599999999983
21
-52.4221999999999966
0
LINE
8
BLACK
6
CONTINUOUS
10
84.4891599999999983
20
-52.4221999999999966
11
84.4415410000000008
21
-52.3745799999999946
0
LINE
8
BLACK
6
CONTINUOUS
10
85.4891599999999983
20
-52.3745799999999946
11
85.5367789999999957
21
-52.4221999999999966
0
LINE
8
BLACK
6
CONTINUOUS
10
85.5367789999999957
20
-52.4221999999999966
11
85.4891599999999983
21
-52.4698190000000011
0
LINE
8
BLACK
6
CONTINUOUS
10
85.4891599999999983
20
-52.4698190000000011
11
85.4415410000000008
21
-52.4221999999999966
0
LINE
8
BLACK
6
CONTINUOUS
10
85.4415410000000008
20
-52.4221999999999966
11
85.4891599999999983
21
-52.3745799999999946
0
LINE
8
BLACK
6
CONTINUOUS
10
85.4891599999999983
20
-52.3745799999999946
11
85.4891599999999983
21
-52.4698190000000011
0
LINE
8
BLACK
6
CONTINUOUS
10
85.9177309999999892
20
-51.5650569999999959
11
85.9653500000000008
21
-51.5174379999999985
0
LINE
8
BLACK
6
CONTINUOUS
10
85.9653500000000008
20
-51.5174379999999985
11
86.0605879999999956
21
-51.4698190000000011
0
LINE
8
BLACK
6
CONTINUOUS
10
86.0605879999999956
20
-51.4698190000000011
11
86.2986829999999969
21
-51.4698190000000011
0
LINE
8
BLACK
6
CONTINUOUS
10
86.2986829999999969
20
-51.4698190000000011
11
86.3939209999999917
21
-51.5174379999999985
0
LINE
8
BLACK
6
CONTINUOUS
10
86.3939209999999917
20
-51.5174379999999985
11
86.4415399999999892
21
-51.5650569999999959
0
LINE
8
BLACK
6
CONTINUOUS
10
86.4415399999999892
20
-51.5650569999999959
11
86.4891590000000008
21
-51.6602949999999979
0
LINE
8
BLACK
6
CONTINUOUS
10
86.4891590000000008
20
-51.6602949999999979
11
86.4891590000000008
21
-51.7555329999999998
0
LINE
8
BLACK
6
CONTINUOUS
10
86.4891590000000008
20
-51.7555329999999998
11
86.4415399999999892
21
-51.8983899999999991
0
LINE
8
BLACK
6
CONTINUOUS
10
86.4415399999999892
20
-51.8983899999999991
11
85.8701119999999918
21
-52.4698190000000011
0
LINE
8
BLACK
6
CONTINUOUS
10
85.8701119999999918
20
-52.4698190000000011
11
86.4891590000000008
21
-52.4698190000000011
0
LINE
8
BLACK
6
CONTINUOUS
10
86.9177309999999892
20
-52.4698190000000011
11
86.9177309999999892
21
-51.8031519999999972
0
LINE
8
BLACK
6
CONTINUOUS
10
86.9177309999999892
20
-51.8983899999999991
11
86.9653500000000008
21
-51.8507709999999946
0
LINE
8
BLACK
6
CONTINUOUS
10
86.9653500000000008
20
-51.8507709999999946
11
87.0605879999999956
21
-51.8031519999999972
0
LINE
8
BLACK
6
CONTINUOUS
10
87.0605879999999956
20
-51.8031519999999972
11
87.2034450000000021
21
-51.8031519999999972
0
LINE
8
BLACK
6
CONTINUOUS
10
87.2034450000000021
20
-51.8031519999999972
11
87.2986829999999969
21
-51.8507709999999946
0
LINE
8
BLACK
6
CONTINUOUS
10
87.2986829999999969
20
-51.8507709999999946
11
87.3463019999999943
21
-51.9460089999999965
0
LINE
8
BLACK
6
CONTINUOUS
10
87.3463019999999943
20
-51.9460089999999965
11
87.3463019999999943
21
-52.4698190000000011
0
LINE
8
BLACK
6
CONTINUOUS
10
87.3463019999999943
20
-51.9460089999999965
11
87.3939209999999917
21
-51.8507709999999946
0
LINE
8
BLACK
6
CONTINUOUS
10
87.3939209999999917
20
-51.8507709999999946
11
87.4891590000000008
21
-51.8031519999999972
0
LINE
8
BLACK
6
CONTINUOUS
10
87.4891590000000008
20
-51.8031519999999972
11
87.632015999999993
21
-51.8031519999999972
0
LINE
8
BLACK
6
CONTINUOUS
10
87.632015999999993
20
-51.8031519999999972
11
87.7272549999999995
21
-51.8507709999999946
0
LINE
8
BLACK
6
CONTINUOUS
10
87.7272549999999995
20
-51.8507709999999946
11
87.774873999999997
21
-51.9460089999999965
0
LINE
8
BLACK
6
CONTINUOUS
10
87.774873999999997
20
-51.9460089999999965
11
87.774873999999997
21
-52.4698190000000011
0
LINE
8
BLACK
6
CONTINUOUS
10
88.2510639999999995
20
-52.4698190000000011
11
88.2510639999999995
21
-51.8031519999999972
0
LINE
8
BLACK
6
CONTINUOUS
10
88.2510639999999995
20
-51.8983899999999991
11
88.2986829999999969
21
-51.8507709999999946
0
LINE
8
BLACK
6
CONTINUOUS
10
88.2986829999999969
20
-51.8507709999999946
11
88.3939209999999917
21
-51.8031519999999972
0
LINE
8
BLACK
6
CONTINUOUS
10
88.3939209999999917
20
-51.8031519999999972
11
88.5367779999999982
21
-51.8031519999999972
0
LINE
8
BLACK
6
CONTINUOUS
10
88.5367779999999982
20
-51.8031519999999972
11
88.632015999999993
21
-51.8507709999999946
0
LINE
8
BLACK
6
CONTINUOUS
10
88.632015999999993
20
-51.8507709999999946
11
88.6796349999999904
21
-51.9460089999999965
0
LINE
8
BLACK
6
CONTINUOUS
10
88.6796349999999904
20
-51.9460089999999965
11
88.6796349999999904
21
-52.4698190000000011
0
LINE
8
BLACK
6
CONTINUOUS
10
88.6796349999999904
20
-51.9460089999999965
11
88.7272540000000021
21
-51.8507709999999946
0
LINE
8
BLACK
6
CONTINUOUS
10
88.7272540000000021
20
-51.8507709999999946
11
88.8224919999999969
21
-51.8031519999999972
0
LINE
8
BLACK
6
CONTINUOUS
10
88.8224919999999969
20
-51.8031519999999972
11
88.9653489999999891
21
-51.8031519999999972
0
LINE
8
BLACK
6
CONTINUOUS
10
88.9653489999999891
20
-51.8031519999999972
11
89.0605879999999956
21
-51.8507709999999946
0
LINE
8
BLACK
6
CONTINUOUS
10
89.0605879999999956
20
-51.8507709999999946
11
89.1082069999999931
21
-51.9460089999999965
0
LINE
8
BLACK
6
CONTINUOUS
10
89.1082069999999931
20
-51.9460089999999965
11
89.1082069999999931
21
-52.4698190000000011
0
LINE
8
BLACK
6
CONTINUOUS
10
90.7748729999999995
20
-52.4698190000000011
11
90.7748729999999995
21
-51.4698190000000011
0
LINE
8
BLACK
6
CONTINUOUS
10
90.7748729999999995
20
-52.4221999999999966
11
90.6796349999999904
21
-52.4698190000000011
0
LINE
8
BLACK
6
CONTINUOUS
10
90.6796349999999904
20
-52.4698190000000011
11
90.4891590000000008
21
-52.4698190000000011
0
LINE
8
BLACK
6
CONTINUOUS
10
90.4891590000000008
20
-52.4698190000000011
11
90.3939209999999917
21
-52.4221999999999966
0
LINE
8
BLACK
6
CONTINUOUS
10
90.3939209999999917
20
-52.4221999999999966
11
90.3463019999999943
21
-52.3745799999999946
0
LINE
8
BLACK
6
CONTINUOUS
10
90.3463019999999943
20
-52.3745799999999946
11
90.2986829999999969
21
-52.2793419999999998
0
LINE
8
BLACK
6
CONTINUOUS
10
90.2986829999999969
20
-52.2793419999999998
11
90.2986829999999969
21
-51.9936280000000011
0
LINE
8
BLACK
6
CONTINUOUS
10
90.2986829999999969
20
-51.9936280000000011
11
90.3463019999999943
21
-51.8983899999999991
0
LINE
8
BLACK
6
CONTINUOUS
10
90.3463019999999943
20
-51.8983899999999991
11
90.3939209999999917
21
-51.8507709999999946
0
LINE
8
BLACK
6
CONTINUOUS
10
90.3939209999999917
20
-51.8507709999999946
11
90.4891590000000008
21
-51.8031519999999972
0
LINE
8
BLACK
6
CONTINUOUS
10
90.4891590000000008
20
-51.8031519999999972
11
90.6796349999999904
21
-51.8031519999999972
0
LINE
8
BLACK
6
CONTINUOUS
10
90.6796349999999904
20
-51.8031519999999972
11
90.7748729999999995
21
-51.8507709999999946
0
LINE
8
BLACK
6
CONTINUOUS
10
91.2510639999999995
20
-52.4698190000000011
11
91.2510639999999995
21
-51.8031519999999972
0
LINE
8
BLACK
6
CONTINUOUS
10
91.2510639999999995
20
-51.4698190000000011
11
91.2034450000000021
21
-51.5174379999999985
0
LINE
8
BLACK
6
CONTINUOUS
10
91.2034450000000021
20
-51.5174379999999985
11
91.2510639999999995
21
-51.5650569999999959
0
LINE
8
BLACK
6
CONTINUOUS
10
91.2510639999999995
20
-51.5650569999999959
11
91.2986829999999969
21
-51.5174379999999985
0
LINE
8
BLACK
6
CONTINUOUS
10
91.2986829999999969
20
-51.5174379999999985
11
91.2510639999999995
21
-51.4698190000000011
0
LINE
8
BLACK
6
CONTINUOUS
10
91.2510639999999995
20
-51.4698190000000011
11
91.2510639999999995
21
-51.5650569999999959
0
LINE
8
BLACK
6
CONTINUOUS
10
92.155824999999993
20
-52.4698190000000011
11
92.155824999999993
21
-51.9460089999999965
0
LINE
8
BLACK
6
CONTINUOUS
10
92.155824999999993
20
-51.9460089999999965
11
92.1082059999999956
21
-51.8507709999999946
0
LINE
8
BLACK
6
CONTINUOUS
10
92.1082059999999956
20
-51.8507709999999946
11
92.0129680000000008
21
-51.8031519999999972
0
LINE
8
BLACK
6
CONTINUOUS
10
92.0129680000000008
20
-51.8031519999999972
11
91.8224919999999969
21
-51.8031519999999972
0
LINE
8
BLACK
6
CONTINUOUS
10
91.8224919999999969
20
-51.8031519999999972
11
91.7272540000000021
21
-51.8507709999999946
0
LINE
8
BLACK
6
CONTINUOUS
10
92.155824999999993
20
-52.4221999999999966
11
92.0605869999999982
21
-52.4698190000000011
0
LINE
8
BLACK
6
CONTINUOUS
10
92.0605869999999982
20
-52.4698190000000011
11
91.8224919999999969
21
-52.4698190000000011
0
LINE
8
BLACK
6
CONTINUOUS
10
91.8224919999999969
20
-52.4698190000000011
11
91.7272540000000021
21
-52.4221999999999966
0
LINE
8
BLACK
6
CONTINUOUS
10
91.7272540000000021
20
-52.4221999999999966
11
91.6796349999999904
21
-52.3269609999999972
0
LINE
8
BLACK
6
CONTINUOUS
10
91.6796349999999904
20
-52.3269609999999972
11
91.6796349999999904
21
-52.2317229999999952
0
LINE
8
BLACK
6
CONTINUOUS
10
91.6796349999999904
20
-52.2317229999999952
11
91.7272540000000021
21
-52.1364850000000004
0
LINE
8
BLACK
6
CONTINUOUS
10
91.7272540000000021
20
-52.1364850000000004
11
91.8224919999999969
21
-52.0888659999999959
0
LINE
8
BLACK
6
CONTINUOUS
10
91.8224919999999969
20
-52.0888659999999959
11
92.0605869999999982
21
-52.0888659999999959
0
LINE
8
BLACK
6
CONTINUOUS
10
92.0605869999999982
20
-52.0888659999999959
11
92.155824999999993
21
-52.0412469999999985
0
LINE
8
BLACK
6
CONTINUOUS
10
92.632015999999993
20
-52.4698190000000011
11
92.632015999999993
21
-51.8031519999999972
0
LINE
8
BLACK
6
CONTINUOUS
10
92.632015999999993
20
-51.8983899999999991
11
92.6796349999999904
21
-51.8507709999999946
0
LINE
8
BLACK
6
CONTINUOUS
10
92.6796349999999904
20
-51.8507709999999946
11
92.7748729999999995
21
-51.8031519999999972
0
LINE
8
BLACK
6
CONTINUOUS
10
92.7748729999999995
20
-51.8031519999999972
11
92.9177299999999917
21
-51.8031519999999972
0
LINE
8
BLACK
6
CONTINUOUS
10
92.9177299999999917
20
-51.8031519999999972
11
93.0129680000000008
21
-51.8507709999999946
0
LINE
8
BLACK
6
CONTINUOUS
10
93.0129680000000008
20
-51.8507709999999946
11
93.0605869999999982
21
-51.9460089999999965
0
LINE
8
BLACK
6
CONTINUOUS
10
93.0605869999999982
20
-51.9460089999999965
11
93.0605869999999982
21
-52.4698190000000011
0
LINE
8
BLACK
6
CONTINUOUS
10
93.0605869999999982
20
-51.9460089999999965
11
93.1082059999999956
21
-51.8507709999999946
0
LINE
8
BLACK
6
CONTINUOUS
10
93.1082059999999956
20
-51.8507709999999946
11
93.2034439999999904
21
-51.8031519999999972
0
LINE
8
BLACK
6
CONTINUOUS
10
93.2034439999999904
20
-51.8031519999999972
11
93.3463009999999969
21
-51.8031519999999972
0
LINE
8
BLACK
6
CONTINUOUS
10
93.3463009999999969
20
-51.8031519999999972
11
93.4415399999999892
21
-51.8507709999999946
0
LINE
8
BLACK
6
CONTINUOUS
10
93.4415399999999892
20
-51.8507709999999946
11
93.4891590000000008
21
-51.9460089999999965
0
LINE
8
BLACK
6
CONTINUOUS
10
93.4891590000000008
20
-51.9460089999999965
11
93.4891590000000008
21
-52.4698190000000011
0
LINE
8
BLACK
6
CONTINUOUS
10
90.741540999999998
20
-143.8198189999999954
11
91.3605879999999928
21
-143.8198189999999954
0
LINE
8
BLACK
6
CONTINUOUS
10
91.3605879999999928
20
-143.8198189999999954
11
91.0272549999999967
21
-144.2007710000000031
0
LINE
8
BLACK
6
CONTINUOUS
10
91.0272549999999967
20
-144.2007710000000031
11
91.1701119999999889
21
-144.2007710000000031
0
LINE
8
BLACK
6
CONTINUOUS
10
91.1701119999999889
20
-144.2007710000000031
11
91.265349999999998
21
-144.2483900000000006
0
LINE
8
BLACK
6
CONTINUOUS
10
91.265349999999998
20
-144.2483900000000006
11
91.3129689999999954
21
-144.296008999999998
0
LINE
8
BLACK
6
CONTINUOUS
10
91.3129689999999954
20
-144.296008999999998
11
91.3605879999999928
21
-144.3912469999999928
0
LINE
8
BLACK
6
CONTINUOUS
10
91.3605879999999928
20
-144.3912469999999928
11
91.3605879999999928
21
-144.6293419999999799
0
LINE
8
BLACK
6
CONTINUOUS
10
91.3605879999999928
20
-144.6293419999999799
11
91.3129689999999954
21
-144.7245800000000031
0
LINE
8
BLACK
6
CONTINUOUS
10
91.3129689999999954
20
-144.7245800000000031
11
91.265349999999998
21
-144.772199999999998
0
LINE
8
BLACK
6
CONTINUOUS
10
91.265349999999998
20
-144.772199999999998
11
91.1701119999999889
21
-144.8198189999999954
0
LINE
8
BLACK
6
CONTINUOUS
10
91.1701119999999889
20
-144.8198189999999954
11
90.8843979999999902
21
-144.8198189999999954
0
LINE
8
BLACK
6
CONTINUOUS
10
90.8843979999999902
20
-144.8198189999999954
11
90.7891599999999954
21
-144.772199999999998
0
LINE
8
BLACK
6
CONTINUOUS
10
90.7891599999999954
20
-144.772199999999998
11
90.741540999999998
21
-144.7245800000000031
0
LINE
8
BLACK
6
CONTINUOUS
10
91.7891599999999954
20
-144.7245800000000031
11
91.8367789999999928
21
-144.772199999999998
0
LINE
8
BLACK
6
CONTINUOUS
10
91.8367789999999928
20
-144.772199999999998
11
91.7891599999999954
21
-144.8198189999999954
0
LINE
8
BLACK
6
CONTINUOUS
10
91.7891599999999954
20
-144.8198189999999954
11
91.741540999999998
21
-144.772199999999998
0
LINE
8
BLACK
6
CONTINUOUS
10
91.741540999999998
20
-144.772199999999998
11
91.7891599999999954
21
-144.7245800000000031
0
LINE
8
BLACK
6
CONTINUOUS
10
91.7891599999999954
20
-144.7245800000000031
11
91.7891599999999954
21
-144.8198189999999954
0
LINE
8
BLACK
6
CONTINUOUS
10
92.2177310000000006
20
-143.9150569999999902
11
92.265349999999998
21
-143.8674379999999928
0
LINE
8
BLACK
6
CONTINUOUS
10
92.265349999999998
20
-143.8674379999999928
11
92.3605879999999928
21
-143.8198189999999954
0
LINE
8
BLACK
6
CONTINUOUS
10
92.3605879999999928
20
-143.8198189999999954
11
92.5986829999999941
21
-143.8198189999999954
0
LINE
8
BLACK
6
CONTINUOUS
10
92.5986829999999941
20
-143.8198189999999954
11
92.6939209999999889
21
-143.8674379999999928
0
LINE
8
BLACK
6
CONTINUOUS
10
92.6939209999999889
20
-143.8674379999999928
11
92.7415400000000005
21
-143.9150569999999902
0
LINE
8
BLACK
6
CONTINUOUS
10
92.7415400000000005
20
-143.9150569999999902
11
92.7891589999999979
21
-144.0102949999999851
0
LINE
8
BLACK
6
CONTINUOUS
10
92.7891589999999979
20
-144.0102949999999851
11
92.7891589999999979
21
-144.1055329999999799
0
LINE
8
BLACK
6
CONTINUOUS
10
92.7891589999999979
20
-144.1055329999999799
11
92.7415400000000005
21
-144.2483900000000006
0
LINE
8
BLACK
6
CONTINUOUS
10
92.7415400000000005
20
-144.2483900000000006
11
92.1701119999999889
21
-144.8198189999999954
0
LINE
8
BLACK
6
CONTINUOUS
10
92.1701119999999889
20
-144.8198189999999954
11
92.7891589999999979
21
-144.8198189999999954
0
LINE
8
BLACK
6
CONTINUOUS
10
93.2177310000000006
20
-144.8198189999999954
11
93.2177310000000006
21
-144.1531520000000057
0
LINE
8
BLACK
6
CONTINUOUS
10
93.2177310000000006
20
-144.2483900000000006
11
93.265349999999998
21
-144.2007710000000031
0
LINE
8
BLACK
6
CONTINUOUS
10
93.265349999999998
20
-144.2007710000000031
11
93.3605879999999928
21
-144.1531520000000057
0
LINE
8
BLACK
6
CONTINUOUS
10
93.3605879999999928
20
-144.1531520000000057
11
93.5034449999999993
21
-144.1531520000000057
0
LINE
8
BLACK
6
CONTINUOUS
10
93.5034449999999993
20
-144.1531520000000057
11
93.5986829999999941
21
-144.2007710000000031
0
LINE
8
BLACK
6
CONTINUOUS
10
93.5986829999999941
20
-144.2007710000000031
11
93.6463019999999915
21
-144.296008999999998
0
LINE
8
BLACK
6
CONTINUOUS
10
93.6463019999999915
20
-144.296008999999998
11
93.6463019999999915
21
-144.8198189999999954
0
LINE
8
BLACK
6
CONTINUOUS
10
93.6463019999999915
20
-144.296008999999998
11
93.6939209999999889
21
-144.2007710000000031
0
LINE
8
BLACK
6
CONTINUOUS
10
93.6939209999999889
20
-144.2007710000000031
11
93.7891589999999979
21
-144.1531520000000057
0
LINE
8
BLACK
6
CONTINUOUS
10
93.7891589999999979
20
-144.1531520000000057
11
93.9320159999999902
21
-144.1531520000000057
0
LINE
8
BLACK
6
CONTINUOUS
10
93.9320159999999902
20
-144.1531520000000057
11
94.0272549999999967
21
-144.2007710000000031
0
LINE
8
BLACK
6
CONTINUOUS
10
94.0272549999999967
20
-144.2007710000000031
11
94.0748739999999941
21
-144.296008999999998
0
LINE
8
BLACK
6
CONTINUOUS
10
94.0748739999999941
20
-144.296008999999998
11
94.0748739999999941
21
-144.8198189999999954
0
LINE
8
BLACK
6
CONTINUOUS
10
94.5510639999999967
20
-144.8198189999999954
11
94.5510639999999967
21
-144.1531520000000057
0
LINE
8
BLACK
6
CONTINUOUS
10
94.5510639999999967
20
-144.2483900000000006
11
94.5986829999999941
21
-144.2007710000000031
0
LINE
8
BLACK
6
CONTINUOUS
10
94.5986829999999941
20
-144.2007710000000031
11
94.6939209999999889
21
-144.1531520000000057
0
LINE
8
BLACK
6
CONTINUOUS
10
94.6939209999999889
20
-144.1531520000000057
11
94.8367779999999954
21
-144.1531520000000057
0
LINE
8
BLACK
6
CONTINUOUS
10
94.8367779999999954
20
-144.1531520000000057
11
94.9320159999999902
21
-144.2007710000000031
0
LINE
8
BLACK
6
CONTINUOUS
10
94.9320159999999902
20
-144.2007710000000031
11
94.9796350000000018
21
-144.296008999999998
0
LINE
8
BLACK
6
CONTINUOUS
10
94.9796350000000018
20
-144.296008999999998
11
94.9796350000000018
21
-144.8198189999999954
0
LINE
8
BLACK
6
CONTINUOUS
10
94.9796350000000018
20
-144.296008999999998
11
95.0272539999999992
21
-144.2007710000000031
0
LINE
8
BLACK
6
CONTINUOUS
10
95.0272539999999992
20
-144.2007710000000031
11
95.1224919999999941
21
-144.1531520000000057
0
LINE
8
BLACK
6
CONTINUOUS
10
95.1224919999999941
20
-144.1531520000000057
11
95.2653490000000005
21
-144.1531520000000057
0
LINE
8
BLACK
6
CONTINUOUS
10
95.2653490000000005
20
-144.1531520000000057
11
95.3605879999999928
21
-144.2007710000000031
0
LINE
8
BLACK
6
CONTINUOUS
10
95.3605879999999928
20
-144.2007710000000031
11
95.4082069999999902
21
-144.296008999999998
0
LINE
8
BLACK
6
CONTINUOUS
10
95.4082069999999902
20
-144.296008999999998
11
95.4082069999999902
21
-144.8198189999999954
0
LINE
8
BLACK
6
CONTINUOUS
10
97.0748729999999966
20
-144.8198189999999954
11
97.0748729999999966
21
-143.8198189999999954
0
LINE
8
BLACK
6
CONTINUOUS
10
97.0748729999999966
20
-144.772199999999998
11
96.9796350000000018
21
-144.8198189999999954
0
LINE
8
BLACK
6
CONTINUOUS
10
96.9796350000000018
20
-144.8198189999999954
11
96.7891589999999979
21
-144.8198189999999954
0
LINE
8
BLACK
6
CONTINUOUS
10
96.7891589999999979
20
-144.8198189999999954
11
96.6939209999999889
21
-144.772199999999998
0
LINE
8
BLACK
6
CONTINUOUS
10
96.6939209999999889
20
-144.772199999999998
11
96.6463019999999915
21
-144.7245800000000031
0
LINE
8
BLACK
6
CONTINUOUS
10
96.6463019999999915
20
-144.7245800000000031
11
96.5986829999999941
21
-144.6293419999999799
0
LINE
8
BLACK
6
CONTINUOUS
10
96.5986829999999941
20
-144.6293419999999799
11
96.5986829999999941
21
-144.3436279999999954
0
LINE
8
BLACK
6
CONTINUOUS
10
96.5986829999999941
20
-144.3436279999999954
11
96.6463019999999915
21
-144.2483900000000006
0
LINE
8
BLACK
6
CONTINUOUS
10
96.6463019999999915
20
-144.2483900000000006
11
96.6939209999999889
21
-144.2007710000000031
0
LINE
8
BLACK
6
CONTINUOUS
10
96.6939209999999889
20
-144.2007710000000031
11
96.7891589999999979
21
-144.1531520000000057
0
LINE
8
BLACK
6
CONTINUOUS
10
96.7891589999999979
20
-144.1531520000000057
11
96.9796350000000018
21
-144.1531520000000057
0
LINE
8
BLACK
6
CONTINUOUS
10
96.9796350000000018
20
-144.1531520000000057
11
97.0748729999999966
21
-144.2007710000000031
0
LINE
8
BLACK
6
CONTINUOUS
10
97.5510639999999967
20
-144.8198189999999954
11
97.5510639999999967
21
-144.1531520000000057
0
LINE
8
BLACK
6
CONTINUOUS
10
97.5510639999999967
20
-143.8198189999999954
11
97.5034449999999993
21
-143.8674379999999928
0
LINE
8
BLACK
6
CONTINUOUS
10
97.5034449999999993
20
-143.8674379999999928
11
97.5510639999999967
21
-143.9150569999999902
0
LINE
8
BLACK
6
CONTINUOUS
10
97.5510639999999967
20
-143.9150569999999902
11
97.5986829999999941
21
-143.8674379999999928
0
LINE
8
BLACK
6
CONTINUOUS
10
97.5986829999999941
20
-143.8674379999999928
11
97.5510639999999967
21
-143.8198189999999954
0
LINE
8
BLACK
6
CONTINUOUS
10
97.5510639999999967
20
-143.8198189999999954
11
97.5510639999999967
21
-143.9150569999999902
0
LINE
8
BLACK
6
CONTINUOUS
10
98.4558249999999902
20
-144.8198189999999954
11
98.4558249999999902
21
-144.296008999999998
0
LINE
8
BLACK
6
CONTINUOUS
10
98.4558249999999902
20
-144.296008999999998
11
98.4082059999999927
21
-144.2007710000000031
0
LINE
8
BLACK
6
CONTINUOUS
10
98.4082059999999927
20
-144.2007710000000031
11
98.3129679999999979
21
-144.1531520000000057
0
LINE
8
BLACK
6
CONTINUOUS
10
98.3129679999999979
20
-144.1531520000000057
11
98.1224919999999941
21
-144.1531520000000057
0
LINE
8
BLACK
6
CONTINUOUS
10
98.1224919999999941
20
-144.1531520000000057
11
98.0272539999999992
21
-144.2007710000000031
0
LINE
8
BLACK
6
CONTINUOUS
10
98.4558249999999902
20
-144.772199999999998
11
98.3605869999999953
21
-144.8198189999999954
0
LINE
8
BLACK
6
CONTINUOUS
10
98.3605869999999953
20
-144.8198189999999954
11
98.1224919999999941
21
-144.8198189999999954
0
LINE
8
BLACK
6
CONTINUOUS
10
98.1224919999999941
20
-144.8198189999999954
11
98.0272539999999992
21
-144.772199999999998
0
LINE
8
BLACK
6
CONTINUOUS
10
98.0272539999999992
20
-144.772199999999998
11
97.9796350000000018
21
-144.6769610000000057
0
LINE
8
BLACK
6
CONTINUOUS
10
97.9796350000000018
20
-144.6769610000000057
11
97.9796350000000018
21
-144.5817229999999824
0
LINE
8
BLACK
6
CONTINUOUS
10
97.9796350000000018
20
-144.5817229999999824
11
98.0272539999999992
21
-144.4864849999999876
0
LINE
8
BLACK
6
CONTINUOUS
10
98.0272539999999992
20
-144.4864849999999876
11
98.1224919999999941
21
-144.4388659999999902
0
LINE
8
BLACK
6
CONTINUOUS
10
98.1224919999999941
20
-144.4388659999999902
11
98.3605869999999953
21
-144.4388659999999902
0
LINE
8
BLACK
6
CONTINUOUS
10
98.3605869999999953
20
-144.4388659999999902
11
98.4558249999999902
21
-144.3912469999999928
0
LINE
8
BLACK
6
CONTINUOUS
10
98.9320159999999902
20
-144.8198189999999954
11
98.9320159999999902
21
-144.1531520000000057
0
LINE
8
BLACK
6
CONTINUOUS
10
98.9320159999999902
20
-144.2483900000000006
11
98.9796350000000018
21
-144.2007710000000031
0
LINE
8
BLACK
6
CONTINUOUS
10
98.9796350000000018
20
-144.2007710000000031
11
99.0748729999999966
21
-144.1531520000000057
0
LINE
8
BLACK
6
CONTINUOUS
10
99.0748729999999966
20
-144.1531520000000057
11
99.2177299999999889
21
-144.1531520000000057
0
LINE
8
BLACK
6
CONTINUOUS
10
99.2177299999999889
20
-144.1531520000000057
11
99.3129679999999979
21
-144.2007710000000031
0
LINE
8
BLACK
6
CONTINUOUS
10
99.3129679999999979
20
-144.2007710000000031
11
99.3605869999999953
21
-144.296008999999998
0
LINE
8
BLACK
6
CONTINUOUS
10
99.3605869999999953
20
-144.296008999999998
11
99.3605869999999953
21
-144.8198189999999954
0
LINE
8
BLACK
6
CONTINUOUS
10
99.3605869999999953
20
-144.296008999999998
11
99.4082059999999927
21
-144.2007710000000031
0
LINE
8
BLACK
6
CONTINUOUS
10
99.4082059999999927
20
-144.2007710000000031
11
99.5034440000000018
21
-144.1531520000000057
0
LINE
8
BLACK
6
CONTINUOUS
10
99.5034440000000018
20
-144.1531520000000057
11
99.646300999999994
21
-144.1531520000000057
0
LINE
8
BLACK
6
CONTINUOUS
10
99.646300999999994
20
-144.1531520000000057
11
99.7415400000000005
21
-144.2007710000000031
0
LINE
8
BLACK
6
CONTINUOUS
10
99.7415400000000005
20
-144.2007710000000031
11
99.7891589999999979
21
-144.296008999999998
0
LINE
8
BLACK
6
CONTINUOUS
10
99.7891589999999979
20
-144.296008999999998
11
99.7891589999999979
21
-144.8198189999999954
0
LINE
8
BLACK
6
CONTINUOUS
10
147.2891599999999812
20
-121.2150570000000016
11
147.336779000000007
21
-121.16743799999999
0
LINE
8
BLACK
6
CONTINUOUS
10
147.336779000000007
20
-121.16743799999999
11
147.4320170000000019
21
-121.1198189999999926
0
LINE
8
BLACK
6
CONTINUOUS
10
147.4320170000000019
20
-121.1198189999999926
11
147.6701119999999889
21
-121.1198189999999926
0
LINE
8
BLACK
6
CONTINUOUS
10
147.6701119999999889
20
-121.1198189999999926
11
147.7653499999999838
21
-121.16743799999999
0
LINE
8
BLACK
6
CONTINUOUS
10
147.7653499999999838
20
-121.16743799999999
11
147.8129689999999812
21
-121.2150570000000016
0
LINE
8
BLACK
6
CONTINUOUS
10
147.8129689999999812
20
-121.2150570000000016
11
147.860588000000007
21
-121.3102949999999964
0
LINE
8
BLACK
6
CONTINUOUS
10
147.860588000000007
20
-121.3102949999999964
11
147.860588000000007
21
-121.4055329999999913
0
LINE
8
BLACK
6
CONTINUOUS
10
147.860588000000007
20
-121.4055329999999913
11
147.8129689999999812
21
-121.5483899999999977
0
LINE
8
BLACK
6
CONTINUOUS
10
147.8129689999999812
20
-121.5483899999999977
11
147.2415409999999838
21
-122.1198189999999926
0
LINE
8
BLACK
6
CONTINUOUS
10
147.2415409999999838
20
-122.1198189999999926
11
147.860588000000007
21
-122.1198189999999926
0
LINE
8
BLACK
6
CONTINUOUS
10
148.2891599999999812
20
-122.1198189999999926
11
148.2891599999999812
21
-121.4531519999999887
0
LINE
8
BLACK
6
CONTINUOUS
10
148.2891599999999812
20
-121.5483899999999977
11
148.336779000000007
21
-121.5007710000000003
0
LINE
8
BLACK
6
CONTINUOUS
10
148.336779000000007
20
-121.5007710000000003
11
148.4320170000000019
21
-121.4531519999999887
0
LINE
8
BLACK
6
CONTINUOUS
10
148.4320170000000019
20
-121.4531519999999887
11
148.5748739999999941
21
-121.4531519999999887
0
LINE
8
BLACK
6
CONTINUOUS
10
148.5748739999999941
20
-121.4531519999999887
11
148.6701119999999889
21
-121.5007710000000003
0
LINE
8
BLACK
6
CONTINUOUS
10
148.6701119999999889
20
-121.5007710000000003
11
148.7177309999999864
21
-121.5960089999999951
0
LINE
8
BLACK
6
CONTINUOUS
10
148.7177309999999864
20
-121.5960089999999951
11
148.7177309999999864
21
-122.1198189999999926
0
LINE
8
BLACK
6
CONTINUOUS
10
148.7177309999999864
20
-121.5960089999999951
11
148.7653499999999838
21
-121.5007710000000003
0
LINE
8
BLACK
6
CONTINUOUS
10
148.7653499999999838
20
-121.5007710000000003
11
148.860588000000007
21
-121.4531519999999887
0
LINE
8
BLACK
6
CONTINUOUS
10
148.860588000000007
20
-121.4531519999999887
11
149.0034449999999993
21
-121.4531519999999887
0
LINE
8
BLACK
6
CONTINUOUS
10
149.0034449999999993
20
-121.4531519999999887
11
149.0986839999999916
21
-121.5007710000000003
0
LINE
8
BLACK
6
CONTINUOUS
10
149.0986839999999916
20
-121.5007710000000003
11
149.146302999999989
21
-121.5960089999999951
0
LINE
8
BLACK
6
CONTINUOUS
10
149.146302999999989
20
-121.5960089999999951
11
149.146302999999989
21
-122.1198189999999926
0
LINE
8
BLACK
6
CONTINUOUS
10
149.6224929999999915
20
-122.1198189999999926
11
149.6224929999999915
21
-121.4531519999999887
0
LINE
8
BLACK
6
CONTINUOUS
10
149.6224929999999915
20
-121.5483899999999977
11
149.6701119999999889
21
-121.5007710000000003
0
LINE
8
BLACK
6
CONTINUOUS
10
149.6701119999999889
20
-121.5007710000000003
11
149.7653499999999838
21
-121.4531519999999887
0
LINE
8
BLACK
6
CONTINUOUS
10
149.7653499999999838
20
-121.4531519999999887
11
149.9082070000000044
21
-121.4531519999999887
0
LINE
8
BLACK
6
CONTINUOUS
10
149.9082070000000044
20
-121.4531519999999887
11
150.0034449999999993
21
-121.5007710000000003
0
LINE
8
BLACK
6
CONTINUOUS
10
150.0034449999999993
20
-121.5007710000000003
11
150.0510639999999967
21
-121.5960089999999951
0
LINE
8
BLACK
6
CONTINUOUS
10
150.0510639999999967
20
-121.5960089999999951
11
150.0510639999999967
21
-122.1198189999999926
0
LINE
8
BLACK
6
CONTINUOUS
10
150.0510639999999967
20
-121.5960089999999951
11
150.0986829999999941
21
-121.5007710000000003
0
LINE
8
BLACK
6
CONTINUOUS
10
150.0986829999999941
20
-121.5007710000000003
11
150.1939209999999889
21
-121.4531519999999887
0
LINE
8
BLACK
6
CONTINUOUS
10
150.1939209999999889
20
-121.4531519999999887
11
150.3367779999999811
21
-121.4531519999999887
0
LINE
8
BLACK
6
CONTINUOUS
10
150.3367779999999811
20
-121.4531519999999887
11
150.4320170000000019
21
-121.5007710000000003
0
LINE
8
BLACK
6
CONTINUOUS
10
150.4320170000000019
20
-121.5007710000000003
11
150.4796359999999993
21
-121.5960089999999951
0
LINE
8
BLACK
6
CONTINUOUS
10
150.4796359999999993
20
-121.5960089999999951
11
150.4796359999999993
21
-122.1198189999999926
0
LINE
8
BLACK
6
CONTINUOUS
10
152.1463019999999915
20
-122.1198189999999926
11
152.1463019999999915
21
-121.1198189999999926
0
LINE
8
BLACK
6
CONTINUOUS
10
152.1463019999999915
20
-122.0721999999999952
11
152.0510639999999967
21
-122.1198189999999926
0
LINE
8
BLACK
6
CONTINUOUS
10
152.0510639999999967
20
-122.1198189999999926
11
151.860588000000007
21
-122.1198189999999926
0
LINE
8
BLACK
6
CONTINUOUS
10
151.860588000000007
20
-122.1198189999999926
11
151.7653499999999838
21
-122.0721999999999952
0
LINE
8
BLACK
6
CONTINUOUS
10
151.7653499999999838
20
-122.0721999999999952
11
151.7177309999999864
21
-122.0245800000000003
0
LINE
8
BLACK
6
CONTINUOUS
10
151.7177309999999864
20
-122.0245800000000003
11
151.6701119999999889
21
-121.9293419999999912
0
LINE
8
BLACK
6
CONTINUOUS
10
151.6701119999999889
20
-121.9293419999999912
11
151.6701119999999889
21
-121.6436279999999925
0
LINE
8
BLACK
6
CONTINUOUS
10
151.6701119999999889
20
-121.6436279999999925
11
151.7177309999999864
21
-121.5483899999999977
0
LINE
8
BLACK
6
CONTINUOUS
10
151.7177309999999864
20
-121.5483899999999977
11
151.7653499999999838
21
-121.5007710000000003
0
LINE
8
BLACK
6
CONTINUOUS
10
151.7653499999999838
20
-121.5007710000000003
11
151.860588000000007
21
-121.4531519999999887
0
LINE
8
BLACK
6
CONTINUOUS
10
151.860588000000007
20
-121.4531519999999887
11
152.0510639999999967
21
-121.4531519999999887
0
LINE
8
BLACK
6
CONTINUOUS
10
152.0510639999999967
20
-121.4531519999999887
11
152.1463019999999915
21
-121.5007710000000003
0
LINE
8
BLACK
6
CONTINUOUS
10
152.6224929999999915
20
-122.1198189999999926
11
152.6224929999999915
21
-121.4531519999999887
0
LINE
8
BLACK
6
CONTINUOUS
10
152.6224929999999915
20
-121.1198189999999926
11
152.5748739999999941
21
-121.16743799999999
0
LINE
8
BLACK
6
CONTINUOUS
10
152.5748739999999941
20
-121.16743799999999
11
152.6224929999999915
21
-121.2150570000000016
0
LINE
8
BLACK
6
CONTINUOUS
10
152.6224929999999915
20
-121.2150570000000016
11
152.6701119999999889
21
-121.16743799999999
0
LINE
8
BLACK
6
CONTINUOUS
10
152.6701119999999889
20
-121.16743799999999
11
152.6224929999999915
21
-121.1198189999999926
0
LINE
8
BLACK
6
CONTINUOUS
10
152.6224929999999915
20
-121.1198189999999926
11
152.6224929999999915
21
-121.2150570000000016
0
LINE
8
BLACK
6
CONTINUOUS
10
153.5272539999999992
20
-122.1198189999999926
11
153.5272539999999992
21
-121.5960089999999951
0
LINE
8
BLACK
6
CONTINUOUS
10
153.5272539999999992
20
-121.5960089999999951
11
153.4796350000000018
21
-121.5007710000000003
0
LINE
8
BLACK
6
CONTINUOUS
10
153.4796350000000018
20
-121.5007710000000003
11
153.384397000000007
21
-121.4531519999999887
0
LINE
8
BLACK
6
CONTINUOUS
10
153.384397000000007
20
-121.4531519999999887
11
153.1939209999999889
21
-121.4531519999999887
0
LINE
8
BLACK
6
CONTINUOUS
10
153.1939209999999889
20
-121.4531519999999887
11
153.0986829999999941
21
-121.5007710000000003
0
LINE
8
BLACK
6
CONTINUOUS
10
153.5272539999999992
20
-122.0721999999999952
11
153.4320160000000044
21
-122.1198189999999926
0
LINE
8
BLACK
6
CONTINUOUS
10
153.4320160000000044
20
-122.1198189999999926
11
153.1939209999999889
21
-122.1198189999999926
0
LINE
8
BLACK
6
CONTINUOUS
10
153.1939209999999889
20
-122.1198189999999926
11
153.0986829999999941
21
-122.0721999999999952
0
LINE
8
BLACK
6
CONTINUOUS
10
153.0986829999999941
20
-122.0721999999999952
11
153.0510639999999967
21
-121.9769609999999886
0
LINE
8
BLACK
6
CONTINUOUS
10
153.0510639999999967
20
-121.9769609999999886
11
153.0510639999999967
21
-121.8817229999999938
0
LINE
8
BLACK
6
CONTINUOUS
10
153.0510639999999967
20
-121.8817229999999938
11
153.0986829999999941
21
-121.786484999999999
0
LINE
8
BLACK
6
CONTINUOUS
10
153.0986829999999941
20
-121.786484999999999
11
153.1939209999999889
21
-121.7388660000000016
0
LINE
8
BLACK
6
CONTINUOUS
10
153.1939209999999889
20
-121.7388660000000016
11
153.4320160000000044
21
-121.7388660000000016
0
LINE
8
BLACK
6
CONTINUOUS
10
153.4320160000000044
20
-121.7388660000000016
11
153.5272539999999992
21
-121.69124699999999
0
LINE
8
BLACK
6
CONTINUOUS
10
154.0034449999999993
20
-122.1198189999999926
11
154.0034449999999993
21
-121.4531519999999887
0
LINE
8
BLACK
6
CONTINUOUS
10
154.0034449999999993
20
-121.5483899999999977
11
154.0510639999999967
21
-121.5007710000000003
0
LINE
8
BLACK
6
CONTINUOUS
10
154.0510639999999967
20
-121.5007710000000003
11
154.1463019999999915
21
-121.4531519999999887
0
LINE
8
BLACK
6
CONTINUOUS
10
154.1463019999999915
20
-121.4531519999999887
11
154.2891589999999837
21
-121.4531519999999887
0
LINE
8
BLACK
6
CONTINUOUS
10
154.2891589999999837
20
-121.4531519999999887
11
154.384397000000007
21
-121.5007710000000003
0
LINE
8
BLACK
6
CONTINUOUS
10
154.384397000000007
20
-121.5007710000000003
11
154.4320160000000044
21
-121.5960089999999951
0
LINE
8
BLACK
6
CONTINUOUS
10
154.4320160000000044
20
-121.5960089999999951
11
154.4320160000000044
21
-122.1198189999999926
0
LINE
8
BLACK
6
CONTINUOUS
10
154.4320160000000044
20
-121.5960089999999951
11
154.4796350000000018
21
-121.5007710000000003
0
LINE
8
BLACK
6
CONTINUOUS
10
154.4796350000000018
20
-121.5007710000000003
11
154.5748729999999966
21
-121.4531519999999887
0
LINE
8
BLACK
6
CONTINUOUS
10
154.5748729999999966
20
-121.4531519999999887
11
154.7177299999999889
21
-121.4531519999999887
0
LINE
8
BLACK
6
CONTINUOUS
10
154.7177299999999889
20
-121.4531519999999887
11
154.8129689999999812
21
-121.5007710000000003
0
LINE
8
BLACK
6
CONTINUOUS
10
154.8129689999999812
20
-121.5007710000000003
11
154.860588000000007
21
-121.5960089999999951
0
LINE
8
BLACK
6
CONTINUOUS
10
154.860588000000007
20
-121.5960089999999951
11
154.860588000000007
21
-122.1198189999999926
0
LINE
8
BLACK
6
CONTINUOUS
10
173.2891599999999812
20
-139.0150569999999846
11
173.3367789999999786
21
-138.9674379999999871
0
LINE
8
BLACK
6
CONTINUOUS
10
173.3367789999999786
20
-138.9674379999999871
11
173.4320170000000019
21
-138.9198189999999897
0
LINE
8
BLACK
6
CONTINUOUS
10
173.4320170000000019
20
-138.9198189999999897
11
173.6701119999999889
21
-138.9198189999999897
0
LINE
8
BLACK
6
CONTINUOUS
10
173.6701119999999889
20
-138.9198189999999897
11
173.7653499999999838
21
-138.9674379999999871
0
LINE
8
BLACK
6
CONTINUOUS
10
173.7653499999999838
20
-138.9674379999999871
11
173.8129689999999812
21
-139.0150569999999846
0
LINE
8
BLACK
6
CONTINUOUS
10
173.8129689999999812
20
-139.0150569999999846
11
173.8605879999999786
21
-139.1102950000000078
0
LINE
8
BLACK
6
CONTINUOUS
10
173.8605879999999786
20
-139.1102950000000078
11
173.8605879999999786
21
-139.2055330000000026
0
LINE
8
BLACK
6
CONTINUOUS
10
173.8605879999999786
20
-139.2055330000000026
11
173.8129689999999812
21
-139.3483899999999949
0
LINE
8
BLACK
6
CONTINUOUS
10
173.8129689999999812
20
-139.3483899999999949
11
173.2415409999999838
21
-139.9198189999999897
0
LINE
8
BLACK
6
CONTINUOUS
10
173.2415409999999838
20
-139.9198189999999897
11
173.8605879999999786
21
-139.9198189999999897
0
LINE
8
BLACK
6
CONTINUOUS
10
174.2891599999999812
20
-139.9198189999999897
11
174.2891599999999812
21
-139.253152
0
LINE
8
BLACK
6
CONTINUOUS
10
174.2891599999999812
20
-139.3483899999999949
11
174.3367789999999786
21
-139.3007709999999975
0
LINE
8
BLACK
6
CONTINUOUS
10
174.3367789999999786
20
-139.3007709999999975
11
174.4320170000000019
21
-139.253152
0
LINE
8
BLACK
6
CONTINUOUS
10
174.4320170000000019
20
-139.253152
11
174.5748739999999941
21
-139.253152
0
LINE
8
BLACK
6
CONTINUOUS
10
174.5748739999999941
20
-139.253152
11
174.6701119999999889
21
-139.3007709999999975
0
LINE
8
BLACK
6
CONTINUOUS
10
174.6701119999999889
20
-139.3007709999999975
11
174.7177309999999864
21
-139.3960089999999923
0
LINE
8
BLACK
6
CONTINUOUS
10
174.7177309999999864
20
-139.3960089999999923
11
174.7177309999999864
21
-139.9198189999999897
0
LINE
8
BLACK
6
CONTINUOUS
10
174.7177309999999864
20
-139.3960089999999923
11
174.7653499999999838
21
-139.3007709999999975
0
LINE
8
BLACK
6
CONTINUOUS
10
174.7653499999999838
20
-139.3007709999999975
11
174.8605879999999786
21
-139.253152
0
LINE
8
BLACK
6
CONTINUOUS
10
174.8605879999999786
20
-139.253152
11
175.0034449999999993
21
-139.253152
0
LINE
8
BLACK
6
CONTINUOUS
10
175.0034449999999993
20
-139.253152
11
175.0986839999999916
21
-139.3007709999999975
0
LINE
8
BLACK
6
CONTINUOUS
10
175.0986839999999916
20
-139.3007709999999975
11
175.146302999999989
21
-139.3960089999999923
0
LINE
8
BLACK
6
CONTINUOUS
10
175.146302999999989
20
-139.3960089999999923
11
175.146302999999989
21
-139.9198189999999897
0
LINE
8
BLACK
6
CONTINUOUS
10
175.6224929999999915
20
-139.9198189999999897
11
175.6224929999999915
21
-139.253152
0
LINE
8
BLACK
6
CONTINUOUS
10
175.6224929999999915
20
-139.3483899999999949
11
175.6701119999999889
21
-139.3007709999999975
0
LINE
8
BLACK
6
CONTINUOUS
10
175.6701119999999889
20
-139.3007709999999975
11
175.7653499999999838
21
-139.253152
0
LINE
8
BLACK
6
CONTINUOUS
10
175.7653499999999838
20
-139.253152
11
175.9082070000000044
21
-139.253152
0
LINE
8
BLACK
6
CONTINUOUS
10
175.9082070000000044
20
-139.253152
11
176.0034449999999993
21
-139.3007709999999975
0
LINE
8
BLACK
6
CONTINUOUS
10
176.0034449999999993
20
-139.3007709999999975
11
176.0510639999999967
21
-139.3960089999999923
0
LINE
8
BLACK
6
CONTINUOUS
10
176.0510639999999967
20
-139.3960089999999923
11
176.0510639999999967
21
-139.9198189999999897
0
LINE
8
BLACK
6
CONTINUOUS
10
176.0510639999999967
20
-139.3960089999999923
11
176.0986829999999941
21
-139.3007709999999975
0
LINE
8
BLACK
6
CONTINUOUS
10
176.0986829999999941
20
-139.3007709999999975
11
176.1939209999999889
21
-139.253152
0
LINE
8
BLACK
6
CONTINUOUS
10
176.1939209999999889
20
-139.253152
11
176.3367779999999811
21
-139.253152
0
LINE
8
BLACK
6
CONTINUOUS
10
176.3367779999999811
20
-139.253152
11
176.4320170000000019
21
-139.3007709999999975
0
LINE
8
BLACK
6
CONTINUOUS
10
176.4320170000000019
20
-139.3007709999999975
11
176.4796359999999993
21
-139.3960089999999923
0
LINE
8
BLACK
6
CONTINUOUS
10
176.4796359999999993
20
-139.3960089999999923
11
176.4796359999999993
21
-139.9198189999999897
0
LINE
8
BLACK
6
CONTINUOUS
10
178.1463019999999915
20
-139.9198189999999897
11
178.1463019999999915
21
-138.9198189999999897
0
LINE
8
BLACK
6
CONTINUOUS
10
178.1463019999999915
20
-139.8721999999999923
11
178.0510639999999967
21
-139.9198189999999897
0
LINE
8
BLACK
6
CONTINUOUS
10
178.0510639999999967
20
-139.9198189999999897
11
177.8605879999999786
21
-139.9198189999999897
0
LINE
8
BLACK
6
CONTINUOUS
10
177.8605879999999786
20
-139.9198189999999897
11
177.7653499999999838
21
-139.8721999999999923
0
LINE
8
BLACK
6
CONTINUOUS
10
177.7653499999999838
20
-139.8721999999999923
11
177.7177309999999864
21
-139.8245799999999974
0
LINE
8
BLACK
6
CONTINUOUS
10
177.7177309999999864
20
-139.8245799999999974
11
177.6701119999999889
21
-139.7293420000000026
0
LINE
8
BLACK
6
CONTINUOUS
10
177.6701119999999889
20
-139.7293420000000026
11
177.6701119999999889
21
-139.4436279999999897
0
LINE
8
BLACK
6
CONTINUOUS
10
177.6701119999999889
20
-139.4436279999999897
11
177.7177309999999864
21
-139.3483899999999949
0
LINE
8
BLACK
6
CONTINUOUS
10
177.7177309999999864
20
-139.3483899999999949
11
177.7653499999999838
21
-139.3007709999999975
0
LINE
8
BLACK
6
CONTINUOUS
10
177.7653499999999838
20
-139.3007709999999975
11
177.8605879999999786
21
-139.253152
0
LINE
8
BLACK
6
CONTINUOUS
10
177.8605879999999786
20
-139.253152
11
178.0510639999999967
21
-139.253152
0
LINE
8
BLACK
6
CONTINUOUS
10
178.0510639999999967
20
-139.253152
11
178.1463019999999915
21
-139.3007709999999975
0
LINE
8
BLACK
6
CONTINUOUS
10
178.6224929999999915
20
-139.9198189999999897
11
178.6224929999999915
21
-139.253152
0
LINE
8
BLACK
6
CONTINUOUS
10
178.6224929999999915
20
-138.9198189999999897
11
178.5748739999999941
21
-138.9674379999999871
0
LINE
8
BLACK
6
CONTINUOUS
10
178.5748739999999941
20
-138.9674379999999871
11
178.6224929999999915
21
-139.0150569999999846
0
LINE
8
BLACK
6
CONTINUOUS
10
178.6224929999999915
20
-139.0150569999999846
11
178.6701119999999889
21
-138.9674379999999871
0
LINE
8
BLACK
6
CONTINUOUS
10
178.6701119999999889
20
-138.9674379999999871
11
178.6224929999999915
21
-138.9198189999999897
0
LINE
8
BLACK
6
CONTINUOUS
10
178.6224929999999915
20
-138.9198189999999897
11
178.6224929999999915
21
-139.0150569999999846
0
LINE
8
BLACK
6
CONTINUOUS
10
179.5272539999999992
20
-139.9198189999999897
11
179.5272539999999992
21
-139.3960089999999923
0
LINE
8
BLACK
6
CONTINUOUS
10
179.5272539999999992
20
-139.3960089999999923
11
179.4796350000000018
21
-139.3007709999999975
0
LINE
8
BLACK
6
CONTINUOUS
10
179.4796350000000018
20
-139.3007709999999975
11
179.3843969999999786
21
-139.253152
0
LINE
8
BLACK
6
CONTINUOUS
10
179.3843969999999786
20
-139.253152
11
179.1939209999999889
21
-139.253152
0
LINE
8
BLACK
6
CONTINUOUS
10
179.1939209999999889
20
-139.253152
11
179.0986829999999941
21
-139.3007709999999975
0
LINE
8
BLACK
6
CONTINUOUS
10
179.5272539999999992
20
-139.8721999999999923
11
179.4320160000000044
21
-139.9198189999999897
0
LINE
8
BLACK
6
CONTINUOUS
10
179.4320160000000044
20
-139.9198189999999897
11
179.1939209999999889
21
-139.9198189999999897
0
LINE
8
BLACK
6
CONTINUOUS
10
179.1939209999999889
20
-139.9198189999999897
11
179.0986829999999941
21
-139.8721999999999923
0
LINE
8
BLACK
6
CONTINUOUS
10
179.0986829999999941
20
-139.8721999999999923
11
179.0510639999999967
21
-139.776961
0
LINE
8
BLACK
6
CONTINUOUS
10
179.0510639999999967
20
-139.776961
11
179.0510639999999967
21
-139.6817230000000052
0
LINE
8
BLACK
6
CONTINUOUS
10
179.0510639999999967
20
-139.6817230000000052
11
179.0986829999999941
21
-139.5864849999999819
0
LINE
8
BLACK
6
CONTINUOUS
10
179.0986829999999941
20
-139.5864849999999819
11
179.1939209999999889
21
-139.5388659999999845
0
LINE
8
BLACK
6
CONTINUOUS
10
179.1939209999999889
20
-139.5388659999999845
11
179.4320160000000044
21
-139.5388659999999845
0
LINE
8
BLACK
6
CONTINUOUS
10
179.4320160000000044
20
-139.5388659999999845
11
179.5272539999999992
21
-139.4912469999999871
0
LINE
8
BLACK
6
CONTINUOUS
10
180.0034449999999993
20
-139.9198189999999897
11
180.0034449999999993
21
-139.253152
0
LINE
8
BLACK
6
CONTINUOUS
10
180.0034449999999993
20
-139.3483899999999949
11
180.0510639999999967
21
-139.3007709999999975
0
LINE
8
BLACK
6
CONTINUOUS
10
180.0510639999999967
20
-139.3007709999999975
11
180.1463019999999915
21
-139.253152
0
LINE
8
BLACK
6
CONTINUOUS
10
180.1463019999999915
20
-139.253152
11
180.2891589999999837
21
-139.253152
0
LINE
8
BLACK
6
CONTINUOUS
10
180.2891589999999837
20
-139.253152
11
180.3843969999999786
21
-139.3007709999999975
0
LINE
8
BLACK
6
CONTINUOUS
10
180.3843969999999786
20
-139.3007709999999975
11
180.4320160000000044
21
-139.3960089999999923
0
LINE
8
BLACK
6
CONTINUOUS
10
180.4320160000000044
20
-139.3960089999999923
11
180.4320160000000044
21
-139.9198189999999897
0
LINE
8
BLACK
6
CONTINUOUS
10
180.4320160000000044
20
-139.3960089999999923
11
180.4796350000000018
21
-139.3007709999999975
0
LINE
8
BLACK
6
CONTINUOUS
10
180.4796350000000018
20
-139.3007709999999975
11
180.5748729999999966
21
-139.253152
0
LINE
8
BLACK
6
CONTINUOUS
10
180.5748729999999966
20
-139.253152
11
180.7177299999999889
21
-139.253152
0
LINE
8
BLACK
6
CONTINUOUS
10
180.7177299999999889
20
-139.253152
11
180.8129689999999812
21
-139.3007709999999975
0
LINE
8
BLACK
6
CONTINUOUS
10
180.8129689999999812
20
-139.3007709999999975
11
180.8605879999999786
21
-139.3960089999999923
0
LINE
8
BLACK
6
CONTINUOUS
10
180.8605879999999786
20
-139.3960089999999923
11
180.8605879999999786
21
-139.9198189999999897
0
LINE
8
BLACK
6
CONTINUOUS
10
134.1546359999999822
20
-122.773389999999992
11
134.0593979999999874
21
-122.7257709999999946
0
LINE
8
BLACK
6
CONTINUOUS
10
134.0593979999999874
20
-122.7257709999999946
11
134.01177899999999
21
-122.6781519999999972
0
LINE
8
BLACK
6
CONTINUOUS
10
134.01177899999999
20
-122.6781519999999972
11
133.9641599999999926
21
-122.5829139999999882
0
LINE
8
BLACK
6
CONTINUOUS
10
133.9641599999999926
20
-122.5829139999999882
11
133.9641599999999926
21
-122.5352949999999908
0
LINE
8
BLACK
6
CONTINUOUS
10
133.9641599999999926
20
-122.5352949999999908
11
134.01177899999999
21
-122.4400569999999959
0
LINE
8
BLACK
6
CONTINUOUS
10
134.01177899999999
20
-122.4400569999999959
11
134.0593979999999874
21
-122.3924379999999985
0
LINE
8
BLACK
6
CONTINUOUS
10
134.0593979999999874
20
-122.3924379999999985
11
134.1546359999999822
21
-122.3448190000000011
0
LINE
8
BLACK
6
CONTINUOUS
10
134.1546359999999822
20
-122.3448190000000011
11
134.3451120000000003
21
-122.3448190000000011
0
LINE
8
BLACK
6
CONTINUOUS
10
134.3451120000000003
20
-122.3448190000000011
11
134.4403499999999951
21
-122.3924379999999985
0
LINE
8
BLACK
6
CONTINUOUS
10
134.4403499999999951
20
-122.3924379999999985
11
134.4879689999999925
21
-122.4400569999999959
0
LINE
8
BLACK
6
CONTINUOUS
10
134.4879689999999925
20
-122.4400569999999959
11
134.53558799999999
21
-122.5352949999999908
0
LINE
8
BLACK
6
CONTINUOUS
10
134.53558799999999
20
-122.5352949999999908
11
134.53558799999999
21
-122.5829139999999882
0
LINE
8
BLACK
6
CONTINUOUS
10
134.53558799999999
20
-122.5829139999999882
11
134.4879689999999925
21
-122.6781519999999972
0
LINE
8
BLACK
6
CONTINUOUS
10
134.4879689999999925
20
-122.6781519999999972
11
134.4403499999999951
21
-122.7257709999999946
0
LINE
8
BLACK
6
CONTINUOUS
10
134.4403499999999951
20
-122.7257709999999946
11
134.3451120000000003
21
-122.773389999999992
0
LINE
8
BLACK
6
CONTINUOUS
10
134.3451120000000003
20
-122.773389999999992
11
134.1546359999999822
21
-122.773389999999992
0
LINE
8
BLACK
6
CONTINUOUS
10
134.1546359999999822
20
-122.773389999999992
11
134.0593979999999874
21
-122.8210089999999894
0
LINE
8
BLACK
6
CONTINUOUS
10
134.0593979999999874
20
-122.8210089999999894
11
134.01177899999999
21
-122.8686280000000011
0
LINE
8
BLACK
6
CONTINUOUS
10
134.01177899999999
20
-122.8686280000000011
11
133.9641599999999926
21
-122.9638659999999959
0
LINE
8
BLACK
6
CONTINUOUS
10
133.9641599999999926
20
-122.9638659999999959
11
133.9641599999999926
21
-123.1543419999999998
0
LINE
8
BLACK
6
CONTINUOUS
10
133.9641599999999926
20
-123.1543419999999998
11
134.01177899999999
21
-123.2495799999999946
0
LINE
8
BLACK
6
CONTINUOUS
10
134.01177899999999
20
-123.2495799999999946
11
134.0593979999999874
21
-123.2971999999999895
0
LINE
8
BLACK
6
CONTINUOUS
10
134.0593979999999874
20
-123.2971999999999895
11
134.1546359999999822
21
-123.3448190000000011
0
LINE
8
BLACK
6
CONTINUOUS
10
134.1546359999999822
20
-123.3448190000000011
11
134.3451120000000003
21
-123.3448190000000011
0
LINE
8
BLACK
6
CONTINUOUS
10
134.3451120000000003
20
-123.3448190000000011
11
134.4403499999999951
21
-123.2971999999999895
0
LINE
8
BLACK
6
CONTINUOUS
10
134.4403499999999951
20
-123.2971999999999895
11
134.4879689999999925
21
-123.2495799999999946
0
LINE
8
BLACK
6
CONTINUOUS
10
134.4879689999999925
20
-123.2495799999999946
11
134.53558799999999
21
-123.1543419999999998
0
LINE
8
BLACK
6
CONTINUOUS
10
134.53558799999999
20
-123.1543419999999998
11
134.53558799999999
21
-122.9638659999999959
0
LINE
8
BLACK
6
CONTINUOUS
10
134.53558799999999
20
-122.9638659999999959
11
134.4879689999999925
21
-122.8686280000000011
0
LINE
8
BLACK
6
CONTINUOUS
10
134.4879689999999925
20
-122.8686280000000011
11
134.4403499999999951
21
-122.8210089999999894
0
LINE
8
BLACK
6
CONTINUOUS
10
134.4403499999999951
20
-122.8210089999999894
11
134.3451120000000003
21
-122.773389999999992
0
LINE
8
BLACK
6
CONTINUOUS
10
134.9641599999999926
20
-123.3448190000000011
11
134.9641599999999926
21
-122.6781519999999972
0
LINE
8
BLACK
6
CONTINUOUS
10
134.9641599999999926
20
-122.773389999999992
11
135.01177899999999
21
-122.7257709999999946
0
LINE
8
BLACK
6
CONTINUOUS
10
135.01177899999999
20
-122.7257709999999946
11
135.1070169999999848
21
-122.6781519999999972
0
LINE
8
BLACK
6
CONTINUOUS
10
135.1070169999999848
20
-122.6781519999999972
11
135.2498740000000055
21
-122.6781519999999972
0
LINE
8
BLACK
6
CONTINUOUS
10
135.2498740000000055
20
-122.6781519999999972
11
135.3451120000000003
21
-122.7257709999999946
0
LINE
8
BLACK
6
CONTINUOUS
10
135.3451120000000003
20
-122.7257709999999946
11
135.3927309999999977
21
-122.8210089999999894
0
LINE
8
BLACK
6
CONTINUOUS
10
135.3927309999999977
20
-122.8210089999999894
11
135.3927309999999977
21
-123.3448190000000011
0
LINE
8
BLACK
6
CONTINUOUS
10
135.3927309999999977
20
-122.8210089999999894
11
135.4403499999999951
21
-122.7257709999999946
0
LINE
8
BLACK
6
CONTINUOUS
10
135.4403499999999951
20
-122.7257709999999946
11
135.53558799999999
21
-122.6781519999999972
0
LINE
8
BLACK
6
CONTINUOUS
10
135.53558799999999
20
-122.6781519999999972
11
135.6784449999999822
21
-122.6781519999999972
0
LINE
8
BLACK
6
CONTINUOUS
10
135.6784449999999822
20
-122.6781519999999972
11
135.7736840000000029
21
-122.7257709999999946
0
LINE
8
BLACK
6
CONTINUOUS
10
135.7736840000000029
20
-122.7257709999999946
11
135.8213030000000003
21
-122.8210089999999894
0
LINE
8
BLACK
6
CONTINUOUS
10
135.8213030000000003
20
-122.8210089999999894
11
135.8213030000000003
21
-123.3448190000000011
0
LINE
8
BLACK
6
CONTINUOUS
10
136.2974930000000029
20
-123.3448190000000011
11
136.2974930000000029
21
-122.6781519999999972
0
LINE
8
BLACK
6
CONTINUOUS
10
136.2974930000000029
20
-122.773389999999992
11
136.3451120000000003
21
-122.7257709999999946
0
LINE
8
BLACK
6
CONTINUOUS
10
136.3451120000000003
20
-122.7257709999999946
11
136.4403499999999951
21
-122.6781519999999972
0
LINE
8
BLACK
6
CONTINUOUS
10
136.4403499999999951
20
-122.6781519999999972
11
136.5832069999999874
21
-122.6781519999999972
0
LINE
8
BLACK
6
CONTINUOUS
10
136.5832069999999874
20
-122.6781519999999972
11
136.6784449999999822
21
-122.7257709999999946
0
LINE
8
BLACK
6
CONTINUOUS
10
136.6784449999999822
20
-122.7257709999999946
11
136.7260639999999796
21
-122.8210089999999894
0
LINE
8
BLACK
6
CONTINUOUS
10
136.7260639999999796
20
-122.8210089999999894
11
136.7260639999999796
21
-123.3448190000000011
0
LINE
8
BLACK
6
CONTINUOUS
10
136.7260639999999796
20
-122.8210089999999894
11
136.7736830000000054
21
-122.7257709999999946
0
LINE
8
BLACK
6
CONTINUOUS
10
136.7736830000000054
20
-122.7257709999999946
11
136.8689210000000003
21
-122.6781519999999972
0
LINE
8
BLACK
6
CONTINUOUS
10
136.8689210000000003
20
-122.6781519999999972
11
137.0117779999999925
21
-122.6781519999999972
0
LINE
8
BLACK
6
CONTINUOUS
10
137.0117779999999925
20
-122.6781519999999972
11
137.1070169999999848
21
-122.7257709999999946
0
LINE
8
BLACK
6
CONTINUOUS
10
137.1070169999999848
20
-122.7257709999999946
11
137.1546359999999822
21
-122.8210089999999894
0
LINE
8
BLACK
6
CONTINUOUS
10
137.1546359999999822
20
-122.8210089999999894
11
137.1546359999999822
21
-123.3448190000000011
0
LINE
8
BLACK
6
CONTINUOUS
10
138.8213020000000029
20
-123.3448190000000011
11
138.8213020000000029
21
-122.3448190000000011
0
LINE
8
BLACK
6
CONTINUOUS
10
138.8213020000000029
20
-123.2971999999999895
11
138.7260639999999796
21
-123.3448190000000011
0
LINE
8
BLACK
6
CONTINUOUS
10
138.7260639999999796
20
-123.3448190000000011
11
138.53558799999999
21
-123.3448190000000011
0
LINE
8
BLACK
6
CONTINUOUS
10
138.53558799999999
20
-123.3448190000000011
11
138.4403499999999951
21
-123.2971999999999895
0
LINE
8
BLACK
6
CONTINUOUS
10
138.4403499999999951
20
-123.2971999999999895
11
138.3927309999999977
21
-123.2495799999999946
0
LINE
8
BLACK
6
CONTINUOUS
10
138.3927309999999977
20
-123.2495799999999946
11
138.3451120000000003
21
-123.1543419999999998
0
LINE
8
BLACK
6
CONTINUOUS
10
138.3451120000000003
20
-123.1543419999999998
11
138.3451120000000003
21
-122.8686280000000011
0
LINE
8
BLACK
6
CONTINUOUS
10
138.3451120000000003
20
-122.8686280000000011
11
138.3927309999999977
21
-122.773389999999992
0
LINE
8
BLACK
6
CONTINUOUS
10
138.3927309999999977
20
-122.773389999999992
11
138.4403499999999951
21
-122.7257709999999946
0
LINE
8
BLACK
6
CONTINUOUS
10
138.4403499999999951
20
-122.7257709999999946
11
138.53558799999999
21
-122.6781519999999972
0
LINE
8
BLACK
6
CONTINUOUS
10
138.53558799999999
20
-122.6781519999999972
11
138.7260639999999796
21
-122.6781519999999972
0
LINE
8
BLACK
6
CONTINUOUS
10
138.7260639999999796
20
-122.6781519999999972
11
138.8213020000000029
21
-122.7257709999999946
0
LINE
8
BLACK
6
CONTINUOUS
10
139.2974930000000029
20
-123.3448190000000011
11
139.2974930000000029
21
-122.6781519999999972
0
LINE
8
BLACK
6
CONTINUOUS
10
139.2974930000000029
20
-122.3448190000000011
11
139.2498740000000055
21
-122.3924379999999985
0
LINE
8
BLACK
6
CONTINUOUS
10
139.2498740000000055
20
-122.3924379999999985
11
139.2974930000000029
21
-122.4400569999999959
0
LINE
8
BLACK
6
CONTINUOUS
10
139.2974930000000029
20
-122.4400569999999959
11
139.3451120000000003
21
-122.3924379999999985
0
LINE
8
BLACK
6
CONTINUOUS
10
139.3451120000000003
20
-122.3924379999999985
11
139.2974930000000029
21
-122.3448190000000011
0
LINE
8
BLACK
6
CONTINUOUS
10
139.2974930000000029
20
-122.3448190000000011
11
139.2974930000000029
21
-122.4400569999999959
0
LINE
8
BLACK
6
CONTINUOUS
10
140.2022539999999822
20
-123.3448190000000011
11
140.2022539999999822
21
-122.8210089999999894
0
LINE
8
BLACK
6
CONTINUOUS
10
140.2022539999999822
20
-122.8210089999999894
11
140.1546349999999848
21
-122.7257709999999946
0
LINE
8
BLACK
6
CONTINUOUS
10
140.1546349999999848
20
-122.7257709999999946
11
140.0593969999999899
21
-122.6781519999999972
0
LINE
8
BLACK
6
CONTINUOUS
10
140.0593969999999899
20
-122.6781519999999972
11
139.8689210000000003
21
-122.6781519999999972
0
LINE
8
BLACK
6
CONTINUOUS
10
139.8689210000000003
20
-122.6781519999999972
11
139.7736830000000054
21
-122.7257709999999946
0
LINE
8
BLACK
6
CONTINUOUS
10
140.2022539999999822
20
-123.2971999999999895
11
140.1070159999999873
21
-123.3448190000000011
0
LINE
8
BLACK
6
CONTINUOUS
10
140.1070159999999873
20
-123.3448190000000011
11
139.8689210000000003
21
-123.3448190000000011
0
LINE
8
BLACK
6
CONTINUOUS
10
139.8689210000000003
20
-123.3448190000000011
11
139.7736830000000054
21
-123.2971999999999895
0
LINE
8
BLACK
6
CONTINUOUS
10
139.7736830000000054
20
-123.2971999999999895
11
139.7260639999999796
21
-123.2019609999999972
0
LINE
8
BLACK
6
CONTINUOUS
10
139.7260639999999796
20
-123.2019609999999972
11
139.7260639999999796
21
-123.1067229999999881
0
LINE
8
BLACK
6
CONTINUOUS
10
139.7260639999999796
20
-123.1067229999999881
11
139.7736830000000054
21
-123.0114849999999933
0
LINE
8
BLACK
6
CONTINUOUS
10
139.7736830000000054
20
-123.0114849999999933
11
139.8689210000000003
21
-122.9638659999999959
0
LINE
8
BLACK
6
CONTINUOUS
10
139.8689210000000003
20
-122.9638659999999959
11
140.1070159999999873
21
-122.9638659999999959
0
LINE
8
BLACK
6
CONTINUOUS
10
140.1070159999999873
20
-122.9638659999999959
11
140.2022539999999822
21
-122.9162469999999985
0
LINE
8
BLACK
6
CONTINUOUS
10
140.6784449999999822
20
-123.3448190000000011
11
140.6784449999999822
21
-122.6781519999999972
0
LINE
8
BLACK
6
CONTINUOUS
10
140.6784449999999822
20
-122.773389999999992
11
140.7260639999999796
21
-122.7257709999999946
0
LINE
8
BLACK
6
CONTINUOUS
10
140.7260639999999796
20
-122.7257709999999946
11
140.8213020000000029
21
-122.6781519999999972
0
LINE
8
BLACK
6
CONTINUOUS
10
140.8213020000000029
20
-122.6781519999999972
11
140.9641589999999951
21
-122.6781519999999972
0
LINE
8
BLACK
6
CONTINUOUS
10
140.9641589999999951
20
-122.6781519999999972
11
141.0593969999999899
21
-122.7257709999999946
0
LINE
8
BLACK
6
CONTINUOUS
10
141.0593969999999899
20
-122.7257709999999946
11
141.1070159999999873
21
-122.8210089999999894
0
LINE
8
BLACK
6
CONTINUOUS
10
141.1070159999999873
20
-122.8210089999999894
11
141.1070159999999873
21
-123.3448190000000011
0
LINE
8
BLACK
6
CONTINUOUS
10
141.1070159999999873
20
-122.8210089999999894
11
141.1546349999999848
21
-122.7257709999999946
0
LINE
8
BLACK
6
CONTINUOUS
10
141.1546349999999848
20
-122.7257709999999946
11
141.2498729999999796
21
-122.6781519999999972
0
LINE
8
BLACK
6
CONTINUOUS
10
141.2498729999999796
20
-122.6781519999999972
11
141.3927300000000002
21
-122.6781519999999972
0
LINE
8
BLACK
6
CONTINUOUS
10
141.3927300000000002
20
-122.6781519999999972
11
141.4879689999999925
21
-122.7257709999999946
0
LINE
8
BLACK
6
CONTINUOUS
10
141.4879689999999925
20
-122.7257709999999946
11
141.53558799999999
21
-122.8210089999999894
0
LINE
8
BLACK
6
CONTINUOUS
10
141.53558799999999
20
-122.8210089999999894
11
141.53558799999999
21
-123.3448190000000011
0
LINE
8
BLACK
6
CONTINUOUS
10
134.5605879999999956
20
-125.2698189999999983
11
133.9891599999999983
21
-125.2698189999999983
0
LINE
8
BLACK
6
CONTINUOUS
10
134.2748739999999827
20
-125.2698189999999983
11
134.2748739999999827
21
-124.2698189999999983
0
LINE
8
BLACK
6
CONTINUOUS
10
134.2748739999999827
20
-124.2698189999999983
11
134.1796359999999879
21
-124.4126759999999905
0
LINE
8
BLACK
6
CONTINUOUS
10
134.1796359999999879
20
-124.4126759999999905
11
134.0843979999999931
21
-124.5079139999999995
0
LINE
8
BLACK
6
CONTINUOUS
10
134.0843979999999931
20
-124.5079139999999995
11
133.9891599999999983
21
-124.5555329999999969
0
LINE
8
BLACK
6
CONTINUOUS
10
134.9891599999999983
20
-125.2698189999999983
11
134.9891599999999983
21
-124.6031519999999944
0
LINE
8
BLACK
6
CONTINUOUS
10
134.9891599999999983
20
-124.6983899999999892
11
135.0367789999999957
21
-124.6507709999999918
0
LINE
8
BLACK
6
CONTINUOUS
10
135.0367789999999957
20
-124.6507709999999918
11
135.1320169999999905
21
-124.6031519999999944
0
LINE
8
BLACK
6
CONTINUOUS
10
135.1320169999999905
20
-124.6031519999999944
11
135.2748739999999827
21
-124.6031519999999944
0
LINE
8
BLACK
6
CONTINUOUS
10
135.2748739999999827
20
-124.6031519999999944
11
135.370112000000006
21
-124.6507709999999918
0
LINE
8
BLACK
6
CONTINUOUS
10
135.370112000000006
20
-124.6507709999999918
11
135.4177310000000034
21
-124.7460090000000008
0
LINE
8
BLACK
6
CONTINUOUS
10
135.4177310000000034
20
-124.7460090000000008
11
135.4177310000000034
21
-125.2698189999999983
0
LINE
8
BLACK
6
CONTINUOUS
10
135.4177310000000034
20
-124.7460090000000008
11
135.4653500000000008
21
-124.6507709999999918
0
LINE
8
BLACK
6
CONTINUOUS
10
135.4653500000000008
20
-124.6507709999999918
11
135.5605879999999956
21
-124.6031519999999944
0
LINE
8
BLACK
6
CONTINUOUS
10
135.5605879999999956
20
-124.6031519999999944
11
135.7034449999999879
21
-124.6031519999999944
0
LINE
8
BLACK
6
CONTINUOUS
10
135.7034449999999879
20
-124.6031519999999944
11
135.7986839999999802
21
-124.6507709999999918
0
LINE
8
BLACK
6
CONTINUOUS
10
135.7986839999999802
20
-124.6507709999999918
11
135.846303000000006
21
-124.7460090000000008
0
LINE
8
BLACK
6
CONTINUOUS
10
135.846303000000006
20
-124.7460090000000008
11
135.846303000000006
21
-125.2698189999999983
0
LINE
8
BLACK
6
CONTINUOUS
10
136.3224929999999802
20
-125.2698189999999983
11
136.3224929999999802
21
-124.6031519999999944
0
LINE
8
BLACK
6
CONTINUOUS
10
136.3224929999999802
20
-124.6983899999999892
11
136.370112000000006
21
-124.6507709999999918
0
LINE
8
BLACK
6
CONTINUOUS
10
136.370112000000006
20
-124.6507709999999918
11
136.4653500000000008
21
-124.6031519999999944
0
LINE
8
BLACK
6
CONTINUOUS
10
136.4653500000000008
20
-124.6031519999999944
11
136.6082069999999931
21
-124.6031519999999944
0
LINE
8
BLACK
6
CONTINUOUS
10
136.6082069999999931
20
-124.6031519999999944
11
136.7034449999999879
21
-124.6507709999999918
0
LINE
8
BLACK
6
CONTINUOUS
10
136.7034449999999879
20
-124.6507709999999918
11
136.7510639999999853
21
-124.7460090000000008
0
LINE
8
BLACK
6
CONTINUOUS
10
136.7510639999999853
20
-124.7460090000000008
11
136.7510639999999853
21
-125.2698189999999983
0
LINE
8
BLACK
6
CONTINUOUS
10
136.7510639999999853
20
-124.7460090000000008
11
136.7986829999999827
21
-124.6507709999999918
0
LINE
8
BLACK
6
CONTINUOUS
10
136.7986829999999827
20
-124.6507709999999918
11
136.893921000000006
21
-124.6031519999999944
0
LINE
8
BLACK
6
CONTINUOUS
10
136.893921000000006
20
-124.6031519999999944
11
137.0367779999999982
21
-124.6031519999999944
0
LINE
8
BLACK
6
CONTINUOUS
10
137.0367779999999982
20
-124.6031519999999944
11
137.1320169999999905
21
-124.6507709999999918
0
LINE
8
BLACK
6
CONTINUOUS
10
137.1320169999999905
20
-124.6507709999999918
11
137.1796359999999879
21
-124.7460090000000008
0
LINE
8
BLACK
6
CONTINUOUS
10
137.1796359999999879
20
-124.7460090000000008
11
137.1796359999999879
21
-125.2698189999999983
0
LINE
8
BLACK
6
CONTINUOUS
10
138.8463019999999801
20
-125.2698189999999983
11
138.8463019999999801
21
-124.2698189999999983
0
LINE
8
BLACK
6
CONTINUOUS
10
138.8463019999999801
20
-125.2222000000000008
11
138.7510639999999853
21
-125.2698189999999983
0
LINE
8
BLACK
6
CONTINUOUS
10
138.7510639999999853
20
-125.2698189999999983
11
138.5605879999999956
21
-125.2698189999999983
0
LINE
8
BLACK
6
CONTINUOUS
10
138.5605879999999956
20
-125.2698189999999983
11
138.4653500000000008
21
-125.2222000000000008
0
LINE
8
BLACK
6
CONTINUOUS
10
138.4653500000000008
20
-125.2222000000000008
11
138.4177310000000034
21
-125.1745799999999917
0
LINE
8
BLACK
6
CONTINUOUS
10
138.4177310000000034
20
-125.1745799999999917
11
138.370112000000006
21
-125.0793419999999969
0
LINE
8
BLACK
6
CONTINUOUS
10
138.370112000000006
20
-125.0793419999999969
11
138.370112000000006
21
-124.7936279999999982
0
LINE
8
BLACK
6
CONTINUOUS
10
138.370112000000006
20
-124.7936279999999982
11
138.4177310000000034
21
-124.6983899999999892
0
LINE
8
BLACK
6
CONTINUOUS
10
138.4177310000000034
20
-124.6983899999999892
11
138.4653500000000008
21
-124.6507709999999918
0
LINE
8
BLACK
6
CONTINUOUS
10
138.4653500000000008
20
-124.6507709999999918
11
138.5605879999999956
21
-124.6031519999999944
0
LINE
8
BLACK
6
CONTINUOUS
10
138.5605879999999956
20
-124.6031519999999944
11
138.7510639999999853
21
-124.6031519999999944
0
LINE
8
BLACK
6
CONTINUOUS
10
138.7510639999999853
20
-124.6031519999999944
11
138.8463019999999801
21
-124.6507709999999918
0
LINE
8
BLACK
6
CONTINUOUS
10
139.3224929999999802
20
-125.2698189999999983
11
139.3224929999999802
21
-124.6031519999999944
0
LINE
8
BLACK
6
CONTINUOUS
10
139.3224929999999802
20
-124.2698189999999983
11
139.2748739999999827
21
-124.3174379999999957
0
LINE
8
BLACK
6
CONTINUOUS
10
139.2748739999999827
20
-124.3174379999999957
11
139.3224929999999802
21
-124.3650569999999931
0
LINE
8
BLACK
6
CONTINUOUS
10
139.3224929999999802
20
-124.3650569999999931
11
139.370112000000006
21
-124.3174379999999957
0
LINE
8
BLACK
6
CONTINUOUS
10
139.370112000000006
20
-124.3174379999999957
11
139.3224929999999802
21
-124.2698189999999983
0
LINE
8
BLACK
6
CONTINUOUS
10
139.3224929999999802
20
-124.2698189999999983
11
139.3224929999999802
21
-124.3650569999999931
0
LINE
8
BLACK
6
CONTINUOUS
10
140.2272539999999879
20
-125.2698189999999983
11
140.2272539999999879
21
-124.7460090000000008
0
LINE
8
BLACK
6
CONTINUOUS
10
140.2272539999999879
20
-124.7460090000000008
11
140.1796349999999904
21
-124.6507709999999918
0
LINE
8
BLACK
6
CONTINUOUS
10
140.1796349999999904
20
-124.6507709999999918
11
140.0843969999999956
21
-124.6031519999999944
0
LINE
8
BLACK
6
CONTINUOUS
10
140.0843969999999956
20
-124.6031519999999944
11
139.893921000000006
21
-124.6031519999999944
0
LINE
8
BLACK
6
CONTINUOUS
10
139.893921000000006
20
-124.6031519999999944
11
139.7986829999999827
21
-124.6507709999999918
0
LINE
8
BLACK
6
CONTINUOUS
10
140.2272539999999879
20
-125.2222000000000008
11
140.132015999999993
21
-125.2698189999999983
0
LINE
8
BLACK
6
CONTINUOUS
10
140.132015999999993
20
-125.2698189999999983
11
139.893921000000006
21
-125.2698189999999983
0
LINE
8
BLACK
6
CONTINUOUS
10
139.893921000000006
20
-125.2698189999999983
11
139.7986829999999827
21
-125.2222000000000008
0
LINE
8
BLACK
6
CONTINUOUS
10
139.7986829999999827
20
-125.2222000000000008
11
139.7510639999999853
21
-125.1269609999999943
0
LINE
8
BLACK
6
CONTINUOUS
10
139.7510639999999853
20
-125.1269609999999943
11
139.7510639999999853
21
-125.0317229999999995
0
LINE
8
BLACK
6
CONTINUOUS
10
139.7510639999999853
20
-125.0317229999999995
11
139.7986829999999827
21
-124.9364849999999905
0
LINE
8
BLACK
6
CONTINUOUS
10
139.7986829999999827
20
-124.9364849999999905
11
139.893921000000006
21
-124.8888659999999931
0
LINE
8
BLACK
6
CONTINUOUS
10
139.893921000000006
20
-124.8888659999999931
11
140.132015999999993
21
-124.8888659999999931
0
LINE
8
BLACK
6
CONTINUOUS
10
140.132015999999993
20
-124.8888659999999931
11
140.2272539999999879
21
-124.8412469999999956
0
LINE
8
BLACK
6
CONTINUOUS
10
140.7034449999999879
20
-125.2698189999999983
11
140.7034449999999879
21
-124.6031519999999944
0
LINE
8
BLACK
6
CONTINUOUS
10
140.7034449999999879
20
-124.6983899999999892
11
140.7510639999999853
21
-124.6507709999999918
0
LINE
8
BLACK
6
CONTINUOUS
10
140.7510639999999853
20
-124.6507709999999918
11
140.8463019999999801
21
-124.6031519999999944
0
LINE
8
BLACK
6
CONTINUOUS
10
140.8463019999999801
20
-124.6031519999999944
11
140.9891590000000008
21
-124.6031519999999944
0
LINE
8
BLACK
6
CONTINUOUS
10
140.9891590000000008
20
-124.6031519999999944
11
141.0843969999999956
21
-124.6507709999999918
0
LINE
8
BLACK
6
CONTINUOUS
10
141.0843969999999956
20
-124.6507709999999918
11
141.132015999999993
21
-124.7460090000000008
0
LINE
8
BLACK
6
CONTINUOUS
10
141.132015999999993
20
-124.7460090000000008
11
141.132015999999993
21
-125.2698189999999983
0
LINE
8
BLACK
6
CONTINUOUS
10
141.132015999999993
20
-124.7460090000000008
11
141.1796349999999904
21
-124.6507709999999918
0
LINE
8
BLACK
6
CONTINUOUS
10
141.1796349999999904
20
-124.6507709999999918
11
141.2748729999999853
21
-124.6031519999999944
0
LINE
8
BLACK
6
CONTINUOUS
10
141.2748729999999853
20
-124.6031519999999944
11
141.4177300000000059
21
-124.6031519999999944
0
LINE
8
BLACK
6
CONTINUOUS
10
141.4177300000000059
20
-124.6031519999999944
11
141.5129689999999982
21
-124.6507709999999918
0
LINE
8
BLACK
6
CONTINUOUS
10
141.5129689999999982
20
-124.6507709999999918
11
141.5605879999999956
21
-124.7460090000000008
0
LINE
8
BLACK
6
CONTINUOUS
10
141.5605879999999956
20
-124.7460090000000008
11
141.5605879999999956
21
-125.2698189999999983
0
LINE
8
BLACK
6
CONTINUOUS
10
125.3105879999999956
20
-129.4698190000000011
11
124.7391599999999983
21
-129.4698190000000011
0
LINE
8
BLACK
6
CONTINUOUS
10
125.024873999999997
20
-129.4698190000000011
11
125.024873999999997
21
-128.4698190000000011
0
LINE
8
BLACK
6
CONTINUOUS
10
125.024873999999997
20
-128.4698190000000011
11
124.9296359999999879
21
-128.6126759999999933
0
LINE
8
BLACK
6
CONTINUOUS
10
124.9296359999999879
20
-128.6126759999999933
11
124.8343979999999931
21
-128.7079139999999882
0
LINE
8
BLACK
6
CONTINUOUS
10
124.8343979999999931
20
-128.7079139999999882
11
124.7391599999999983
21
-128.7555329999999856
0
LINE
8
BLACK
6
CONTINUOUS
10
125.7391599999999983
20
-129.3745799999999804
11
125.7867789999999957
21
-129.4222000000000037
0
LINE
8
BLACK
6
CONTINUOUS
10
125.7867789999999957
20
-129.4222000000000037
11
125.7391599999999983
21
-129.4698190000000011
0
LINE
8
BLACK
6
CONTINUOUS
10
125.7391599999999983
20
-129.4698190000000011
11
125.6915410000000008
21
-129.4222000000000037
0
LINE
8
BLACK
6
CONTINUOUS
10
125.6915410000000008
20
-129.4222000000000037
11
125.7391599999999983
21
-129.3745799999999804
0
LINE
8
BLACK
6
CONTINUOUS
10
125.7391599999999983
20
-129.3745799999999804
11
125.7391599999999983
21
-129.4698190000000011
0
LINE
8
BLACK
6
CONTINUOUS
10
126.1677309999999892
20
-128.5650569999999959
11
126.2153500000000008
21
-128.5174379999999985
0
LINE
8
BLACK
6
CONTINUOUS
10
126.2153500000000008
20
-128.5174379999999985
11
126.3105879999999956
21
-128.4698190000000011
0
LINE
8
BLACK
6
CONTINUOUS
10
126.3105879999999956
20
-128.4698190000000011
11
126.5486829999999969
21
-128.4698190000000011
0
LINE
8
BLACK
6
CONTINUOUS
10
126.5486829999999969
20
-128.4698190000000011
11
126.6439209999999917
21
-128.5174379999999985
0
LINE
8
BLACK
6
CONTINUOUS
10
126.6439209999999917
20
-128.5174379999999985
11
126.6915399999999892
21
-128.5650569999999959
0
LINE
8
BLACK
6
CONTINUOUS
10
126.6915399999999892
20
-128.5650569999999959
11
126.7391590000000008
21
-128.6602949999999908
0
LINE
8
BLACK
6
CONTINUOUS
10
126.7391590000000008
20
-128.6602949999999908
11
126.7391590000000008
21
-128.7555329999999856
0
LINE
8
BLACK
6
CONTINUOUS
10
126.7391590000000008
20
-128.7555329999999856
11
126.6915399999999892
21
-128.8983900000000062
0
LINE
8
BLACK
6
CONTINUOUS
10
126.6915399999999892
20
-128.8983900000000062
11
126.1201119999999918
21
-129.4698190000000011
0
LINE
8
BLACK
6
CONTINUOUS
10
126.1201119999999918
20
-129.4698190000000011
11
126.7391590000000008
21
-129.4698190000000011
0
LINE
8
BLACK
6
CONTINUOUS
10
127.1677309999999892
20
-129.4698190000000011
11
127.1677309999999892
21
-128.803151999999983
0
LINE
8
BLACK
6
CONTINUOUS
10
127.1677309999999892
20
-128.8983900000000062
11
127.2153500000000008
21
-128.8507709999999804
0
LINE
8
BLACK
6
CONTINUOUS
10
127.2153500000000008
20
-128.8507709999999804
11
127.3105879999999956
21
-128.803151999999983
0
LINE
8
BLACK
6
CONTINUOUS
10
127.3105879999999956
20
-128.803151999999983
11
127.4534449999999879
21
-128.803151999999983
0
LINE
8
BLACK
6
CONTINUOUS
10
127.4534449999999879
20
-128.803151999999983
11
127.5486829999999969
21
-128.8507709999999804
0
LINE
8
BLACK
6
CONTINUOUS
10
127.5486829999999969
20
-128.8507709999999804
11
127.5963019999999943
21
-128.9460090000000037
0
LINE
8
BLACK
6
CONTINUOUS
10
127.5963019999999943
20
-128.9460090000000037
11
127.5963019999999943
21
-129.4698190000000011
0
LINE
8
BLACK
6
CONTINUOUS
10
127.5963019999999943
20
-128.9460090000000037
11
127.6439209999999917
21
-128.8507709999999804
0
LINE
8
BLACK
6
CONTINUOUS
10
127.6439209999999917
20
-128.8507709999999804
11
127.7391590000000008
21
-128.803151999999983
0
LINE
8
BLACK
6
CONTINUOUS
10
127.7391590000000008
20
-128.803151999999983
11
127.882015999999993
21
-128.803151999999983
0
LINE
8
BLACK
6
CONTINUOUS
10
127.882015999999993
20
-128.803151999999983
11
127.9772549999999995
21
-128.8507709999999804
0
LINE
8
BLACK
6
CONTINUOUS
10
127.9772549999999995
20
-128.8507709999999804
11
128.0248739999999827
21
-128.9460090000000037
0
LINE
8
BLACK
6
CONTINUOUS
10
128.0248739999999827
20
-128.9460090000000037
11
128.0248739999999827
21
-129.4698190000000011
0
LINE
8
BLACK
6
CONTINUOUS
10
128.5010639999999853
20
-129.4698190000000011
11
128.5010639999999853
21
-128.803151999999983
0
LINE
8
BLACK
6
CONTINUOUS
10
128.5010639999999853
20
-128.8983900000000062
11
128.5486829999999827
21
-128.8507709999999804
0
LINE
8
BLACK
6
CONTINUOUS
10
128.5486829999999827
20
-128.8507709999999804
11
128.643921000000006
21
-128.803151999999983
0
LINE
8
BLACK
6
CONTINUOUS
10
128.643921000000006
20
-128.803151999999983
11
128.7867779999999982
21
-128.803151999999983
0
LINE
8
BLACK
6
CONTINUOUS
10
128.7867779999999982
20
-128.803151999999983
11
128.882015999999993
21
-128.8507709999999804
0
LINE
8
BLACK
6
CONTINUOUS
10
128.882015999999993
20
-128.8507709999999804
11
128.9296349999999904
21
-128.9460090000000037
0
LINE
8
BLACK
6
CONTINUOUS
10
128.9296349999999904
20
-128.9460090000000037
11
128.9296349999999904
21
-129.4698190000000011
0
LINE
8
BLACK
6
CONTINUOUS
10
128.9296349999999904
20
-128.9460090000000037
11
128.9772539999999879
21
-128.8507709999999804
0
LINE
8
BLACK
6
CONTINUOUS
10
128.9772539999999879
20
-128.8507709999999804
11
129.0724919999999827
21
-128.803151999999983
0
LINE
8
BLACK
6
CONTINUOUS
10
129.0724919999999827
20
-128.803151999999983
11
129.2153490000000033
21
-128.803151999999983
0
LINE
8
BLACK
6
CONTINUOUS
10
129.2153490000000033
20
-128.803151999999983
11
129.3105879999999956
21
-128.8507709999999804
0
LINE
8
BLACK
6
CONTINUOUS
10
129.3105879999999956
20
-128.8507709999999804
11
129.3582069999999931
21
-128.9460090000000037
0
LINE
8
BLACK
6
CONTINUOUS
10
129.3582069999999931
20
-128.9460090000000037
11
129.3582069999999931
21
-129.4698190000000011
0
LINE
8
BLACK
6
CONTINUOUS
10
131.0248729999999853
20
-129.4698190000000011
11
131.0248729999999853
21
-128.4698190000000011
0
LINE
8
BLACK
6
CONTINUOUS
10
131.0248729999999853
20
-129.4222000000000037
11
130.9296349999999904
21
-129.4698190000000011
0
LINE
8
BLACK
6
CONTINUOUS
10
130.9296349999999904
20
-129.4698190000000011
11
130.7391590000000008
21
-129.4698190000000011
0
LINE
8
BLACK
6
CONTINUOUS
10
130.7391590000000008
20
-129.4698190000000011
11
130.643921000000006
21
-129.4222000000000037
0
LINE
8
BLACK
6
CONTINUOUS
10
130.643921000000006
20
-129.4222000000000037
11
130.5963019999999801
21
-129.3745799999999804
0
LINE
8
BLACK
6
CONTINUOUS
10
130.5963019999999801
20
-129.3745799999999804
11
130.5486829999999827
21
-129.2793419999999855
0
LINE
8
BLACK
6
CONTINUOUS
10
130.5486829999999827
20
-129.2793419999999855
11
130.5486829999999827
21
-128.9936280000000011
0
LINE
8
BLACK
6
CONTINUOUS
10
130.5486829999999827
20
-128.9936280000000011
11
130.5963019999999801
21
-128.8983900000000062
0
LINE
8
BLACK
6
CONTINUOUS
10
130.5963019999999801
20
-128.8983900000000062
11
130.643921000000006
21
-128.8507709999999804
0
LINE
8
BLACK
6
CONTINUOUS
10
130.643921000000006
20
-128.8507709999999804
11
130.7391590000000008
21
-128.803151999999983
0
LINE
8
BLACK
6
CONTINUOUS
10
130.7391590000000008
20
-128.803151999999983
11
130.9296349999999904
21
-128.803151999999983
0
LINE
8
BLACK
6
CONTINUOUS
10
130.9296349999999904
20
-128.803151999999983
11
131.0248729999999853
21
-128.8507709999999804
0
LINE
8
BLACK
6
CONTINUOUS
10
131.5010639999999853
20
-129.4698190000000011
11
131.5010639999999853
21
-128.803151999999983
0
LINE
8
BLACK
6
CONTINUOUS
10
131.5010639999999853
20
-128.4698190000000011
11
131.4534449999999879
21
-128.5174379999999985
0
LINE
8
BLACK
6
CONTINUOUS
10
131.4534449999999879
20
-128.5174379999999985
11
131.5010639999999853
21
-128.5650569999999959
0
LINE
8
BLACK
6
CONTINUOUS
10
131.5010639999999853
20
-128.5650569999999959
11
131.5486829999999827
21
-128.5174379999999985
0
LINE
8
BLACK
6
CONTINUOUS
10
131.5486829999999827
20
-128.5174379999999985
11
131.5010639999999853
21
-128.4698190000000011
0
LINE
8
BLACK
6
CONTINUOUS
10
131.5010639999999853
20
-128.4698190000000011
11
131.5010639999999853
21
-128.5650569999999959
0
LINE
8
BLACK
6
CONTINUOUS
10
132.405824999999993
20
-129.4698190000000011
11
132.405824999999993
21
-128.9460090000000037
0
LINE
8
BLACK
6
CONTINUOUS
10
132.405824999999993
20
-128.9460090000000037
11
132.3582059999999956
21
-128.8507709999999804
0
LINE
8
BLACK
6
CONTINUOUS
10
132.3582059999999956
20
-128.8507709999999804
11
132.2629680000000008
21
-128.803151999999983
0
LINE
8
BLACK
6
CONTINUOUS
10
132.2629680000000008
20
-128.803151999999983
11
132.0724919999999827
21
-128.803151999999983
0
LINE
8
BLACK
6
CONTINUOUS
10
132.0724919999999827
20
-128.803151999999983
11
131.9772539999999879
21
-128.8507709999999804
0
LINE
8
BLACK
6
CONTINUOUS
10
132.405824999999993
20
-129.4222000000000037
11
132.3105869999999982
21
-129.4698190000000011
0
LINE
8
BLACK
6
CONTINUOUS
10
132.3105869999999982
20
-129.4698190000000011
11
132.0724919999999827
21
-129.4698190000000011
0
LINE
8
BLACK
6
CONTINUOUS
10
132.0724919999999827
20
-129.4698190000000011
11
131.9772539999999879
21
-129.4222000000000037
0
LINE
8
BLACK
6
CONTINUOUS
10
131.9772539999999879
20
-129.4222000000000037
11
131.9296349999999904
21
-129.326960999999983
0
LINE
8
BLACK
6
CONTINUOUS
10
131.9296349999999904
20
-129.326960999999983
11
131.9296349999999904
21
-129.2317229999999881
0
LINE
8
BLACK
6
CONTINUOUS
10
131.9296349999999904
20
-129.2317229999999881
11
131.9772539999999879
21
-129.1364849999999933
0
LINE
8
BLACK
6
CONTINUOUS
10
131.9772539999999879
20
-129.1364849999999933
11
132.0724919999999827
21
-129.0888659999999959
0
LINE
8
BLACK
6
CONTINUOUS
10
132.0724919999999827
20
-129.0888659999999959
11
132.3105869999999982
21
-129.0888659999999959
0
LINE
8
BLACK
6
CONTINUOUS
10
132.3105869999999982
20
-129.0888659999999959
11
132.405824999999993
21
-129.0412469999999985
0
LINE
8
BLACK
6
CONTINUOUS
10
132.882015999999993
20
-129.4698190000000011
11
132.882015999999993
21
-128.803151999999983
0
LINE
8
BLACK
6
CONTINUOUS
10
132.882015999999993
20
-128.8983900000000062
11
132.9296349999999904
21
-128.8507709999999804
0
LINE
8
BLACK
6
CONTINUOUS
10
132.9296349999999904
20
-128.8507709999999804
11
133.0248729999999853
21
-128.803151999999983
0
LINE
8
BLACK
6
CONTINUOUS
10
133.0248729999999853
20
-128.803151999999983
11
133.1677300000000059
21
-128.803151999999983
0
LINE
8
BLACK
6
CONTINUOUS
10
133.1677300000000059
20
-128.803151999999983
11
133.2629680000000008
21
-128.8507709999999804
0
LINE
8
BLACK
6
CONTINUOUS
10
133.2629680000000008
20
-128.8507709999999804
11
133.3105869999999982
21
-128.9460090000000037
0
LINE
8
BLACK
6
CONTINUOUS
10
133.3105869999999982
20
-128.9460090000000037
11
133.3105869999999982
21
-129.4698190000000011
0
LINE
8
BLACK
6
CONTINUOUS
10
133.3105869999999982
20
-128.9460090000000037
11
133.3582059999999956
21
-128.8507709999999804
0
LINE
8
BLACK
6
CONTINUOUS
10
133.3582059999999956
20
-128.8507709999999804
11
133.4534439999999904
21
-128.803151999999983
0
LINE
8
BLACK
6
CONTINUOUS
10
133.4534439999999904
20
-128.803151999999983
11
133.5963009999999827
21
-128.803151999999983
0
LINE
8
BLACK
6
CONTINUOUS
10
133.5963009999999827
20
-128.803151999999983
11
133.6915400000000034
21
-128.8507709999999804
0
LINE
8
BLACK
6
CONTINUOUS
10
133.6915400000000034
20
-128.8507709999999804
11
133.7391590000000008
21
-128.9460090000000037
0
LINE
8
BLACK
6
CONTINUOUS
10
133.7391590000000008
20
-128.9460090000000037
11
133.7391590000000008
21
-129.4698190000000011
0
LINE
8
BLACK
6
CONTINUOUS
10
177.5915409999999781
20
-58.5198189999999983
11
178.2105880000000013
21
-58.5198189999999983
0
LINE
8
BLACK
6
CONTINUOUS
10
178.2105880000000013
20
-58.5198189999999983
11
177.877254999999991
21
-58.9007709999999989
0
LINE
8
BLACK
6
CONTINUOUS
10
177.877254999999991
20
-58.9007709999999989
11
178.0201119999999833
21
-58.9007709999999989
0
LINE
8
BLACK
6
CONTINUOUS
10
178.0201119999999833
20
-58.9007709999999989
11
178.1153499999999781
21
-58.9483899999999963
0
LINE
8
BLACK
6
CONTINUOUS
10
178.1153499999999781
20
-58.9483899999999963
11
178.1629690000000039
21
-58.9960090000000008
0
LINE
8
BLACK
6
CONTINUOUS
10
178.1629690000000039
20
-58.9960090000000008
11
178.2105880000000013
21
-59.0912469999999956
0
LINE
8
BLACK
6
CONTINUOUS
10
178.2105880000000013
20
-59.0912469999999956
11
178.2105880000000013
21
-59.3293419999999969
0
LINE
8
BLACK
6
CONTINUOUS
10
178.2105880000000013
20
-59.3293419999999969
11
178.1629690000000039
21
-59.4245799999999988
0
LINE
8
BLACK
6
CONTINUOUS
10
178.1629690000000039
20
-59.4245799999999988
11
178.1153499999999781
21
-59.4722000000000008
0
LINE
8
BLACK
6
CONTINUOUS
10
178.1153499999999781
20
-59.4722000000000008
11
178.0201119999999833
21
-59.5198189999999983
0
LINE
8
BLACK
6
CONTINUOUS
10
178.0201119999999833
20
-59.5198189999999983
11
177.7343979999999988
21
-59.5198189999999983
0
LINE
8
BLACK
6
CONTINUOUS
10
177.7343979999999988
20
-59.5198189999999983
11
177.6391600000000039
21
-59.4722000000000008
0
LINE
8
BLACK
6
CONTINUOUS
10
177.6391600000000039
20
-59.4722000000000008
11
177.5915409999999781
21
-59.4245799999999988
0
LINE
8
BLACK
6
CONTINUOUS
10
178.6391600000000039
20
-59.4245799999999988
11
178.6867790000000014
21
-59.4722000000000008
0
LINE
8
BLACK
6
CONTINUOUS
10
178.6867790000000014
20
-59.4722000000000008
11
178.6391600000000039
21
-59.5198189999999983
0
LINE
8
BLACK
6
CONTINUOUS
10
178.6391600000000039
20
-59.5198189999999983
11
178.5915409999999781
21
-59.4722000000000008
0
LINE
8
BLACK
6
CONTINUOUS
10
178.5915409999999781
20
-59.4722000000000008
11
178.6391600000000039
21
-59.4245799999999988
0
LINE
8
BLACK
6
CONTINUOUS
10
178.6391600000000039
20
-59.4245799999999988
11
178.6391600000000039
21
-59.5198189999999983
0
LINE
8
BLACK
6
CONTINUOUS
10
179.0677309999999807
20
-58.6150570000000002
11
179.1153499999999781
21
-58.5674379999999957
0
LINE
8
BLACK
6
CONTINUOUS
10
179.1153499999999781
20
-58.5674379999999957
11
179.2105880000000013
21
-58.5198189999999983
0
LINE
8
BLACK
6
CONTINUOUS
10
179.2105880000000013
20
-58.5198189999999983
11
179.4486829999999884
21
-58.5198189999999983
0
LINE
8
BLACK
6
CONTINUOUS
10
179.4486829999999884
20
-58.5198189999999983
11
179.5439209999999832
21
-58.5674379999999957
0
LINE
8
BLACK
6
CONTINUOUS
10
179.5439209999999832
20
-58.5674379999999957
11
179.5915399999999806
21
-58.6150570000000002
0
LINE
8
BLACK
6
CONTINUOUS
10
179.5915399999999806
20
-58.6150570000000002
11
179.6391589999999781
21
-58.710294999999995
0
LINE
8
BLACK
6
CONTINUOUS
10
179.6391589999999781
20
-58.710294999999995
11
179.6391589999999781
21
-58.8055329999999969
0
LINE
8
BLACK
6
CONTINUOUS
10
179.6391589999999781
20
-58.8055329999999969
11
179.5915399999999806
21
-58.9483899999999963
0
LINE
8
BLACK
6
CONTINUOUS
10
179.5915399999999806
20
-58.9483899999999963
11
179.0201119999999833
21
-59.5198189999999983
0
LINE
8
BLACK
6
CONTINUOUS
10
179.0201119999999833
20
-59.5198189999999983
11
179.6391589999999781
21
-59.5198189999999983
0
LINE
8
BLACK
6
CONTINUOUS
10
180.0677309999999807
20
-59.5198189999999983
11
180.0677309999999807
21
-58.8531519999999944
0
LINE
8
BLACK
6
CONTINUOUS
10
180.0677309999999807
20
-58.9483899999999963
11
180.1153499999999781
21
-58.9007709999999989
0
LINE
8
BLACK
6
CONTINUOUS
10
180.1153499999999781
20
-58.9007709999999989
11
180.2105880000000013
21
-58.8531519999999944
0
LINE
8
BLACK
6
CONTINUOUS
10
180.2105880000000013
20
-58.8531519999999944
11
180.3534449999999936
21
-58.8531519999999944
0
LINE
8
BLACK
6
CONTINUOUS
10
180.3534449999999936
20
-58.8531519999999944
11
180.4486829999999884
21
-58.9007709999999989
0
LINE
8
BLACK
6
CONTINUOUS
10
180.4486829999999884
20
-58.9007709999999989
11
180.4963019999999858
21
-58.9960090000000008
0
LINE
8
BLACK
6
CONTINUOUS
10
180.4963019999999858
20
-58.9960090000000008
11
180.4963019999999858
21
-59.5198189999999983
0
LINE
8
BLACK
6
CONTINUOUS
10
180.4963019999999858
20
-58.9960090000000008
11
180.5439209999999832
21
-58.9007709999999989
0
LINE
8
BLACK
6
CONTINUOUS
10
180.5439209999999832
20
-58.9007709999999989
11
180.6391589999999781
21
-58.8531519999999944
0
LINE
8
BLACK
6
CONTINUOUS
10
180.6391589999999781
20
-58.8531519999999944
11
180.7820159999999987
21
-58.8531519999999944
0
LINE
8
BLACK
6
CONTINUOUS
10
180.7820159999999987
20
-58.8531519999999944
11
180.877254999999991
21
-58.9007709999999989
0
LINE
8
BLACK
6
CONTINUOUS
10
180.877254999999991
20
-58.9007709999999989
11
180.9248739999999884
21
-58.9960090000000008
0
LINE
8
BLACK
6
CONTINUOUS
10
180.9248739999999884
20
-58.9960090000000008
11
180.9248739999999884
21
-59.5198189999999983
0
LINE
8
BLACK
6
CONTINUOUS
10
181.401063999999991
20
-59.5198189999999983
11
181.401063999999991
21
-58.8531519999999944
0
LINE
8
BLACK
6
CONTINUOUS
10
181.401063999999991
20
-58.9483899999999963
11
181.4486829999999884
21
-58.9007709999999989
0
LINE
8
BLACK
6
CONTINUOUS
10
181.4486829999999884
20
-58.9007709999999989
11
181.5439209999999832
21
-58.8531519999999944
0
LINE
8
BLACK
6
CONTINUOUS
10
181.5439209999999832
20
-58.8531519999999944
11
181.6867780000000039
21
-58.8531519999999944
0
LINE
8
BLACK
6
CONTINUOUS
10
181.6867780000000039
20
-58.8531519999999944
11
181.7820159999999987
21
-58.9007709999999989
0
LINE
8
BLACK
6
CONTINUOUS
10
181.7820159999999987
20
-58.9007709999999989
11
181.8296349999999961
21
-58.9960090000000008
0
LINE
8
BLACK
6
CONTINUOUS
10
181.8296349999999961
20
-58.9960090000000008
11
181.8296349999999961
21
-59.5198189999999983
0
LINE
8
BLACK
6
CONTINUOUS
10
181.8296349999999961
20
-58.9960090000000008
11
181.8772539999999935
21
-58.9007709999999989
0
LINE
8
BLACK
6
CONTINUOUS
10
181.8772539999999935
20
-58.9007709999999989
11
181.9724919999999884
21
-58.8531519999999944
0
LINE
8
BLACK
6
CONTINUOUS
10
181.9724919999999884
20
-58.8531519999999944
11
182.1153489999999806
21
-58.8531519999999944
0
LINE
8
BLACK
6
CONTINUOUS
10
182.1153489999999806
20
-58.8531519999999944
11
182.2105880000000013
21
-58.9007709999999989
0
LINE
8
BLACK
6
CONTINUOUS
10
182.2105880000000013
20
-58.9007709999999989
11
182.2582069999999987
21
-58.9960090000000008
0
LINE
8
BLACK
6
CONTINUOUS
10
182.2582069999999987
20
-58.9960090000000008
11
182.2582069999999987
21
-59.5198189999999983
0
LINE
8
BLACK
6
CONTINUOUS
10
183.924872999999991
20
-59.5198189999999983
11
183.924872999999991
21
-58.5198189999999983
0
LINE
8
BLACK
6
CONTINUOUS
10
183.924872999999991
20
-59.4722000000000008
11
183.8296349999999961
21
-59.5198189999999983
0
LINE
8
BLACK
6
CONTINUOUS
10
183.8296349999999961
20
-59.5198189999999983
11
183.6391589999999781
21
-59.5198189999999983
0
LINE
8
BLACK
6
CONTINUOUS
10
183.6391589999999781
20
-59.5198189999999983
11
183.5439209999999832
21
-59.4722000000000008
0
LINE
8
BLACK
6
CONTINUOUS
10
183.5439209999999832
20
-59.4722000000000008
11
183.4963019999999858
21
-59.4245799999999988
0
LINE
8
BLACK
6
CONTINUOUS
10
183.4963019999999858
20
-59.4245799999999988
11
183.4486829999999884
21
-59.3293419999999969
0
LINE
8
BLACK
6
CONTINUOUS
10
183.4486829999999884
20
-59.3293419999999969
11
183.4486829999999884
21
-59.0436279999999982
0
LINE
8
BLACK
6
CONTINUOUS
10
183.4486829999999884
20
-59.0436279999999982
11
183.4963019999999858
21
-58.9483899999999963
0
LINE
8
BLACK
6
CONTINUOUS
10
183.4963019999999858
20
-58.9483899999999963
11
183.5439209999999832
21
-58.9007709999999989
0
LINE
8
BLACK
6
CONTINUOUS
10
183.5439209999999832
20
-58.9007709999999989
11
183.6391589999999781
21
-58.8531519999999944
0
LINE
8
BLACK
6
CONTINUOUS
10
183.6391589999999781
20
-58.8531519999999944
11
183.8296349999999961
21
-58.8531519999999944
0
LINE
8
BLACK
6
CONTINUOUS
10
183.8296349999999961
20
-58.8531519999999944
11
183.924872999999991
21
-58.9007709999999989
0
LINE
8
BLACK
6
CONTINUOUS
10
184.401063999999991
20
-59.5198189999999983
11
184.401063999999991
21
-58.8531519999999944
0
LINE
8
BLACK
6
CONTINUOUS
10
184.401063999999991
20
-58.5198189999999983
11
184.3534449999999936
21
-58.5674379999999957
0
LINE
8
BLACK
6
CONTINUOUS
10
184.3534449999999936
20
-58.5674379999999957
11
184.401063999999991
21
-58.6150570000000002
0
LINE
8
BLACK
6
CONTINUOUS
10
184.401063999999991
20
-58.6150570000000002
11
184.4486829999999884
21
-58.5674379999999957
0
LINE
8
BLACK
6
CONTINUOUS
10
184.4486829999999884
20
-58.5674379999999957
11
184.401063999999991
21
-58.5198189999999983
0
LINE
8
BLACK
6
CONTINUOUS
10
184.401063999999991
20
-58.5198189999999983
11
184.401063999999991
21
-58.6150570000000002
0
LINE
8
BLACK
6
CONTINUOUS
10
185.3058249999999987
20
-59.5198189999999983
11
185.3058249999999987
21
-58.9960090000000008
0
LINE
8
BLACK
6
CONTINUOUS
10
185.3058249999999987
20
-58.9960090000000008
11
185.2582060000000013
21
-58.9007709999999989
0
LINE
8
BLACK
6
CONTINUOUS
10
185.2582060000000013
20
-58.9007709999999989
11
185.162967999999978
21
-58.8531519999999944
0
LINE
8
BLACK
6
CONTINUOUS
10
185.162967999999978
20
-58.8531519999999944
11
184.9724919999999884
21
-58.8531519999999944
0
LINE
8
BLACK
6
CONTINUOUS
10
184.9724919999999884
20
-58.8531519999999944
11
184.8772539999999935
21
-58.9007709999999989
0
LINE
8
BLACK
6
CONTINUOUS
10
185.3058249999999987
20
-59.4722000000000008
11
185.2105870000000039
21
-59.5198189999999983
0
LINE
8
BLACK
6
CONTINUOUS
10
185.2105870000000039
20
-59.5198189999999983
11
184.9724919999999884
21
-59.5198189999999983
0
LINE
8
BLACK
6
CONTINUOUS
10
184.9724919999999884
20
-59.5198189999999983
11
184.8772539999999935
21
-59.4722000000000008
0
LINE
8
BLACK
6
CONTINUOUS
10
184.8772539999999935
20
-59.4722000000000008
11
184.8296349999999961
21
-59.3769609999999943
0
LINE
8
BLACK
6
CONTINUOUS
10
184.8296349999999961
20
-59.3769609999999943
11
184.8296349999999961
21
-59.2817229999999995
0
LINE
8
BLACK
6
CONTINUOUS
10
184.8296349999999961
20
-59.2817229999999995
11
184.8772539999999935
21
-59.1864849999999976
0
LINE
8
BLACK
6
CONTINUOUS
10
184.8772539999999935
20
-59.1864849999999976
11
184.9724919999999884
21
-59.1388660000000002
0
LINE
8
BLACK
6
CONTINUOUS
10
184.9724919999999884
20
-59.1388660000000002
11
185.2105870000000039
21
-59.1388660000000002
0
LINE
8
BLACK
6
CONTINUOUS
10
185.2105870000000039
20
-59.1388660000000002
11
185.3058249999999987
21
-59.0912469999999956
0
LINE
8
BLACK
6
CONTINUOUS
10
185.7820159999999987
20
-59.5198189999999983
11
185.7820159999999987
21
-58.8531519999999944
0
LINE
8
BLACK
6
CONTINUOUS
10
185.7820159999999987
20
-58.9483899999999963
11
185.8296349999999961
21
-58.9007709999999989
0
LINE
8
BLACK
6
CONTINUOUS
10
185.8296349999999961
20
-58.9007709999999989
11
185.924872999999991
21
-58.8531519999999944
0
LINE
8
BLACK
6
CONTINUOUS
10
185.924872999999991
20
-58.8531519999999944
11
186.0677299999999832
21
-58.8531519999999944
0
LINE
8
BLACK
6
CONTINUOUS
10
186.0677299999999832
20
-58.8531519999999944
11
186.162967999999978
21
-58.9007709999999989
0
LINE
8
BLACK
6
CONTINUOUS
10
186.162967999999978
20
-58.9007709999999989
11
186.2105870000000039
21
-58.9960090000000008
0
LINE
8
BLACK
6
CONTINUOUS
10
186.2105870000000039
20
-58.9960090000000008
11
186.2105870000000039
21
-59.5198189999999983
0
LINE
8
BLACK
6
CONTINUOUS
10
186.2105870000000039
20
-58.9960090000000008
11
186.2582060000000013
21
-58.9007709999999989
0
LINE
8
BLACK
6
CONTINUOUS
10
186.2582060000000013
20
-58.9007709999999989
11
186.3534439999999961
21
-58.8531519999999944
0
LINE
8
BLACK
6
CONTINUOUS
10
186.3534439999999961
20
-58.8531519999999944
11
186.4963009999999883
21
-58.8531519999999944
0
LINE
8
BLACK
6
CONTINUOUS
10
186.4963009999999883
20
-58.8531519999999944
11
186.5915399999999806
21
-58.9007709999999989
0
LINE
8
BLACK
6
CONTINUOUS
10
186.5915399999999806
20
-58.9007709999999989
11
186.6391589999999781
21
-58.9960090000000008
0
LINE
8
BLACK
6
CONTINUOUS
10
186.6391589999999781
20
-58.9960090000000008
11
186.6391589999999781
21
-59.5198189999999983
0
LINE
8
BLACK
6
CONTINUOUS
10
125.3105879999999956
20
-106.9698190000000011
11
124.7391599999999983
21
-106.9698190000000011
0
LINE
8
BLACK
6
CONTINUOUS
10
125.024873999999997
20
-106.9698190000000011
11
125.024873999999997
21
-105.9698190000000011
0
LINE
8
BLACK
6
CONTINUOUS
10
125.024873999999997
20
-105.9698190000000011
11
124.9296359999999879
21
-106.1126759999999933
0
LINE
8
BLACK
6
CONTINUOUS
10
124.9296359999999879
20
-106.1126759999999933
11
124.8343979999999931
21
-106.2079139999999882
0
LINE
8
BLACK
6
CONTINUOUS
10
124.8343979999999931
20
-106.2079139999999882
11
124.7391599999999983
21
-106.2555329999999998
0
LINE
8
BLACK
6
CONTINUOUS
10
125.7391599999999983
20
-106.8745799999999946
11
125.7867789999999957
21
-106.9221999999999895
0
LINE
8
BLACK
6
CONTINUOUS
10
125.7867789999999957
20
-106.9221999999999895
11
125.7391599999999983
21
-106.9698190000000011
0
LINE
8
BLACK
6
CONTINUOUS
10
125.7391599999999983
20
-106.9698190000000011
11
125.6915410000000008
21
-106.9221999999999895
0
LINE
8
BLACK
6
CONTINUOUS
10
125.6915410000000008
20
-106.9221999999999895
11
125.7391599999999983
21
-106.8745799999999946
0
LINE
8
BLACK
6
CONTINUOUS
10
125.7391599999999983
20
-106.8745799999999946
11
125.7391599999999983
21
-106.9698190000000011
0
LINE
8
BLACK
6
CONTINUOUS
10
126.1677309999999892
20
-106.0650569999999959
11
126.2153500000000008
21
-106.0174379999999985
0
LINE
8
BLACK
6
CONTINUOUS
10
126.2153500000000008
20
-106.0174379999999985
11
126.3105879999999956
21
-105.9698190000000011
0
LINE
8
BLACK
6
CONTINUOUS
10
126.3105879999999956
20
-105.9698190000000011
11
126.5486829999999969
21
-105.9698190000000011
0
LINE
8
BLACK
6
CONTINUOUS
10
126.5486829999999969
20
-105.9698190000000011
11
126.6439209999999917
21
-106.0174379999999985
0
LINE
8
BLACK
6
CONTINUOUS
10
126.6439209999999917
20
-106.0174379999999985
11
126.6915399999999892
21
-106.0650569999999959
0
LINE
8
BLACK
6
CONTINUOUS
10
126.6915399999999892
20
-106.0650569999999959
11
126.7391590000000008
21
-106.1602949999999908
0
LINE
8
BLACK
6
CONTINUOUS
10
126.7391590000000008
20
-106.1602949999999908
11
126.7391590000000008
21
-106.2555329999999998
0
LINE
8
BLACK
6
CONTINUOUS
10
126.7391590000000008
20
-106.2555329999999998
11
126.6915399999999892
21
-106.398389999999992
0
LINE
8
BLACK
6
CONTINUOUS
10
126.6915399999999892
20
-106.398389999999992
11
126.1201119999999918
21
-106.9698190000000011
0
LINE
8
BLACK
6
CONTINUOUS
10
126.1201119999999918
20
-106.9698190000000011
11
126.7391590000000008
21
-106.9698190000000011
0
LINE
8
BLACK
6
CONTINUOUS
10
127.1677309999999892
20
-106.9698190000000011
11
127.1677309999999892
21
-106.3031519999999972
0
LINE
8
BLACK
6
CONTINUOUS
10
127.1677309999999892
20
-106.398389999999992
11
127.2153500000000008
21
-106.3507709999999946
0
LINE
8
BLACK
6
CONTINUOUS
10
127.2153500000000008
20
-106.3507709999999946
11
127.3105879999999956
21
-106.3031519999999972
0
LINE
8
BLACK
6
CONTINUOUS
10
127.3105879999999956
20
-106.3031519999999972
11
127.4534449999999879
21
-106.3031519999999972
0
LINE
8
BLACK
6
CONTINUOUS
10
127.4534449999999879
20
-106.3031519999999972
11
127.5486829999999969
21
-106.3507709999999946
0
LINE
8
BLACK
6
CONTINUOUS
10
127.5486829999999969
20
-106.3507709999999946
11
127.5963019999999943
21
-106.4460089999999894
0
LINE
8
BLACK
6
CONTINUOUS
10
127.5963019999999943
20
-106.4460089999999894
11
127.5963019999999943
21
-106.9698190000000011
0
LINE
8
BLACK
6
CONTINUOUS
10
127.5963019999999943
20
-106.4460089999999894
11
127.6439209999999917
21
-106.3507709999999946
0
LINE
8
BLACK
6
CONTINUOUS
10
127.6439209999999917
20
-106.3507709999999946
11
127.7391590000000008
21
-106.3031519999999972
0
LINE
8
BLACK
6
CONTINUOUS
10
127.7391590000000008
20
-106.3031519999999972
11
127.882015999999993
21
-106.3031519999999972
0
LINE
8
BLACK
6
CONTINUOUS
10
127.882015999999993
20
-106.3031519999999972
11
127.9772549999999995
21
-106.3507709999999946
0
LINE
8
BLACK
6
CONTINUOUS
10
127.9772549999999995
20
-106.3507709999999946
11
128.0248739999999827
21
-106.4460089999999894
0
LINE
8
BLACK
6
CONTINUOUS
10
128.0248739999999827
20
-106.4460089999999894
11
128.0248739999999827
21
-106.9698190000000011
0
LINE
8
BLACK
6
CONTINUOUS
10
128.5010639999999853
20
-106.9698190000000011
11
128.5010639999999853
21
-106.3031519999999972
0
LINE
8
BLACK
6
CONTINUOUS
10
128.5010639999999853
20
-106.398389999999992
11
128.5486829999999827
21
-106.3507709999999946
0
LINE
8
BLACK
6
CONTINUOUS
10
128.5486829999999827
20
-106.3507709999999946
11
128.643921000000006
21
-106.3031519999999972
0
LINE
8
BLACK
6
CONTINUOUS
10
128.643921000000006
20
-106.3031519999999972
11
128.7867779999999982
21
-106.3031519999999972
0
LINE
8
BLACK
6
CONTINUOUS
10
128.7867779999999982
20
-106.3031519999999972
11
128.882015999999993
21
-106.3507709999999946
0
LINE
8
BLACK
6
CONTINUOUS
10
128.882015999999993
20
-106.3507709999999946
11
128.9296349999999904
21
-106.4460089999999894
0
LINE
8
BLACK
6
CONTINUOUS
10
128.9296349999999904
20
-106.4460089999999894
11
128.9296349999999904
21
-106.9698190000000011
0
LINE
8
BLACK
6
CONTINUOUS
10
128.9296349999999904
20
-106.4460089999999894
11
128.9772539999999879
21
-106.3507709999999946
0
LINE
8
BLACK
6
CONTINUOUS
10
128.9772539999999879
20
-106.3507709999999946
11
129.0724919999999827
21
-106.3031519999999972
0
LINE
8
BLACK
6
CONTINUOUS
10
129.0724919999999827
20
-106.3031519999999972
11
129.2153490000000033
21
-106.3031519999999972
0
LINE
8
BLACK
6
CONTINUOUS
10
129.2153490000000033
20
-106.3031519999999972
11
129.3105879999999956
21
-106.3507709999999946
0
LINE
8
BLACK
6
CONTINUOUS
10
129.3105879999999956
20
-106.3507709999999946
11
129.3582069999999931
21
-106.4460089999999894
0
LINE
8
BLACK
6
CONTINUOUS
10
129.3582069999999931
20
-106.4460089999999894
11
129.3582069999999931
21
-106.9698190000000011
0
LINE
8
BLACK
6
CONTINUOUS
10
131.0248729999999853
20
-106.9698190000000011
11
131.0248729999999853
21
-105.9698190000000011
0
LINE
8
BLACK
6
CONTINUOUS
10
131.0248729999999853
20
-106.9221999999999895
11
130.9296349999999904
21
-106.9698190000000011
0
LINE
8
BLACK
6
CONTINUOUS
10
130.9296349999999904
20
-106.9698190000000011
11
130.7391590000000008
21
-106.9698190000000011
0
LINE
8
BLACK
6
CONTINUOUS
10
130.7391590000000008
20
-106.9698190000000011
11
130.643921000000006
21
-106.9221999999999895
0
LINE
8
BLACK
6
CONTINUOUS
10
130.643921000000006
20
-106.9221999999999895
11
130.5963019999999801
21
-106.8745799999999946
0
LINE
8
BLACK
6
CONTINUOUS
10
130.5963019999999801
20
-106.8745799999999946
11
130.5486829999999827
21
-106.7793419999999998
0
LINE
8
BLACK
6
CONTINUOUS
10
130.5486829999999827
20
-106.7793419999999998
11
130.5486829999999827
21
-106.4936280000000011
0
LINE
8
BLACK
6
CONTINUOUS
10
130.5486829999999827
20
-106.4936280000000011
11
130.5963019999999801
21
-106.398389999999992
0
LINE
8
BLACK
6
CONTINUOUS
10
130.5963019999999801
20
-106.398389999999992
11
130.643921000000006
21
-106.3507709999999946
0
LINE
8
BLACK
6
CONTINUOUS
10
130.643921000000006
20
-106.3507709999999946
11
130.7391590000000008
21
-106.3031519999999972
0
LINE
8
BLACK
6
CONTINUOUS
10
130.7391590000000008
20
-106.3031519999999972
11
130.9296349999999904
21
-106.3031519999999972
0
LINE
8
BLACK
6
CONTINUOUS
10
130.9296349999999904
20
-106.3031519999999972
11
131.0248729999999853
21
-106.3507709999999946
0
LINE
8
BLACK
6
CONTINUOUS
10
131.5010639999999853
20
-106.9698190000000011
11
131.5010639999999853
21
-106.3031519999999972
0
LINE
8
BLACK
6
CONTINUOUS
10
131.5010639999999853
20
-105.9698190000000011
11
131.4534449999999879
21
-106.0174379999999985
0
LINE
8
BLACK
6
CONTINUOUS
10
131.4534449999999879
20
-106.0174379999999985
11
131.5010639999999853
21
-106.0650569999999959
0
LINE
8
BLACK
6
CONTINUOUS
10
131.5010639999999853
20
-106.0650569999999959
11
131.5486829999999827
21
-106.0174379999999985
0
LINE
8
BLACK
6
CONTINUOUS
10
131.5486829999999827
20
-106.0174379999999985
11
131.5010639999999853
21
-105.9698190000000011
0
LINE
8
BLACK
6
CONTINUOUS
10
131.5010639999999853
20
-105.9698190000000011
11
131.5010639999999853
21
-106.0650569999999959
0
LINE
8
BLACK
6
CONTINUOUS
10
132.405824999999993
20
-106.9698190000000011
11
132.405824999999993
21
-106.4460089999999894
0
LINE
8
BLACK
6
CONTINUOUS
10
132.405824999999993
20
-106.4460089999999894
11
132.3582059999999956
21
-106.3507709999999946
0
LINE
8
BLACK
6
CONTINUOUS
10
132.3582059999999956
20
-106.3507709999999946
11
132.2629680000000008
21
-106.3031519999999972
0
LINE
8
BLACK
6
CONTINUOUS
10
132.2629680000000008
20
-106.3031519999999972
11
132.0724919999999827
21
-106.3031519999999972
0
LINE
8
BLACK
6
CONTINUOUS
10
132.0724919999999827
20
-106.3031519999999972
11
131.9772539999999879
21
-106.3507709999999946
0
LINE
8
BLACK
6
CONTINUOUS
10
132.405824999999993
20
-106.9221999999999895
11
132.3105869999999982
21
-106.9698190000000011
0
LINE
8
BLACK
6
CONTINUOUS
10
132.3105869999999982
20
-106.9698190000000011
11
132.0724919999999827
21
-106.9698190000000011
0
LINE
8
BLACK
6
CONTINUOUS
10
132.0724919999999827
20
-106.9698190000000011
11
131.9772539999999879
21
-106.9221999999999895
0
LINE
8
BLACK
6
CONTINUOUS
10
131.9772539999999879
20
-106.9221999999999895
11
131.9296349999999904
21
-106.8269609999999972
0
LINE
8
BLACK
6
CONTINUOUS
10
131.9296349999999904
20
-106.8269609999999972
11
131.9296349999999904
21
-106.7317229999999881
0
LINE
8
BLACK
6
CONTINUOUS
10
131.9296349999999904
20
-106.7317229999999881
11
131.9772539999999879
21
-106.6364849999999933
0
LINE
8
BLACK
6
CONTINUOUS
10
131.9772539999999879
20
-106.6364849999999933
11
132.0724919999999827
21
-106.5888659999999959
0
LINE
8
BLACK
6
CONTINUOUS
10
132.0724919999999827
20
-106.5888659999999959
11
132.3105869999999982
21
-106.5888659999999959
0
LINE
8
BLACK
6
CONTINUOUS
10
132.3105869999999982
20
-106.5888659999999959
11
132.405824999999993
21
-106.5412469999999985
0
LINE
8
BLACK
6
CONTINUOUS
10
132.882015999999993
20
-106.9698190000000011
11
132.882015999999993
21
-106.3031519999999972
0
LINE
8
BLACK
6
CONTINUOUS
10
132.882015999999993
20
-106.398389999999992
11
132.9296349999999904
21
-106.3507709999999946
0
LINE
8
BLACK
6
CONTINUOUS
10
132.9296349999999904
20
-106.3507709999999946
11
133.0248729999999853
21
-106.3031519999999972
0
LINE
8
BLACK
6
CONTINUOUS
10
133.0248729999999853
20
-106.3031519999999972
11
133.1677300000000059
21
-106.3031519999999972
0
LINE
8
BLACK
6
CONTINUOUS
10
133.1677300000000059
20
-106.3031519999999972
11
133.2629680000000008
21
-106.3507709999999946
0
LINE
8
BLACK
6
CONTINUOUS
10
133.2629680000000008
20
-106.3507709999999946
11
133.3105869999999982
21
-106.4460089999999894
0
LINE
8
BLACK
6
CONTINUOUS
10
133.3105869999999982
20
-106.4460089999999894
11
133.3105869999999982
21
-106.9698190000000011
0
LINE
8
BLACK
6
CONTINUOUS
10
133.3105869999999982
20
-106.4460089999999894
11
133.3582059999999956
21
-106.3507709999999946
0
LINE
8
BLACK
6
CONTINUOUS
10
133.3582059999999956
20
-106.3507709999999946
11
133.4534439999999904
21
-106.3031519999999972
0
LINE
8
BLACK
6
CONTINUOUS
10
133.4534439999999904
20
-106.3031519999999972
11
133.5963009999999827
21
-106.3031519999999972
0
LINE
8
BLACK
6
CONTINUOUS
10
133.5963009999999827
20
-106.3031519999999972
11
133.6915400000000034
21
-106.3507709999999946
0
LINE
8
BLACK
6
CONTINUOUS
10
133.6915400000000034
20
-106.3507709999999946
11
133.7391590000000008
21
-106.4460089999999894
0
LINE
8
BLACK
6
CONTINUOUS
10
133.7391590000000008
20
-106.4460089999999894
11
133.7391590000000008
21
-106.9698190000000011
0
LINE
8
BLACK
6
CONTINUOUS
10
177.7415409999999838
20
-144.519818999999984
11
178.3605879999999786
21
-144.519818999999984
0
LINE
8
BLACK
6
CONTINUOUS
10
178.3605879999999786
20
-144.519818999999984
11
178.0272549999999967
21
-144.9007709999999918
0
LINE
8
BLACK
6
CONTINUOUS
10
178.0272549999999967
20
-144.9007709999999918
11
178.1701119999999889
21
-144.9007709999999918
0
LINE
8
BLACK
6
CONTINUOUS
10
178.1701119999999889
20
-144.9007709999999918
11
178.2653499999999838
21
-144.9483899999999892
0
LINE
8
BLACK
6
CONTINUOUS
10
178.2653499999999838
20
-144.9483899999999892
11
178.3129689999999812
21
-144.9960089999999866
0
LINE
8
BLACK
6
CONTINUOUS
10
178.3129689999999812
20
-144.9960089999999866
11
178.3605879999999786
21
-145.0912469999999814
0
LINE
8
BLACK
6
CONTINUOUS
10
178.3605879999999786
20
-145.0912469999999814
11
178.3605879999999786
21
-145.3293419999999969
0
LINE
8
BLACK
6
CONTINUOUS
10
178.3605879999999786
20
-145.3293419999999969
11
178.3129689999999812
21
-145.4245799999999917
0
LINE
8
BLACK
6
CONTINUOUS
10
178.3129689999999812
20
-145.4245799999999917
11
178.2653499999999838
21
-145.4721999999999866
0
LINE
8
BLACK
6
CONTINUOUS
10
178.2653499999999838
20
-145.4721999999999866
11
178.1701119999999889
21
-145.519818999999984
0
LINE
8
BLACK
6
CONTINUOUS
10
178.1701119999999889
20
-145.519818999999984
11
177.8843980000000045
21
-145.519818999999984
0
LINE
8
BLACK
6
CONTINUOUS
10
177.8843980000000045
20
-145.519818999999984
11
177.7891599999999812
21
-145.4721999999999866
0
LINE
8
BLACK
6
CONTINUOUS
10
177.7891599999999812
20
-145.4721999999999866
11
177.7415409999999838
21
-145.4245799999999917
0
LINE
8
BLACK
6
CONTINUOUS
10
178.7891599999999812
20
-145.4245799999999917
11
178.8367789999999786
21
-145.4721999999999866
0
LINE
8
BLACK
6
CONTINUOUS
10
178.8367789999999786
20
-145.4721999999999866
11
178.7891599999999812
21
-145.519818999999984
0
LINE
8
BLACK
6
CONTINUOUS
10
178.7891599999999812
20
-145.519818999999984
11
178.7415409999999838
21
-145.4721999999999866
0
LINE
8
BLACK
6
CONTINUOUS
10
178.7415409999999838
20
-145.4721999999999866
11
178.7891599999999812
21
-145.4245799999999917
0
LINE
8
BLACK
6
CONTINUOUS
10
178.7891599999999812
20
-145.4245799999999917
11
178.7891599999999812
21
-145.519818999999984
0
LINE
8
BLACK
6
CONTINUOUS
10
179.2177309999999864
20
-144.6150570000000073
11
179.2653499999999838
21
-144.5674379999999815
0
LINE
8
BLACK
6
CONTINUOUS
10
179.2653499999999838
20
-144.5674379999999815
11
179.3605879999999786
21
-144.519818999999984
0
LINE
8
BLACK
6
CONTINUOUS
10
179.3605879999999786
20
-144.519818999999984
11
179.5986829999999941
21
-144.519818999999984
0
LINE
8
BLACK
6
CONTINUOUS
10
179.5986829999999941
20
-144.519818999999984
11
179.6939209999999889
21
-144.5674379999999815
0
LINE
8
BLACK
6
CONTINUOUS
10
179.6939209999999889
20
-144.5674379999999815
11
179.7415399999999863
21
-144.6150570000000073
0
LINE
8
BLACK
6
CONTINUOUS
10
179.7415399999999863
20
-144.6150570000000073
11
179.7891589999999837
21
-144.7102950000000021
0
LINE
8
BLACK
6
CONTINUOUS
10
179.7891589999999837
20
-144.7102950000000021
11
179.7891589999999837
21
-144.8055329999999969
0
LINE
8
BLACK
6
CONTINUOUS
10
179.7891589999999837
20
-144.8055329999999969
11
179.7415399999999863
21
-144.9483899999999892
0
LINE
8
BLACK
6
CONTINUOUS
10
179.7415399999999863
20
-144.9483899999999892
11
179.1701119999999889
21
-145.519818999999984
0
LINE
8
BLACK
6
CONTINUOUS
10
179.1701119999999889
20
-145.519818999999984
11
179.7891589999999837
21
-145.519818999999984
0
LINE
8
BLACK
6
CONTINUOUS
10
180.2177309999999864
20
-145.519818999999984
11
180.2177309999999864
21
-144.8531519999999944
0
LINE
8
BLACK
6
CONTINUOUS
10
180.2177309999999864
20
-144.9483899999999892
11
180.2653499999999838
21
-144.9007709999999918
0
LINE
8
BLACK
6
CONTINUOUS
10
180.2653499999999838
20
-144.9007709999999918
11
180.3605879999999786
21
-144.8531519999999944
0
LINE
8
BLACK
6
CONTINUOUS
10
180.3605879999999786
20
-144.8531519999999944
11
180.5034449999999993
21
-144.8531519999999944
0
LINE
8
BLACK
6
CONTINUOUS
10
180.5034449999999993
20
-144.8531519999999944
11
180.5986829999999941
21
-144.9007709999999918
0
LINE
8
BLACK
6
CONTINUOUS
10
180.5986829999999941
20
-144.9007709999999918
11
180.6463019999999915
21
-144.9960089999999866
0
LINE
8
BLACK
6
CONTINUOUS
10
180.6463019999999915
20
-144.9960089999999866
11
180.6463019999999915
21
-145.519818999999984
0
LINE
8
BLACK
6
CONTINUOUS
10
180.6463019999999915
20
-144.9960089999999866
11
180.6939209999999889
21
-144.9007709999999918
0
LINE
8
BLACK
6
CONTINUOUS
10
180.6939209999999889
20
-144.9007709999999918
11
180.7891589999999837
21
-144.8531519999999944
0
LINE
8
BLACK
6
CONTINUOUS
10
180.7891589999999837
20
-144.8531519999999944
11
180.9320160000000044
21
-144.8531519999999944
0
LINE
8
BLACK
6
CONTINUOUS
10
180.9320160000000044
20
-144.8531519999999944
11
181.0272549999999967
21
-144.9007709999999918
0
LINE
8
BLACK
6
CONTINUOUS
10
181.0272549999999967
20
-144.9007709999999918
11
181.0748739999999941
21
-144.9960089999999866
0
LINE
8
BLACK
6
CONTINUOUS
10
181.0748739999999941
20
-144.9960089999999866
11
181.0748739999999941
21
-145.519818999999984
0
LINE
8
BLACK
6
CONTINUOUS
10
181.5510639999999967
20
-145.519818999999984
11
181.5510639999999967
21
-144.8531519999999944
0
LINE
8
BLACK
6
CONTINUOUS
10
181.5510639999999967
20
-144.9483899999999892
11
181.5986829999999941
21
-144.9007709999999918
0
LINE
8
BLACK
6
CONTINUOUS
10
181.5986829999999941
20
-144.9007709999999918
11
181.6939209999999889
21
-144.8531519999999944
0
LINE
8
BLACK
6
CONTINUOUS
10
181.6939209999999889
20
-144.8531519999999944
11
181.8367779999999811
21
-144.8531519999999944
0
LINE
8
BLACK
6
CONTINUOUS
10
181.8367779999999811
20
-144.8531519999999944
11
181.9320160000000044
21
-144.9007709999999918
0
LINE
8
BLACK
6
CONTINUOUS
10
181.9320160000000044
20
-144.9007709999999918
11
181.9796350000000018
21
-144.9960089999999866
0
LINE
8
BLACK
6
CONTINUOUS
10
181.9796350000000018
20
-144.9960089999999866
11
181.9796350000000018
21
-145.519818999999984
0
LINE
8
BLACK
6
CONTINUOUS
10
181.9796350000000018
20
-144.9960089999999866
11
182.0272539999999992
21
-144.9007709999999918
0
LINE
8
BLACK
6
CONTINUOUS
10
182.0272539999999992
20
-144.9007709999999918
11
182.1224919999999941
21
-144.8531519999999944
0
LINE
8
BLACK
6
CONTINUOUS
10
182.1224919999999941
20
-144.8531519999999944
11
182.2653489999999863
21
-144.8531519999999944
0
LINE
8
BLACK
6
CONTINUOUS
10
182.2653489999999863
20
-144.8531519999999944
11
182.3605879999999786
21
-144.9007709999999918
0
LINE
8
BLACK
6
CONTINUOUS
10
182.3605879999999786
20
-144.9007709999999918
11
182.4082070000000044
21
-144.9960089999999866
0
LINE
8
BLACK
6
CONTINUOUS
10
182.4082070000000044
20
-144.9960089999999866
11
182.4082070000000044
21
-145.519818999999984
0
LINE
8
BLACK
6
CONTINUOUS
10
184.0748729999999966
20
-145.519818999999984
11
184.0748729999999966
21
-144.519818999999984
0
LINE
8
BLACK
6
CONTINUOUS
10
184.0748729999999966
20
-145.4721999999999866
11
183.9796350000000018
21
-145.519818999999984
0
LINE
8
BLACK
6
CONTINUOUS
10
183.9796350000000018
20
-145.519818999999984
11
183.7891589999999837
21
-145.519818999999984
0
LINE
8
BLACK
6
CONTINUOUS
10
183.7891589999999837
20
-145.519818999999984
11
183.6939209999999889
21
-145.4721999999999866
0
LINE
8
BLACK
6
CONTINUOUS
10
183.6939209999999889
20
-145.4721999999999866
11
183.6463019999999915
21
-145.4245799999999917
0
LINE
8
BLACK
6
CONTINUOUS
10
183.6463019999999915
20
-145.4245799999999917
11
183.5986829999999941
21
-145.3293419999999969
0
LINE
8
BLACK
6
CONTINUOUS
10
183.5986829999999941
20
-145.3293419999999969
11
183.5986829999999941
21
-145.043627999999984
0
LINE
8
BLACK
6
CONTINUOUS
10
183.5986829999999941
20
-145.043627999999984
11
183.6463019999999915
21
-144.9483899999999892
0
LINE
8
BLACK
6
CONTINUOUS
10
183.6463019999999915
20
-144.9483899999999892
11
183.6939209999999889
21
-144.9007709999999918
0
LINE
8
BLACK
6
CONTINUOUS
10
183.6939209999999889
20
-144.9007709999999918
11
183.7891589999999837
21
-144.8531519999999944
0
LINE
8
BLACK
6
CONTINUOUS
10
183.7891589999999837
20
-144.8531519999999944
11
183.9796350000000018
21
-144.8531519999999944
0
LINE
8
BLACK
6
CONTINUOUS
10
183.9796350000000018
20
-144.8531519999999944
11
184.0748729999999966
21
-144.9007709999999918
0
LINE
8
BLACK
6
CONTINUOUS
10
184.5510639999999967
20
-145.519818999999984
11
184.5510639999999967
21
-144.8531519999999944
0
LINE
8
BLACK
6
CONTINUOUS
10
184.5510639999999967
20
-144.519818999999984
11
184.5034449999999993
21
-144.5674379999999815
0
LINE
8
BLACK
6
CONTINUOUS
10
184.5034449999999993
20
-144.5674379999999815
11
184.5510639999999967
21
-144.6150570000000073
0
LINE
8
BLACK
6
CONTINUOUS
10
184.5510639999999967
20
-144.6150570000000073
11
184.5986829999999941
21
-144.5674379999999815
0
LINE
8
BLACK
6
CONTINUOUS
10
184.5986829999999941
20
-144.5674379999999815
11
184.5510639999999967
21
-144.519818999999984
0
LINE
8
BLACK
6
CONTINUOUS
10
184.5510639999999967
20
-144.519818999999984
11
184.5510639999999967
21
-144.6150570000000073
0
LINE
8
BLACK
6
CONTINUOUS
10
185.4558250000000044
20
-145.519818999999984
11
185.4558250000000044
21
-144.9960089999999866
0
LINE
8
BLACK
6
CONTINUOUS
10
185.4558250000000044
20
-144.9960089999999866
11
185.4082059999999785
21
-144.9007709999999918
0
LINE
8
BLACK
6
CONTINUOUS
10
185.4082059999999785
20
-144.9007709999999918
11
185.3129679999999837
21
-144.8531519999999944
0
LINE
8
BLACK
6
CONTINUOUS
10
185.3129679999999837
20
-144.8531519999999944
11
185.1224919999999941
21
-144.8531519999999944
0
LINE
8
BLACK
6
CONTINUOUS
10
185.1224919999999941
20
-144.8531519999999944
11
185.0272539999999992
21
-144.9007709999999918
0
LINE
8
BLACK
6
CONTINUOUS
10
185.4558250000000044
20
-145.4721999999999866
11
185.3605869999999811
21
-145.519818999999984
0
LINE
8
BLACK
6
CONTINUOUS
10
185.3605869999999811
20
-145.519818999999984
11
185.1224919999999941
21
-145.519818999999984
0
LINE
8
BLACK
6
CONTINUOUS
10
185.1224919999999941
20
-145.519818999999984
11
185.0272539999999992
21
-145.4721999999999866
0
LINE
8
BLACK
6
CONTINUOUS
10
185.0272539999999992
20
-145.4721999999999866
11
184.9796350000000018
21
-145.3769609999999943
0
LINE
8
BLACK
6
CONTINUOUS
10
184.9796350000000018
20
-145.3769609999999943
11
184.9796350000000018
21
-145.2817229999999995
0
LINE
8
BLACK
6
CONTINUOUS
10
184.9796350000000018
20
-145.2817229999999995
11
185.0272539999999992
21
-145.1864850000000047
0
LINE
8
BLACK
6
CONTINUOUS
10
185.0272539999999992
20
-145.1864850000000047
11
185.1224919999999941
21
-145.1388660000000073
0
LINE
8
BLACK
6
CONTINUOUS
10
185.1224919999999941
20
-145.1388660000000073
11
185.3605869999999811
21
-145.1388660000000073
0
LINE
8
BLACK
6
CONTINUOUS
10
185.3605869999999811
20
-145.1388660000000073
11
185.4558250000000044
21
-145.0912469999999814
0
LINE
8
BLACK
6
CONTINUOUS
10
185.9320160000000044
20
-145.519818999999984
11
185.9320160000000044
21
-144.8531519999999944
0
LINE
8
BLACK
6
CONTINUOUS
10
185.9320160000000044
20
-144.9483899999999892
11
185.9796350000000018
21
-144.9007709999999918
0
LINE
8
BLACK
6
CONTINUOUS
10
185.9796350000000018
20
-144.9007709999999918
11
186.0748729999999966
21
-144.8531519999999944
0
LINE
8
BLACK
6
CONTINUOUS
10
186.0748729999999966
20
-144.8531519999999944
11
186.2177299999999889
21
-144.8531519999999944
0
LINE
8
BLACK
6
CONTINUOUS
10
186.2177299999999889
20
-144.8531519999999944
11
186.3129679999999837
21
-144.9007709999999918
0
LINE
8
BLACK
6
CONTINUOUS
10
186.3129679999999837
20
-144.9007709999999918
11
186.3605869999999811
21
-144.9960089999999866
0
LINE
8
BLACK
6
CONTINUOUS
10
186.3605869999999811
20
-144.9960089999999866
11
186.3605869999999811
21
-145.519818999999984
0
LINE
8
BLACK
6
CONTINUOUS
10
186.3605869999999811
20
-144.9960089999999866
11
186.4082059999999785
21
-144.9007709999999918
0
LINE
8
BLACK
6
CONTINUOUS
10
186.4082059999999785
20
-144.9007709999999918
11
186.5034440000000018
21
-144.8531519999999944
0
LINE
8
BLACK
6
CONTINUOUS
10
186.5034440000000018
20
-144.8531519999999944
11
186.646300999999994
21
-144.8531519999999944
0
LINE
8
BLACK
6
CONTINUOUS
10
186.646300999999994
20
-144.8531519999999944
11
186.7415399999999863
21
-144.9007709999999918
0
LINE
8
BLACK
6
CONTINUOUS
10
186.7415399999999863
20
-144.9007709999999918
11
186.7891589999999837
21
-144.9960089999999866
0
LINE
8
BLACK
6
CONTINUOUS
10
186.7891589999999837
20
-144.9960089999999866
11
186.7891589999999837
21
-145.519818999999984
0
LINE
8
BLACK
6
CONTINUOUS
10
124.6891600000000011
20
-117.5150569999999988
11
124.7367789999999985
21
-117.4674380000000014
0
LINE
8
BLACK
6
CONTINUOUS
10
124.7367789999999985
20
-117.4674380000000014
11
124.8320169999999933
21
-117.4198189999999897
0
LINE
8
BLACK
6
CONTINUOUS
10
124.8320169999999933
20
-117.4198189999999897
11
125.0701119999999946
21
-117.4198189999999897
0
LINE
8
BLACK
6
CONTINUOUS
10
125.0701119999999946
20
-117.4198189999999897
11
125.1653499999999894
21
-117.4674380000000014
0
LINE
8
BLACK
6
CONTINUOUS
10
125.1653499999999894
20
-117.4674380000000014
11
125.2129690000000011
21
-117.5150569999999988
0
LINE
8
BLACK
6
CONTINUOUS
10
125.2129690000000011
20
-117.5150569999999988
11
125.2605879999999985
21
-117.6102949999999936
0
LINE
8
BLACK
6
CONTINUOUS
10
125.2605879999999985
20
-117.6102949999999936
11
125.2605879999999985
21
-117.7055329999999884
0
LINE
8
BLACK
6
CONTINUOUS
10
125.2605879999999985
20
-117.7055329999999884
11
125.2129690000000011
21
-117.8483899999999949
0
LINE
8
BLACK
6
CONTINUOUS
10
125.2129690000000011
20
-117.8483899999999949
11
124.6415409999999895
21
-118.4198189999999897
0
LINE
8
BLACK
6
CONTINUOUS
10
124.6415409999999895
20
-118.4198189999999897
11
125.2605879999999985
21
-118.4198189999999897
0
LINE
8
BLACK
6
CONTINUOUS
10
125.6891600000000011
20
-118.3245799999999974
11
125.7367789999999985
21
-118.3721999999999923
0
LINE
8
BLACK
6
CONTINUOUS
10
125.7367789999999985
20
-118.3721999999999923
11
125.6891600000000011
21
-118.4198189999999897
0
LINE
8
BLACK
6
CONTINUOUS
10
125.6891600000000011
20
-118.4198189999999897
11
125.6415409999999895
21
-118.3721999999999923
0
LINE
8
BLACK
6
CONTINUOUS
10
125.6415409999999895
20
-118.3721999999999923
11
125.6891600000000011
21
-118.3245799999999974
0
LINE
8
BLACK
6
CONTINUOUS
10
125.6891600000000011
20
-118.3245799999999974
11
125.6891600000000011
21
-118.4198189999999897
0
LINE
8
BLACK
6
CONTINUOUS
10
126.5939209999999946
20
-117.4198189999999897
11
126.4034449999999907
21
-117.4198189999999897
0
LINE
8
BLACK
6
CONTINUOUS
10
126.4034449999999907
20
-117.4198189999999897
11
126.3082069999999959
21
-117.4674380000000014
0
LINE
8
BLACK
6
CONTINUOUS
10
126.3082069999999959
20
-117.4674380000000014
11
126.2605879999999985
21
-117.5150569999999988
0
LINE
8
BLACK
6
CONTINUOUS
10
126.2605879999999985
20
-117.5150569999999988
11
126.1653499999999894
21
-117.657913999999991
0
LINE
8
BLACK
6
CONTINUOUS
10
126.1653499999999894
20
-117.657913999999991
11
126.117730999999992
21
-117.8483899999999949
0
LINE
8
BLACK
6
CONTINUOUS
10
126.117730999999992
20
-117.8483899999999949
11
126.117730999999992
21
-118.2293419999999884
0
LINE
8
BLACK
6
CONTINUOUS
10
126.117730999999992
20
-118.2293419999999884
11
126.1653499999999894
21
-118.3245799999999974
0
LINE
8
BLACK
6
CONTINUOUS
10
126.1653499999999894
20
-118.3245799999999974
11
126.2129690000000011
21
-118.3721999999999923
0
LINE
8
BLACK
6
CONTINUOUS
10
126.2129690000000011
20
-118.3721999999999923
11
126.3082069999999959
21
-118.4198189999999897
0
LINE
8
BLACK
6
CONTINUOUS
10
126.3082069999999959
20
-118.4198189999999897
11
126.4986829999999998
21
-118.4198189999999897
0
LINE
8
BLACK
6
CONTINUOUS
10
126.4986829999999998
20
-118.4198189999999897
11
126.5939209999999946
21
-118.3721999999999923
0
LINE
8
BLACK
6
CONTINUOUS
10
126.5939209999999946
20
-118.3721999999999923
11
126.641539999999992
21
-118.3245799999999974
0
LINE
8
BLACK
6
CONTINUOUS
10
126.641539999999992
20
-118.3245799999999974
11
126.6891589999999894
21
-118.2293419999999884
0
LINE
8
BLACK
6
CONTINUOUS
10
126.6891589999999894
20
-118.2293419999999884
11
126.6891589999999894
21
-117.9912470000000013
0
LINE
8
BLACK
6
CONTINUOUS
10
126.6891589999999894
20
-117.9912470000000013
11
126.641539999999992
21
-117.8960089999999923
0
LINE
8
BLACK
6
CONTINUOUS
10
126.641539999999992
20
-117.8960089999999923
11
126.5939209999999946
21
-117.8483899999999949
0
LINE
8
BLACK
6
CONTINUOUS
10
126.5939209999999946
20
-117.8483899999999949
11
126.4986829999999998
21
-117.8007709999999975
0
LINE
8
BLACK
6
CONTINUOUS
10
126.4986829999999998
20
-117.8007709999999975
11
126.3082069999999959
21
-117.8007709999999975
0
LINE
8
BLACK
6
CONTINUOUS
10
126.3082069999999959
20
-117.8007709999999975
11
126.2129690000000011
21
-117.8483899999999949
0
LINE
8
BLACK
6
CONTINUOUS
10
126.2129690000000011
20
-117.8483899999999949
11
126.1653499999999894
21
-117.8960089999999923
0
LINE
8
BLACK
6
CONTINUOUS
10
126.1653499999999894
20
-117.8960089999999923
11
126.117730999999992
21
-117.9912470000000013
0
LINE
8
BLACK
6
CONTINUOUS
10
127.117730999999992
20
-118.4198189999999897
11
127.117730999999992
21
-117.753152
0
LINE
8
BLACK
6
CONTINUOUS
10
127.117730999999992
20
-117.8483899999999949
11
127.1653499999999894
21
-117.8007709999999975
0
LINE
8
BLACK
6
CONTINUOUS
10
127.1653499999999894
20
-117.8007709999999975
11
127.2605879999999985
21
-117.753152
0
LINE
8
BLACK
6
CONTINUOUS
10
127.2605879999999985
20
-117.753152
11
127.4034449999999907
21
-117.753152
0
LINE
8
BLACK
6
CONTINUOUS
10
127.4034449999999907
20
-117.753152
11
127.4986829999999998
21
-117.8007709999999975
0
LINE
8
BLACK
6
CONTINUOUS
10
127.4986829999999998
20
-117.8007709999999975
11
127.5463019999999972
21
-117.8960089999999923
0
LINE
8
BLACK
6
CONTINUOUS
10
127.5463019999999972
20
-117.8960089999999923
11
127.5463019999999972
21
-118.4198189999999897
0
LINE
8
BLACK
6
CONTINUOUS
10
127.5463019999999972
20
-117.8960089999999923
11
127.5939209999999946
21
-117.8007709999999975
0
LINE
8
BLACK
6
CONTINUOUS
10
127.5939209999999946
20
-117.8007709999999975
11
127.6891589999999894
21
-117.753152
0
LINE
8
BLACK
6
CONTINUOUS
10
127.6891589999999894
20
-117.753152
11
127.8320159999999959
21
-117.753152
0
LINE
8
BLACK
6
CONTINUOUS
10
127.8320159999999959
20
-117.753152
11
127.9272549999999882
21
-117.8007709999999975
0
LINE
8
BLACK
6
CONTINUOUS
10
127.9272549999999882
20
-117.8007709999999975
11
127.9748739999999998
21
-117.8960089999999923
0
LINE
8
BLACK
6
CONTINUOUS
10
127.9748739999999998
20
-117.8960089999999923
11
127.9748739999999998
21
-118.4198189999999897
0
LINE
8
BLACK
6
CONTINUOUS
10
128.4510640000000024
20
-118.4198189999999897
11
128.4510640000000024
21
-117.753152
0
LINE
8
BLACK
6
CONTINUOUS
10
128.4510640000000024
20
-117.8483899999999949
11
128.4986829999999998
21
-117.8007709999999975
0
LINE
8
BLACK
6
CONTINUOUS
10
128.4986829999999998
20
-117.8007709999999975
11
128.5939209999999946
21
-117.753152
0
LINE
8
BLACK
6
CONTINUOUS
10
128.5939209999999946
20
-117.753152
11
128.7367779999999868
21
-117.753152
0
LINE
8
BLACK
6
CONTINUOUS
10
128.7367779999999868
20
-117.753152
11
128.8320159999999817
21
-117.8007709999999975
0
LINE
8
BLACK
6
CONTINUOUS
10
128.8320159999999817
20
-117.8007709999999975
11
128.8796350000000075
21
-117.8960089999999923
0
LINE
8
BLACK
6
CONTINUOUS
10
128.8796350000000075
20
-117.8960089999999923
11
128.8796350000000075
21
-118.4198189999999897
0
LINE
8
BLACK
6
CONTINUOUS
10
128.8796350000000075
20
-117.8960089999999923
11
128.9272540000000049
21
-117.8007709999999975
0
LINE
8
BLACK
6
CONTINUOUS
10
128.9272540000000049
20
-117.8007709999999975
11
129.0224919999999997
21
-117.753152
0
LINE
8
BLACK
6
CONTINUOUS
10
129.0224919999999997
20
-117.753152
11
129.165348999999992
21
-117.753152
0
LINE
8
BLACK
6
CONTINUOUS
10
129.165348999999992
20
-117.753152
11
129.2605879999999843
21
-117.8007709999999975
0
LINE
8
BLACK
6
CONTINUOUS
10
129.2605879999999843
20
-117.8007709999999975
11
129.3082069999999817
21
-117.8960089999999923
0
LINE
8
BLACK
6
CONTINUOUS
10
129.3082069999999817
20
-117.8960089999999923
11
129.3082069999999817
21
-118.4198189999999897
0
LINE
8
BLACK
6
CONTINUOUS
10
130.9748730000000023
20
-118.4198189999999897
11
130.9748730000000023
21
-117.4198189999999897
0
LINE
8
BLACK
6
CONTINUOUS
10
130.9748730000000023
20
-118.3721999999999923
11
130.8796350000000075
21
-118.4198189999999897
0
LINE
8
BLACK
6
CONTINUOUS
10
130.8796350000000075
20
-118.4198189999999897
11
130.6891589999999894
21
-118.4198189999999897
0
LINE
8
BLACK
6
CONTINUOUS
10
130.6891589999999894
20
-118.4198189999999897
11
130.5939209999999946
21
-118.3721999999999923
0
LINE
8
BLACK
6
CONTINUOUS
10
130.5939209999999946
20
-118.3721999999999923
11
130.5463019999999972
21
-118.3245799999999974
0
LINE
8
BLACK
6
CONTINUOUS
10
130.5463019999999972
20
-118.3245799999999974
11
130.4986829999999998
21
-118.2293419999999884
0
LINE
8
BLACK
6
CONTINUOUS
10
130.4986829999999998
20
-118.2293419999999884
11
130.4986829999999998
21
-117.9436279999999897
0
LINE
8
BLACK
6
CONTINUOUS
10
130.4986829999999998
20
-117.9436279999999897
11
130.5463019999999972
21
-117.8483899999999949
0
LINE
8
BLACK
6
CONTINUOUS
10
130.5463019999999972
20
-117.8483899999999949
11
130.5939209999999946
21
-117.8007709999999975
0
LINE
8
BLACK
6
CONTINUOUS
10
130.5939209999999946
20
-117.8007709999999975
11
130.6891589999999894
21
-117.753152
0
LINE
8
BLACK
6
CONTINUOUS
10
130.6891589999999894
20
-117.753152
11
130.8796350000000075
21
-117.753152
0
LINE
8
BLACK
6
CONTINUOUS
10
130.8796350000000075
20
-117.753152
11
130.9748730000000023
21
-117.8007709999999975
0
LINE
8
BLACK
6
CONTINUOUS
10
131.4510640000000024
20
-118.4198189999999897
11
131.4510640000000024
21
-117.753152
0
LINE
8
BLACK
6
CONTINUOUS
10
131.4510640000000024
20
-117.4198189999999897
11
131.4034450000000049
21
-117.4674380000000014
0
LINE
8
BLACK
6
CONTINUOUS
10
131.4034450000000049
20
-117.4674380000000014
11
131.4510640000000024
21
-117.5150569999999988
0
LINE
8
BLACK
6
CONTINUOUS
10
131.4510640000000024
20
-117.5150569999999988
11
131.4986829999999998
21
-117.4674380000000014
0
LINE
8
BLACK
6
CONTINUOUS
10
131.4986829999999998
20
-117.4674380000000014
11
131.4510640000000024
21
-117.4198189999999897
0
LINE
8
BLACK
6
CONTINUOUS
10
131.4510640000000024
20
-117.4198189999999897
11
131.4510640000000024
21
-117.5150569999999988
0
LINE
8
BLACK
6
CONTINUOUS
10
132.3558249999999816
20
-118.4198189999999897
11
132.3558249999999816
21
-117.8960089999999923
0
LINE
8
BLACK
6
CONTINUOUS
10
132.3558249999999816
20
-117.8960089999999923
11
132.3082059999999842
21
-117.8007709999999975
0
LINE
8
BLACK
6
CONTINUOUS
10
132.3082059999999842
20
-117.8007709999999975
11
132.2129679999999894
21
-117.753152
0
LINE
8
BLACK
6
CONTINUOUS
10
132.2129679999999894
20
-117.753152
11
132.0224919999999997
21
-117.753152
0
LINE
8
BLACK
6
CONTINUOUS
10
132.0224919999999997
20
-117.753152
11
131.9272540000000049
21
-117.8007709999999975
0
LINE
8
BLACK
6
CONTINUOUS
10
132.3558249999999816
20
-118.3721999999999923
11
132.2605869999999868
21
-118.4198189999999897
0
LINE
8
BLACK
6
CONTINUOUS
10
132.2605869999999868
20
-118.4198189999999897
11
132.0224919999999997
21
-118.4198189999999897
0
LINE
8
BLACK
6
CONTINUOUS
10
132.0224919999999997
20
-118.4198189999999897
11
131.9272540000000049
21
-118.3721999999999923
0
LINE
8
BLACK
6
CONTINUOUS
10
131.9272540000000049
20
-118.3721999999999923
11
131.8796350000000075
21
-118.276961
0
LINE
8
BLACK
6
CONTINUOUS
10
131.8796350000000075
20
-118.276961
11
131.8796350000000075
21
-118.181722999999991
0
LINE
8
BLACK
6
CONTINUOUS
10
131.8796350000000075
20
-118.181722999999991
11
131.9272540000000049
21
-118.0864849999999961
0
LINE
8
BLACK
6
CONTINUOUS
10
131.9272540000000049
20
-118.0864849999999961
11
132.0224919999999997
21
-118.0388659999999987
0
LINE
8
BLACK
6
CONTINUOUS
10
132.0224919999999997
20
-118.0388659999999987
11
132.2605869999999868
21
-118.0388659999999987
0
LINE
8
BLACK
6
CONTINUOUS
10
132.2605869999999868
20
-118.0388659999999987
11
132.3558249999999816
21
-117.9912470000000013
0
LINE
8
BLACK
6
CONTINUOUS
10
132.8320159999999817
20
-118.4198189999999897
11
132.8320159999999817
21
-117.753152
0
LINE
8
BLACK
6
CONTINUOUS
10
132.8320159999999817
20
-117.8483899999999949
11
132.8796350000000075
21
-117.8007709999999975
0
LINE
8
BLACK
6
CONTINUOUS
10
132.8796350000000075
20
-117.8007709999999975
11
132.9748730000000023
21
-117.753152
0
LINE
8
BLACK
6
CONTINUOUS
10
132.9748730000000023
20
-117.753152
11
133.1177299999999946
21
-117.753152
0
LINE
8
BLACK
6
CONTINUOUS
10
133.1177299999999946
20
-117.753152
11
133.2129679999999894
21
-117.8007709999999975
0
LINE
8
BLACK
6
CONTINUOUS
10
133.2129679999999894
20
-117.8007709999999975
11
133.2605869999999868
21
-117.8960089999999923
0
LINE
8
BLACK
6
CONTINUOUS
10
133.2605869999999868
20
-117.8960089999999923
11
133.2605869999999868
21
-118.4198189999999897
0
LINE
8
BLACK
6
CONTINUOUS
10
133.2605869999999868
20
-117.8960089999999923
11
133.3082059999999842
21
-117.8007709999999975
0
LINE
8
BLACK
6
CONTINUOUS
10
133.3082059999999842
20
-117.8007709999999975
11
133.4034440000000075
21
-117.753152
0
LINE
8
BLACK
6
CONTINUOUS
10
133.4034440000000075
20
-117.753152
11
133.5463009999999997
21
-117.753152
0
LINE
8
BLACK
6
CONTINUOUS
10
133.5463009999999997
20
-117.753152
11
133.641539999999992
21
-117.8007709999999975
0
LINE
8
BLACK
6
CONTINUOUS
10
133.641539999999992
20
-117.8007709999999975
11
133.6891589999999894
21
-117.8960089999999923
0
LINE
8
BLACK
6
CONTINUOUS
10
133.6891589999999894
20
-117.8960089999999923
11
133.6891589999999894
21
-118.4198189999999897
0
LINE
8
BLACK
6
CONTINUOUS
10
134.0582069999999817
20
-125.5245800000000003
11
134.0105879999999843
21
-125.5721999999999952
0
LINE
8
BLACK
6
CONTINUOUS
10
134.0105879999999843
20
-125.5721999999999952
11
133.867730999999992
21
-125.6198189999999926
0
LINE
8
BLACK
6
CONTINUOUS
10
133.867730999999992
20
-125.6198189999999926
11
133.7724929999999972
21
-125.6198189999999926
0
LINE
8
BLACK
6
CONTINUOUS
10
133.7724929999999972
20
-125.6198189999999926
11
133.629636000000005
21
-125.5721999999999952
0
LINE
8
BLACK
6
CONTINUOUS
10
133.629636000000005
20
-125.5721999999999952
11
133.5343979999999817
21
-125.4769609999999886
0
LINE
8
BLACK
6
CONTINUOUS
10
133.5343979999999817
20
-125.4769609999999886
11
133.4867789999999843
21
-125.3817229999999938
0
LINE
8
BLACK
6
CONTINUOUS
10
133.4867789999999843
20
-125.3817229999999938
11
133.4391599999999869
21
-125.19124699999999
0
LINE
8
BLACK
6
CONTINUOUS
10
133.4391599999999869
20
-125.19124699999999
11
133.4391599999999869
21
-125.0483899999999977
0
LINE
8
BLACK
6
CONTINUOUS
10
133.4391599999999869
20
-125.0483899999999977
11
133.4867789999999843
21
-124.8579139999999938
0
LINE
8
BLACK
6
CONTINUOUS
10
133.4867789999999843
20
-124.8579139999999938
11
133.5343979999999817
21
-124.762675999999999
0
LINE
8
BLACK
6
CONTINUOUS
10
133.5343979999999817
20
-124.762675999999999
11
133.629636000000005
21
-124.66743799999999
0
LINE
8
BLACK
6
CONTINUOUS
10
133.629636000000005
20
-124.66743799999999
11
133.7724929999999972
21
-124.6198189999999926
0
LINE
8
BLACK
6
CONTINUOUS
10
133.7724929999999972
20
-124.6198189999999926
11
133.867730999999992
21
-124.6198189999999926
0
LINE
8
BLACK
6
CONTINUOUS
10
133.867730999999992
20
-124.6198189999999926
11
134.0105879999999843
21
-124.66743799999999
0
LINE
8
BLACK
6
CONTINUOUS
10
134.0105879999999843
20
-124.66743799999999
11
134.0582069999999817
21
-124.7150569999999874
0
LINE
8
BLACK
6
CONTINUOUS
10
134.4391599999999869
20
-125.3341039999999964
11
134.9153499999999894
21
-125.3341039999999964
0
LINE
8
BLACK
6
CONTINUOUS
10
134.3439219999999921
20
-125.6198189999999926
11
134.6772550000000024
21
-124.6198189999999926
0
LINE
8
BLACK
6
CONTINUOUS
10
134.6772550000000024
20
-124.6198189999999926
11
135.0105879999999843
21
-125.6198189999999926
0
LINE
8
BLACK
6
CONTINUOUS
10
135.3439219999999921
20
-125.6198189999999926
11
135.3439219999999921
21
-124.6198189999999926
0
LINE
8
BLACK
6
CONTINUOUS
10
135.3439219999999921
20
-124.6198189999999926
11
135.7248739999999998
21
-124.6198189999999926
0
LINE
8
BLACK
6
CONTINUOUS
10
135.7248739999999998
20
-124.6198189999999926
11
135.8201119999999946
21
-124.66743799999999
0
LINE
8
BLACK
6
CONTINUOUS
10
135.8201119999999946
20
-124.66743799999999
11
135.867730999999992
21
-124.7150569999999874
0
LINE
8
BLACK
6
CONTINUOUS
10
135.867730999999992
20
-124.7150569999999874
11
135.9153499999999894
21
-124.8102949999999964
0
LINE
8
BLACK
6
CONTINUOUS
10
135.9153499999999894
20
-124.8102949999999964
11
135.9153499999999894
21
-124.9531519999999887
0
LINE
8
BLACK
6
CONTINUOUS
10
135.9153499999999894
20
-124.9531519999999887
11
135.867730999999992
21
-125.0483899999999977
0
LINE
8
BLACK
6
CONTINUOUS
10
135.867730999999992
20
-125.0483899999999977
11
135.8201119999999946
21
-125.0960089999999951
0
LINE
8
BLACK
6
CONTINUOUS
10
135.8201119999999946
20
-125.0960089999999951
11
135.7248739999999998
21
-125.1436279999999925
0
LINE
8
BLACK
6
CONTINUOUS
10
135.7248739999999998
20
-125.1436279999999925
11
135.3439219999999921
21
-125.1436279999999925
0
LINE
8
BLACK
6
CONTINUOUS
10
147.7153500000000008
20
-58.9031519999999986
11
147.7153500000000008
21
-59.5698189999999954
0
LINE
8
BLACK
6
CONTINUOUS
10
147.4772549999999853
20
-58.522199999999998
11
147.2391599999999983
21
-59.2364849999999947
0
LINE
8
BLACK
6
CONTINUOUS
10
147.2391599999999983
20
-59.2364849999999947
11
147.8582069999999931
21
-59.2364849999999947
0
LINE
8
BLACK
6
CONTINUOUS
10
148.2391599999999983
20
-59.474579999999996
11
148.2867789999999957
21
-59.522199999999998
0
LINE
8
BLACK
6
CONTINUOUS
10
148.2867789999999957
20
-59.522199999999998
11
148.2391599999999983
21
-59.5698189999999954
0
LINE
8
BLACK
6
CONTINUOUS
10
148.2391599999999983
20
-59.5698189999999954
11
148.1915410000000008
21
-59.522199999999998
0
LINE
8
BLACK
6
CONTINUOUS
10
148.1915410000000008
20
-59.522199999999998
11
148.2391599999999983
21
-59.474579999999996
0
LINE
8
BLACK
6
CONTINUOUS
10
148.2391599999999983
20
-59.474579999999996
11
148.2391599999999983
21
-59.5698189999999954
0
LINE
8
BLACK
6
CONTINUOUS
10
149.143921000000006
20
-58.9031519999999986
11
149.143921000000006
21
-59.5698189999999954
0
LINE
8
BLACK
6
CONTINUOUS
10
148.9058259999999905
20
-58.522199999999998
11
148.6677310000000034
21
-59.2364849999999947
0
LINE
8
BLACK
6
CONTINUOUS
10
148.6677310000000034
20
-59.2364849999999947
11
149.2867779999999982
21
-59.2364849999999947
0
LINE
8
BLACK
6
CONTINUOUS
10
149.6677310000000034
20
-59.5698189999999954
11
149.6677310000000034
21
-58.9031519999999986
0
LINE
8
BLACK
6
CONTINUOUS
10
149.6677310000000034
20
-58.9983900000000006
11
149.7153500000000008
21
-58.950770999999996
0
LINE
8
BLACK
6
CONTINUOUS
10
149.7153500000000008
20
-58.950770999999996
11
149.8105879999999956
21
-58.9031519999999986
0
LINE
8
BLACK
6
CONTINUOUS
10
149.8105879999999956
20
-58.9031519999999986
11
149.9534449999999879
21
-58.9031519999999986
0
LINE
8
BLACK
6
CONTINUOUS
10
149.9534449999999879
20
-58.9031519999999986
11
150.0486829999999827
21
-58.950770999999996
0
LINE
8
BLACK
6
CONTINUOUS
10
150.0486829999999827
20
-58.950770999999996
11
150.0963019999999801
21
-59.046008999999998
0
LINE
8
BLACK
6
CONTINUOUS
10
150.0963019999999801
20
-59.046008999999998
11
150.0963019999999801
21
-59.5698189999999954
0
LINE
8
BLACK
6
CONTINUOUS
10
150.0963019999999801
20
-59.046008999999998
11
150.143921000000006
21
-58.950770999999996
0
LINE
8
BLACK
6
CONTINUOUS
10
150.143921000000006
20
-58.950770999999996
11
150.2391590000000008
21
-58.9031519999999986
0
LINE
8
BLACK
6
CONTINUOUS
10
150.2391590000000008
20
-58.9031519999999986
11
150.382015999999993
21
-58.9031519999999986
0
LINE
8
BLACK
6
CONTINUOUS
10
150.382015999999993
20
-58.9031519999999986
11
150.4772549999999853
21
-58.950770999999996
0
LINE
8
BLACK
6
CONTINUOUS
10
150.4772549999999853
20
-58.950770999999996
11
150.5248739999999827
21
-59.046008999999998
0
LINE
8
BLACK
6
CONTINUOUS
10
150.5248739999999827
20
-59.046008999999998
11
150.5248739999999827
21
-59.5698189999999954
0
LINE
8
BLACK
6
CONTINUOUS
10
151.0010639999999853
20
-59.5698189999999954
11
151.0010639999999853
21
-58.9031519999999986
0
LINE
8
BLACK
6
CONTINUOUS
10
151.0010639999999853
20
-58.9983900000000006
11
151.0486829999999827
21
-58.950770999999996
0
LINE
8
BLACK
6
CONTINUOUS
10
151.0486829999999827
20
-58.950770999999996
11
151.143921000000006
21
-58.9031519999999986
0
LINE
8
BLACK
6
CONTINUOUS
10
151.143921000000006
20
-58.9031519999999986
11
151.2867779999999982
21
-58.9031519999999986
0
LINE
8
BLACK
6
CONTINUOUS
10
151.2867779999999982
20
-58.9031519999999986
11
151.382015999999993
21
-58.950770999999996
0
LINE
8
BLACK
6
CONTINUOUS
10
151.382015999999993
20
-58.950770999999996
11
151.4296349999999904
21
-59.046008999999998
0
LINE
8
BLACK
6
CONTINUOUS
10
151.4296349999999904
20
-59.046008999999998
11
151.4296349999999904
21
-59.5698189999999954
0
LINE
8
BLACK
6
CONTINUOUS
10
151.4296349999999904
20
-59.046008999999998
11
151.4772539999999879
21
-58.950770999999996
0
LINE
8
BLACK
6
CONTINUOUS
10
151.4772539999999879
20
-58.950770999999996
11
151.5724919999999827
21
-58.9031519999999986
0
LINE
8
BLACK
6
CONTINUOUS
10
151.5724919999999827
20
-58.9031519999999986
11
151.7153490000000033
21
-58.9031519999999986
0
LINE
8
BLACK
6
CONTINUOUS
10
151.7153490000000033
20
-58.9031519999999986
11
151.8105879999999956
21
-58.950770999999996
0
LINE
8
BLACK
6
CONTINUOUS
10
151.8105879999999956
20
-58.950770999999996
11
151.8582069999999931
21
-59.046008999999998
0
LINE
8
BLACK
6
CONTINUOUS
10
151.8582069999999931
20
-59.046008999999998
11
151.8582069999999931
21
-59.5698189999999954
0
LINE
8
BLACK
6
CONTINUOUS
10
153.5248729999999853
20
-59.5698189999999954
11
153.5248729999999853
21
-58.5698189999999954
0
LINE
8
BLACK
6
CONTINUOUS
10
153.5248729999999853
20
-59.522199999999998
11
153.4296349999999904
21
-59.5698189999999954
0
LINE
8
BLACK
6
CONTINUOUS
10
153.4296349999999904
20
-59.5698189999999954
11
153.2391590000000008
21
-59.5698189999999954
0
LINE
8
BLACK
6
CONTINUOUS
10
153.2391590000000008
20
-59.5698189999999954
11
153.143921000000006
21
-59.522199999999998
0
LINE
8
BLACK
6
CONTINUOUS
10
153.143921000000006
20
-59.522199999999998
11
153.0963019999999801
21
-59.474579999999996
0
LINE
8
BLACK
6
CONTINUOUS
10
153.0963019999999801
20
-59.474579999999996
11
153.0486829999999827
21
-59.3793419999999941
0
LINE
8
BLACK
6
CONTINUOUS
10
153.0486829999999827
20
-59.3793419999999941
11
153.0486829999999827
21
-59.0936279999999954
0
LINE
8
BLACK
6
CONTINUOUS
10
153.0486829999999827
20
-59.0936279999999954
11
153.0963019999999801
21
-58.9983900000000006
0
LINE
8
BLACK
6
CONTINUOUS
10
153.0963019999999801
20
-58.9983900000000006
11
153.143921000000006
21
-58.950770999999996
0
LINE
8
BLACK
6
CONTINUOUS
10
153.143921000000006
20
-58.950770999999996
11
153.2391590000000008
21
-58.9031519999999986
0
LINE
8
BLACK
6
CONTINUOUS
10
153.2391590000000008
20
-58.9031519999999986
11
153.4296349999999904
21
-58.9031519999999986
0
LINE
8
BLACK
6
CONTINUOUS
10
153.4296349999999904
20
-58.9031519999999986
11
153.5248729999999853
21
-58.950770999999996
0
LINE
8
BLACK
6
CONTINUOUS
10
154.0010639999999853
20
-59.5698189999999954
11
154.0010639999999853
21
-58.9031519999999986
0
LINE
8
BLACK
6
CONTINUOUS
10
154.0010639999999853
20
-58.5698189999999954
11
153.9534449999999879
21
-58.6174379999999999
0
LINE
8
BLACK
6
CONTINUOUS
10
153.9534449999999879
20
-58.6174379999999999
11
154.0010639999999853
21
-58.6650569999999973
0
LINE
8
BLACK
6
CONTINUOUS
10
154.0010639999999853
20
-58.6650569999999973
11
154.0486829999999827
21
-58.6174379999999999
0
LINE
8
BLACK
6
CONTINUOUS
10
154.0486829999999827
20
-58.6174379999999999
11
154.0010639999999853
21
-58.5698189999999954
0
LINE
8
BLACK
6
CONTINUOUS
10
154.0010639999999853
20
-58.5698189999999954
11
154.0010639999999853
21
-58.6650569999999973
0
LINE
8
BLACK
6
CONTINUOUS
10
154.905824999999993
20
-59.5698189999999954
11
154.905824999999993
21
-59.046008999999998
0
LINE
8
BLACK
6
CONTINUOUS
10
154.905824999999993
20
-59.046008999999998
11
154.8582059999999956
21
-58.950770999999996
0
LINE
8
BLACK
6
CONTINUOUS
10
154.8582059999999956
20
-58.950770999999996
11
154.7629680000000008
21
-58.9031519999999986
0
LINE
8
BLACK
6
CONTINUOUS
10
154.7629680000000008
20
-58.9031519999999986
11
154.5724919999999827
21
-58.9031519999999986
0
LINE
8
BLACK
6
CONTINUOUS
10
154.5724919999999827
20
-58.9031519999999986
11
154.4772539999999879
21
-58.950770999999996
0
LINE
8
BLACK
6
CONTINUOUS
10
154.905824999999993
20
-59.522199999999998
11
154.8105869999999982
21
-59.5698189999999954
0
LINE
8
BLACK
6
CONTINUOUS
10
154.8105869999999982
20
-59.5698189999999954
11
154.5724919999999827
21
-59.5698189999999954
0
LINE
8
BLACK
6
CONTINUOUS
10
154.5724919999999827
20
-59.5698189999999954
11
154.4772539999999879
21
-59.522199999999998
0
LINE
8
BLACK
6
CONTINUOUS
10
154.4772539999999879
20
-59.522199999999998
11
154.4296349999999904
21
-59.4269609999999986
0
LINE
8
BLACK
6
CONTINUOUS
10
154.4296349999999904
20
-59.4269609999999986
11
154.4296349999999904
21
-59.3317229999999967
0
LINE
8
BLACK
6
CONTINUOUS
10
154.4296349999999904
20
-59.3317229999999967
11
154.4772539999999879
21
-59.2364849999999947
0
LINE
8
BLACK
6
CONTINUOUS
10
154.4772539999999879
20
-59.2364849999999947
11
154.5724919999999827
21
-59.1888659999999973
0
LINE
8
BLACK
6
CONTINUOUS
10
154.5724919999999827
20
-59.1888659999999973
11
154.8105869999999982
21
-59.1888659999999973
0
LINE
8
BLACK
6
CONTINUOUS
10
154.8105869999999982
20
-59.1888659999999973
11
154.905824999999993
21
-59.1412469999999999
0
LINE
8
BLACK
6
CONTINUOUS
10
155.382015999999993
20
-59.5698189999999954
11
155.382015999999993
21
-58.9031519999999986
0
LINE
8
BLACK
6
CONTINUOUS
10
155.382015999999993
20
-58.9983900000000006
11
155.4296349999999904
21
-58.950770999999996
0
LINE
8
BLACK
6
CONTINUOUS
10
155.4296349999999904
20
-58.950770999999996
11
155.5248729999999853
21
-58.9031519999999986
0
LINE
8
BLACK
6
CONTINUOUS
10
155.5248729999999853
20
-58.9031519999999986
11
155.6677300000000059
21
-58.9031519999999986
0
LINE
8
BLACK
6
CONTINUOUS
10
155.6677300000000059
20
-58.9031519999999986
11
155.7629680000000008
21
-58.950770999999996
0
LINE
8
BLACK
6
CONTINUOUS
10
155.7629680000000008
20
-58.950770999999996
11
155.8105869999999982
21
-59.046008999999998
0
LINE
8
BLACK
6
CONTINUOUS
10
155.8105869999999982
20
-59.046008999999998
11
155.8105869999999982
21
-59.5698189999999954
0
LINE
8
BLACK
6
CONTINUOUS
10
155.8105869999999982
20
-59.046008999999998
11
155.8582059999999956
21
-58.950770999999996
0
LINE
8
BLACK
6
CONTINUOUS
10
155.8582059999999956
20
-58.950770999999996
11
155.9534439999999904
21
-58.9031519999999986
0
LINE
8
BLACK
6
CONTINUOUS
10
155.9534439999999904
20
-58.9031519999999986
11
156.0963009999999827
21
-58.9031519999999986
0
LINE
8
BLACK
6
CONTINUOUS
10
156.0963009999999827
20
-58.9031519999999986
11
156.1915400000000034
21
-58.950770999999996
0
LINE
8
BLACK
6
CONTINUOUS
10
156.1915400000000034
20
-58.950770999999996
11
156.2391590000000008
21
-59.046008999999998
0
LINE
8
BLACK
6
CONTINUOUS
10
156.2391590000000008
20
-59.046008999999998
11
156.2391590000000008
21
-59.5698189999999954
0
LINE
8
BLACK
6
CONTINUOUS
10
157.1653499999999894
20
-115.6031519999999944
11
157.1653499999999894
21
-116.2698189999999983
0
LINE
8
BLACK
6
CONTINUOUS
10
156.9272550000000024
20
-115.2222000000000008
11
156.6891599999999869
21
-115.9364849999999905
0
LINE
8
BLACK
6
CONTINUOUS
10
156.6891599999999869
20
-115.9364849999999905
11
157.3082069999999817
21
-115.9364849999999905
0
LINE
8
BLACK
6
CONTINUOUS
10
157.6891599999999869
20
-116.1745799999999917
11
157.7367789999999843
21
-116.2222000000000008
0
LINE
8
BLACK
6
CONTINUOUS
10
157.7367789999999843
20
-116.2222000000000008
11
157.6891599999999869
21
-116.2698189999999983
0
LINE
8
BLACK
6
CONTINUOUS
10
157.6891599999999869
20
-116.2698189999999983
11
157.6415409999999895
21
-116.2222000000000008
0
LINE
8
BLACK
6
CONTINUOUS
10
157.6415409999999895
20
-116.2222000000000008
11
157.6891599999999869
21
-116.1745799999999917
0
LINE
8
BLACK
6
CONTINUOUS
10
157.6891599999999869
20
-116.1745799999999917
11
157.6891599999999869
21
-116.2698189999999983
0
LINE
8
BLACK
6
CONTINUOUS
10
158.5939209999999946
20
-115.6031519999999944
11
158.5939209999999946
21
-116.2698189999999983
0
LINE
8
BLACK
6
CONTINUOUS
10
158.3558259999999791
20
-115.2222000000000008
11
158.117730999999992
21
-115.9364849999999905
0
LINE
8
BLACK
6
CONTINUOUS
10
158.117730999999992
20
-115.9364849999999905
11
158.7367779999999868
21
-115.9364849999999905
0
LINE
8
BLACK
6
CONTINUOUS
10
159.117730999999992
20
-116.2698189999999983
11
159.117730999999992
21
-115.6031519999999944
0
LINE
8
BLACK
6
CONTINUOUS
10
159.117730999999992
20
-115.6983899999999892
11
159.1653499999999894
21
-115.6507709999999918
0
LINE
8
BLACK
6
CONTINUOUS
10
159.1653499999999894
20
-115.6507709999999918
11
159.2605879999999843
21
-115.6031519999999944
0
LINE
8
BLACK
6
CONTINUOUS
10
159.2605879999999843
20
-115.6031519999999944
11
159.4034450000000049
21
-115.6031519999999944
0
LINE
8
BLACK
6
CONTINUOUS
10
159.4034450000000049
20
-115.6031519999999944
11
159.4986829999999998
21
-115.6507709999999918
0
LINE
8
BLACK
6
CONTINUOUS
10
159.4986829999999998
20
-115.6507709999999918
11
159.5463019999999972
21
-115.7460090000000008
0
LINE
8
BLACK
6
CONTINUOUS
10
159.5463019999999972
20
-115.7460090000000008
11
159.5463019999999972
21
-116.2698189999999983
0
LINE
8
BLACK
6
CONTINUOUS
10
159.5463019999999972
20
-115.7460090000000008
11
159.5939209999999946
21
-115.6507709999999918
0
LINE
8
BLACK
6
CONTINUOUS
10
159.5939209999999946
20
-115.6507709999999918
11
159.6891589999999894
21
-115.6031519999999944
0
LINE
8
BLACK
6
CONTINUOUS
10
159.6891589999999894
20
-115.6031519999999944
11
159.8320159999999817
21
-115.6031519999999944
0
LINE
8
BLACK
6
CONTINUOUS
10
159.8320159999999817
20
-115.6031519999999944
11
159.9272550000000024
21
-115.6507709999999918
0
LINE
8
BLACK
6
CONTINUOUS
10
159.9272550000000024
20
-115.6507709999999918
11
159.9748739999999998
21
-115.7460090000000008
0
LINE
8
BLACK
6
CONTINUOUS
10
159.9748739999999998
20
-115.7460090000000008
11
159.9748739999999998
21
-116.2698189999999983
0
LINE
8
BLACK
6
CONTINUOUS
10
160.4510640000000024
20
-116.2698189999999983
11
160.4510640000000024
21
-115.6031519999999944
0
LINE
8
BLACK
6
CONTINUOUS
10
160.4510640000000024
20
-115.6983899999999892
11
160.4986829999999998
21
-115.6507709999999918
0
LINE
8
BLACK
6
CONTINUOUS
10
160.4986829999999998
20
-115.6507709999999918
11
160.5939209999999946
21
-115.6031519999999944
0
LINE
8
BLACK
6
CONTINUOUS
10
160.5939209999999946
20
-115.6031519999999944
11
160.7367779999999868
21
-115.6031519999999944
0
LINE
8
BLACK
6
CONTINUOUS
10
160.7367779999999868
20
-115.6031519999999944
11
160.8320159999999817
21
-115.6507709999999918
0
LINE
8
BLACK
6
CONTINUOUS
10
160.8320159999999817
20
-115.6507709999999918
11
160.8796349999999791
21
-115.7460090000000008
0
LINE
8
BLACK
6
CONTINUOUS
10
160.8796349999999791
20
-115.7460090000000008
11
160.8796349999999791
21
-116.2698189999999983
0
LINE
8
BLACK
6
CONTINUOUS
10
160.8796349999999791
20
-115.7460090000000008
11
160.9272540000000049
21
-115.6507709999999918
0
LINE
8
BLACK
6
CONTINUOUS
10
160.9272540000000049
20
-115.6507709999999918
11
161.0224919999999997
21
-115.6031519999999944
0
LINE
8
BLACK
6
CONTINUOUS
10
161.0224919999999997
20
-115.6031519999999944
11
161.165348999999992
21
-115.6031519999999944
0
LINE
8
BLACK
6
CONTINUOUS
10
161.165348999999992
20
-115.6031519999999944
11
161.2605879999999843
21
-115.6507709999999918
0
LINE
8
BLACK
6
CONTINUOUS
10
161.2605879999999843
20
-115.6507709999999918
11
161.3082069999999817
21
-115.7460090000000008
0
LINE
8
BLACK
6
CONTINUOUS
10
161.3082069999999817
20
-115.7460090000000008
11
161.3082069999999817
21
-116.2698189999999983
0
LINE
8
BLACK
6
CONTINUOUS
10
162.9748730000000023
20
-116.2698189999999983
11
162.9748730000000023
21
-115.2698189999999983
0
LINE
8
BLACK
6
CONTINUOUS
10
162.9748730000000023
20
-116.2222000000000008
11
162.8796349999999791
21
-116.2698189999999983
0
LINE
8
BLACK
6
CONTINUOUS
10
162.8796349999999791
20
-116.2698189999999983
11
162.6891589999999894
21
-116.2698189999999983
0
LINE
8
BLACK
6
CONTINUOUS
10
162.6891589999999894
20
-116.2698189999999983
11
162.5939209999999946
21
-116.2222000000000008
0
LINE
8
BLACK
6
CONTINUOUS
10
162.5939209999999946
20
-116.2222000000000008
11
162.5463019999999972
21
-116.1745799999999917
0
LINE
8
BLACK
6
CONTINUOUS
10
162.5463019999999972
20
-116.1745799999999917
11
162.4986829999999998
21
-116.0793419999999969
0
LINE
8
BLACK
6
CONTINUOUS
10
162.4986829999999998
20
-116.0793419999999969
11
162.4986829999999998
21
-115.7936279999999982
0
LINE
8
BLACK
6
CONTINUOUS
10
162.4986829999999998
20
-115.7936279999999982
11
162.5463019999999972
21
-115.6983899999999892
0
LINE
8
BLACK
6
CONTINUOUS
10
162.5463019999999972
20
-115.6983899999999892
11
162.5939209999999946
21
-115.6507709999999918
0
LINE
8
BLACK
6
CONTINUOUS
10
162.5939209999999946
20
-115.6507709999999918
11
162.6891589999999894
21
-115.6031519999999944
0
LINE
8
BLACK
6
CONTINUOUS
10
162.6891589999999894
20
-115.6031519999999944
11
162.8796349999999791
21
-115.6031519999999944
0
LINE
8
BLACK
6
CONTINUOUS
10
162.8796349999999791
20
-115.6031519999999944
11
162.9748730000000023
21
-115.6507709999999918
0
LINE
8
BLACK
6
CONTINUOUS
10
163.4510640000000024
20
-116.2698189999999983
11
163.4510640000000024
21
-115.6031519999999944
0
LINE
8
BLACK
6
CONTINUOUS
10
163.4510640000000024
20
-115.2698189999999983
11
163.4034450000000049
21
-115.3174379999999957
0
LINE
8
BLACK
6
CONTINUOUS
10
163.4034450000000049
20
-115.3174379999999957
11
163.4510640000000024
21
-115.3650569999999931
0
LINE
8
BLACK
6
CONTINUOUS
10
163.4510640000000024
20
-115.3650569999999931
11
163.4986829999999998
21
-115.3174379999999957
0
LINE
8
BLACK
6
CONTINUOUS
10
163.4986829999999998
20
-115.3174379999999957
11
163.4510640000000024
21
-115.2698189999999983
0
LINE
8
BLACK
6
CONTINUOUS
10
163.4510640000000024
20
-115.2698189999999983
11
163.4510640000000024
21
-115.3650569999999931
0
LINE
8
BLACK
6
CONTINUOUS
10
164.3558249999999816
20
-116.2698189999999983
11
164.3558249999999816
21
-115.7460090000000008
0
LINE
8
BLACK
6
CONTINUOUS
10
164.3558249999999816
20
-115.7460090000000008
11
164.3082059999999842
21
-115.6507709999999918
0
LINE
8
BLACK
6
CONTINUOUS
10
164.3082059999999842
20
-115.6507709999999918
11
164.2129679999999894
21
-115.6031519999999944
0
LINE
8
BLACK
6
CONTINUOUS
10
164.2129679999999894
20
-115.6031519999999944
11
164.0224919999999997
21
-115.6031519999999944
0
LINE
8
BLACK
6
CONTINUOUS
10
164.0224919999999997
20
-115.6031519999999944
11
163.9272540000000049
21
-115.6507709999999918
0
LINE
8
BLACK
6
CONTINUOUS
10
164.3558249999999816
20
-116.2222000000000008
11
164.2605869999999868
21
-116.2698189999999983
0
LINE
8
BLACK
6
CONTINUOUS
10
164.2605869999999868
20
-116.2698189999999983
11
164.0224919999999997
21
-116.2698189999999983
0
LINE
8
BLACK
6
CONTINUOUS
10
164.0224919999999997
20
-116.2698189999999983
11
163.9272540000000049
21
-116.2222000000000008
0
LINE
8
BLACK
6
CONTINUOUS
10
163.9272540000000049
20
-116.2222000000000008
11
163.8796349999999791
21
-116.1269609999999943
0
LINE
8
BLACK
6
CONTINUOUS
10
163.8796349999999791
20
-116.1269609999999943
11
163.8796349999999791
21
-116.0317229999999995
0
LINE
8
BLACK
6
CONTINUOUS
10
163.8796349999999791
20
-116.0317229999999995
11
163.9272540000000049
21
-115.9364849999999905
0
LINE
8
BLACK
6
CONTINUOUS
10
163.9272540000000049
20
-115.9364849999999905
11
164.0224919999999997
21
-115.8888659999999931
0
LINE
8
BLACK
6
CONTINUOUS
10
164.0224919999999997
20
-115.8888659999999931
11
164.2605869999999868
21
-115.8888659999999931
0
LINE
8
BLACK
6
CONTINUOUS
10
164.2605869999999868
20
-115.8888659999999931
11
164.3558249999999816
21
-115.8412469999999956
0
LINE
8
BLACK
6
CONTINUOUS
10
164.8320159999999817
20
-116.2698189999999983
11
164.8320159999999817
21
-115.6031519999999944
0
LINE
8
BLACK
6
CONTINUOUS
10
164.8320159999999817
20
-115.6983899999999892
11
164.8796349999999791
21
-115.6507709999999918
0
LINE
8
BLACK
6
CONTINUOUS
10
164.8796349999999791
20
-115.6507709999999918
11
164.9748730000000023
21
-115.6031519999999944
0
LINE
8
BLACK
6
CONTINUOUS
10
164.9748730000000023
20
-115.6031519999999944
11
165.1177299999999946
21
-115.6031519999999944
0
LINE
8
BLACK
6
CONTINUOUS
10
165.1177299999999946
20
-115.6031519999999944
11
165.2129679999999894
21
-115.6507709999999918
0
LINE
8
BLACK
6
CONTINUOUS
10
165.2129679999999894
20
-115.6507709999999918
11
165.2605869999999868
21
-115.7460090000000008
0
LINE
8
BLACK
6
CONTINUOUS
10
165.2605869999999868
20
-115.7460090000000008
11
165.2605869999999868
21
-116.2698189999999983
0
LINE
8
BLACK
6
CONTINUOUS
10
165.2605869999999868
20
-115.7460090000000008
11
165.3082059999999842
21
-115.6507709999999918
0
LINE
8
BLACK
6
CONTINUOUS
10
165.3082059999999842
20
-115.6507709999999918
11
165.403443999999979
21
-115.6031519999999944
0
LINE
8
BLACK
6
CONTINUOUS
10
165.403443999999979
20
-115.6031519999999944
11
165.5463009999999997
21
-115.6031519999999944
0
LINE
8
BLACK
6
CONTINUOUS
10
165.5463009999999997
20
-115.6031519999999944
11
165.641539999999992
21
-115.6507709999999918
0
LINE
8
BLACK
6
CONTINUOUS
10
165.641539999999992
20
-115.6507709999999918
11
165.6891589999999894
21
-115.7460090000000008
0
LINE
8
BLACK
6
CONTINUOUS
10
165.6891589999999894
20
-115.7460090000000008
11
165.6891589999999894
21
-116.2698189999999983
0
LINE
8
BLACK
6
CONTINUOUS
10
123.3701119999999918
20
-121.796008999999998
11
123.0367789999999957
21
-121.796008999999998
0
LINE
8
BLACK
6
CONTINUOUS
10
123.0367789999999957
20
-122.3198189999999954
11
123.0367789999999957
21
-121.3198189999999954
0
LINE
8
BLACK
6
CONTINUOUS
10
123.0367789999999957
20
-121.3198189999999954
11
123.5129689999999982
21
-121.3198189999999954
0
LINE
8
BLACK
6
CONTINUOUS
10
123.8939219999999892
20
-121.3198189999999954
11
123.8939219999999892
21
-122.1293419999999941
0
LINE
8
BLACK
6
CONTINUOUS
10
123.8939219999999892
20
-122.1293419999999941
11
123.9415410000000008
21
-122.2245799999999889
0
LINE
8
BLACK
6
CONTINUOUS
10
123.9415410000000008
20
-122.2245799999999889
11
123.9891599999999983
21
-122.272199999999998
0
LINE
8
BLACK
6
CONTINUOUS
10
123.9891599999999983
20
-122.272199999999998
11
124.0843979999999931
21
-122.3198189999999954
0
LINE
8
BLACK
6
CONTINUOUS
10
124.0843979999999931
20
-122.3198189999999954
11
124.274873999999997
21
-122.3198189999999954
0
LINE
8
BLACK
6
CONTINUOUS
10
124.274873999999997
20
-122.3198189999999954
11
124.3701119999999918
21
-122.272199999999998
0
LINE
8
BLACK
6
CONTINUOUS
10
124.3701119999999918
20
-122.272199999999998
11
124.4177309999999892
21
-122.2245799999999889
0
LINE
8
BLACK
6
CONTINUOUS
10
124.4177309999999892
20
-122.2245799999999889
11
124.4653500000000008
21
-122.1293419999999941
0
LINE
8
BLACK
6
CONTINUOUS
10
124.4653500000000008
20
-122.1293419999999941
11
124.4653500000000008
21
-121.3198189999999954
0
LINE
8
BLACK
6
CONTINUOUS
10
124.8939219999999892
20
-122.272199999999998
11
125.0367789999999957
21
-122.3198189999999954
0
LINE
8
BLACK
6
CONTINUOUS
10
125.0367789999999957
20
-122.3198189999999954
11
125.274873999999997
21
-122.3198189999999954
0
LINE
8
BLACK
6
CONTINUOUS
10
125.274873999999997
20
-122.3198189999999954
11
125.3701119999999918
21
-122.272199999999998
0
LINE
8
BLACK
6
CONTINUOUS
10
125.3701119999999918
20
-122.272199999999998
11
125.4177309999999892
21
-122.2245799999999889
0
LINE
8
BLACK
6
CONTINUOUS
10
125.4177309999999892
20
-122.2245799999999889
11
125.4653500000000008
21
-122.1293419999999941
0
LINE
8
BLACK
6
CONTINUOUS
10
125.4653500000000008
20
-122.1293419999999941
11
125.4653500000000008
21
-122.0341039999999992
0
LINE
8
BLACK
6
CONTINUOUS
10
125.4653500000000008
20
-122.0341039999999992
11
125.4177309999999892
21
-121.9388659999999902
0
LINE
8
BLACK
6
CONTINUOUS
10
125.4177309999999892
20
-121.9388659999999902
11
125.3701119999999918
21
-121.8912469999999928
0
LINE
8
BLACK
6
CONTINUOUS
10
125.3701119999999918
20
-121.8912469999999928
11
125.274873999999997
21
-121.8436279999999954
0
LINE
8
BLACK
6
CONTINUOUS
10
125.274873999999997
20
-121.8436279999999954
11
125.0843979999999931
21
-121.796008999999998
0
LINE
8
BLACK
6
CONTINUOUS
10
125.0843979999999931
20
-121.796008999999998
11
124.9891599999999983
21
-121.7483900000000006
0
LINE
8
BLACK
6
CONTINUOUS
10
124.9891599999999983
20
-121.7483900000000006
11
124.9415410000000008
21
-121.7007709999999889
0
LINE
8
BLACK
6
CONTINUOUS
10
124.9415410000000008
20
-121.7007709999999889
11
124.8939219999999892
21
-121.6055329999999941
0
LINE
8
BLACK
6
CONTINUOUS
10
124.8939219999999892
20
-121.6055329999999941
11
124.8939219999999892
21
-121.5102949999999993
0
LINE
8
BLACK
6
CONTINUOUS
10
124.8939219999999892
20
-121.5102949999999993
11
124.9415410000000008
21
-121.4150569999999902
0
LINE
8
BLACK
6
CONTINUOUS
10
124.9415410000000008
20
-121.4150569999999902
11
124.9891599999999983
21
-121.3674379999999928
0
LINE
8
BLACK
6
CONTINUOUS
10
124.9891599999999983
20
-121.3674379999999928
11
125.0843979999999931
21
-121.3198189999999954
0
LINE
8
BLACK
6
CONTINUOUS
10
125.0843979999999931
20
-121.3198189999999954
11
125.3224929999999944
21
-121.3198189999999954
0
LINE
8
BLACK
6
CONTINUOUS
10
125.3224929999999944
20
-121.3198189999999954
11
125.4653500000000008
21
-121.3674379999999928
0
LINE
8
BLACK
6
CONTINUOUS
10
125.8939219999999892
20
-121.796008999999998
11
126.2272549999999995
21
-121.796008999999998
0
LINE
8
BLACK
6
CONTINUOUS
10
126.3701119999999918
20
-122.3198189999999954
11
125.8939219999999892
21
-122.3198189999999954
0
LINE
8
BLACK
6
CONTINUOUS
10
125.8939219999999892
20
-122.3198189999999954
11
125.8939219999999892
21
-121.3198189999999954
0
LINE
8
BLACK
6
CONTINUOUS
10
125.8939219999999892
20
-121.3198189999999954
11
126.3701119999999918
21
-121.3198189999999954
0
LINE
8
BLACK
6
CONTINUOUS
10
173.2891599999999812
20
-121.0650569999999959
11
173.3367789999999786
21
-121.0174379999999985
0
LINE
8
BLACK
6
CONTINUOUS
10
173.3367789999999786
20
-121.0174379999999985
11
173.4320170000000019
21
-120.9698190000000011
0
LINE
8
BLACK
6
CONTINUOUS
10
173.4320170000000019
20
-120.9698190000000011
11
173.6701119999999889
21
-120.9698190000000011
0
LINE
8
BLACK
6
CONTINUOUS
10
173.6701119999999889
20
-120.9698190000000011
11
173.7653499999999838
21
-121.0174379999999985
0
LINE
8
BLACK
6
CONTINUOUS
10
173.7653499999999838
20
-121.0174379999999985
11
173.8129689999999812
21
-121.0650569999999959
0
LINE
8
BLACK
6
CONTINUOUS
10
173.8129689999999812
20
-121.0650569999999959
11
173.8605879999999786
21
-121.1602949999999908
0
LINE
8
BLACK
6
CONTINUOUS
10
173.8605879999999786
20
-121.1602949999999908
11
173.8605879999999786
21
-121.2555329999999998
0
LINE
8
BLACK
6
CONTINUOUS
10
173.8605879999999786
20
-121.2555329999999998
11
173.8129689999999812
21
-121.398389999999992
0
LINE
8
BLACK
6
CONTINUOUS
10
173.8129689999999812
20
-121.398389999999992
11
173.2415409999999838
21
-121.9698190000000011
0
LINE
8
BLACK
6
CONTINUOUS
10
173.2415409999999838
20
-121.9698190000000011
11
173.8605879999999786
21
-121.9698190000000011
0
LINE
8
BLACK
6
CONTINUOUS
10
174.2891599999999812
20
-121.9698190000000011
11
174.2891599999999812
21
-121.3031519999999972
0
LINE
8
BLACK
6
CONTINUOUS
10
174.2891599999999812
20
-121.398389999999992
11
174.3367789999999786
21
-121.3507709999999946
0
LINE
8
BLACK
6
CONTINUOUS
10
174.3367789999999786
20
-121.3507709999999946
11
174.4320170000000019
21
-121.3031519999999972
0
LINE
8
BLACK
6
CONTINUOUS
10
174.4320170000000019
20
-121.3031519999999972
11
174.5748739999999941
21
-121.3031519999999972
0
LINE
8
BLACK
6
CONTINUOUS
10
174.5748739999999941
20
-121.3031519999999972
11
174.6701119999999889
21
-121.3507709999999946
0
LINE
8
BLACK
6
CONTINUOUS
10
174.6701119999999889
20
-121.3507709999999946
11
174.7177309999999864
21
-121.4460089999999894
0
LINE
8
BLACK
6
CONTINUOUS
10
174.7177309999999864
20
-121.4460089999999894
11
174.7177309999999864
21
-121.9698190000000011
0
LINE
8
BLACK
6
CONTINUOUS
10
174.7177309999999864
20
-121.4460089999999894
11
174.7653499999999838
21
-121.3507709999999946
0
LINE
8
BLACK
6
CONTINUOUS
10
174.7653499999999838
20
-121.3507709999999946
11
174.8605879999999786
21
-121.3031519999999972
0
LINE
8
BLACK
6
CONTINUOUS
10
174.8605879999999786
20
-121.3031519999999972
11
175.0034449999999993
21
-121.3031519999999972
0
LINE
8
BLACK
6
CONTINUOUS
10
175.0034449999999993
20
-121.3031519999999972
11
175.0986839999999916
21
-121.3507709999999946
0
LINE
8
BLACK
6
CONTINUOUS
10
175.0986839999999916
20
-121.3507709999999946
11
175.146302999999989
21
-121.4460089999999894
0
LINE
8
BLACK
6
CONTINUOUS
10
175.146302999999989
20
-121.4460089999999894
11
175.146302999999989
21
-121.9698190000000011
0
LINE
8
BLACK
6
CONTINUOUS
10
175.6224929999999915
20
-121.9698190000000011
11
175.6224929999999915
21
-121.3031519999999972
0
LINE
8
BLACK
6
CONTINUOUS
10
175.6224929999999915
20
-121.398389999999992
11
175.6701119999999889
21
-121.3507709999999946
0
LINE
8
BLACK
6
CONTINUOUS
10
175.6701119999999889
20
-121.3507709999999946
11
175.7653499999999838
21
-121.3031519999999972
0
LINE
8
BLACK
6
CONTINUOUS
10
175.7653499999999838
20
-121.3031519999999972
11
175.9082070000000044
21
-121.3031519999999972
0
LINE
8
BLACK
6
CONTINUOUS
10
175.9082070000000044
20
-121.3031519999999972
11
176.0034449999999993
21
-121.3507709999999946
0
LINE
8
BLACK
6
CONTINUOUS
10
176.0034449999999993
20
-121.3507709999999946
11
176.0510639999999967
21
-121.4460089999999894
0
LINE
8
BLACK
6
CONTINUOUS
10
176.0510639999999967
20
-121.4460089999999894
11
176.0510639999999967
21
-121.9698190000000011
0
LINE
8
BLACK
6
CONTINUOUS
10
176.0510639999999967
20
-121.4460089999999894
11
176.0986829999999941
21
-121.3507709999999946
0
LINE
8
BLACK
6
CONTINUOUS
10
176.0986829999999941
20
-121.3507709999999946
11
176.1939209999999889
21
-121.3031519999999972
0
LINE
8
BLACK
6
CONTINUOUS
10
176.1939209999999889
20
-121.3031519999999972
11
176.3367779999999811
21
-121.3031519999999972
0
LINE
8
BLACK
6
CONTINUOUS
10
176.3367779999999811
20
-121.3031519999999972
11
176.4320170000000019
21
-121.3507709999999946
0
LINE
8
BLACK
6
CONTINUOUS
10
176.4320170000000019
20
-121.3507709999999946
11
176.4796359999999993
21
-121.4460089999999894
0
LINE
8
BLACK
6
CONTINUOUS
10
176.4796359999999993
20
-121.4460089999999894
11
176.4796359999999993
21
-121.9698190000000011
0
LINE
8
BLACK
6
CONTINUOUS
10
178.1463019999999915
20
-121.9698190000000011
11
178.1463019999999915
21
-120.9698190000000011
0
LINE
8
BLACK
6
CONTINUOUS
10
178.1463019999999915
20
-121.9221999999999895
11
178.0510639999999967
21
-121.9698190000000011
0
LINE
8
BLACK
6
CONTINUOUS
10
178.0510639999999967
20
-121.9698190000000011
11
177.8605879999999786
21
-121.9698190000000011
0
LINE
8
BLACK
6
CONTINUOUS
10
177.8605879999999786
20
-121.9698190000000011
11
177.7653499999999838
21
-121.9221999999999895
0
LINE
8
BLACK
6
CONTINUOUS
10
177.7653499999999838
20
-121.9221999999999895
11
177.7177309999999864
21
-121.8745799999999946
0
LINE
8
BLACK
6
CONTINUOUS
10
177.7177309999999864
20
-121.8745799999999946
11
177.6701119999999889
21
-121.7793419999999998
0
LINE
8
BLACK
6
CONTINUOUS
10
177.6701119999999889
20
-121.7793419999999998
11
177.6701119999999889
21
-121.4936280000000011
0
LINE
8
BLACK
6
CONTINUOUS
10
177.6701119999999889
20
-121.4936280000000011
11
177.7177309999999864
21
-121.398389999999992
0
LINE
8
BLACK
6
CONTINUOUS
10
177.7177309999999864
20
-121.398389999999992
11
177.7653499999999838
21
-121.3507709999999946
0
LINE
8
BLACK
6
CONTINUOUS
10
177.7653499999999838
20
-121.3507709999999946
11
177.8605879999999786
21
-121.3031519999999972
0
LINE
8
BLACK
6
CONTINUOUS
10
177.8605879999999786
20
-121.3031519999999972
11
178.0510639999999967
21
-121.3031519999999972
0
LINE
8
BLACK
6
CONTINUOUS
10
178.0510639999999967
20
-121.3031519999999972
11
178.1463019999999915
21
-121.3507709999999946
0
LINE
8
BLACK
6
CONTINUOUS
10
178.6224929999999915
20
-121.9698190000000011
11
178.6224929999999915
21
-121.3031519999999972
0
LINE
8
BLACK
6
CONTINUOUS
10
178.6224929999999915
20
-120.9698190000000011
11
178.5748739999999941
21
-121.0174379999999985
0
LINE
8
BLACK
6
CONTINUOUS
10
178.5748739999999941
20
-121.0174379999999985
11
178.6224929999999915
21
-121.0650569999999959
0
LINE
8
BLACK
6
CONTINUOUS
10
178.6224929999999915
20
-121.0650569999999959
11
178.6701119999999889
21
-121.0174379999999985
0
LINE
8
BLACK
6
CONTINUOUS
10
178.6701119999999889
20
-121.0174379999999985
11
178.6224929999999915
21
-120.9698190000000011
0
LINE
8
BLACK
6
CONTINUOUS
10
178.6224929999999915
20
-120.9698190000000011
11
178.6224929999999915
21
-121.0650569999999959
0
LINE
8
BLACK
6
CONTINUOUS
10
179.5272539999999992
20
-121.9698190000000011
11
179.5272539999999992
21
-121.4460089999999894
0
LINE
8
BLACK
6
CONTINUOUS
10
179.5272539999999992
20
-121.4460089999999894
11
179.4796350000000018
21
-121.3507709999999946
0
LINE
8
BLACK
6
CONTINUOUS
10
179.4796350000000018
20
-121.3507709999999946
11
179.3843969999999786
21
-121.3031519999999972
0
LINE
8
BLACK
6
CONTINUOUS
10
179.3843969999999786
20
-121.3031519999999972
11
179.1939209999999889
21
-121.3031519999999972
0
LINE
8
BLACK
6
CONTINUOUS
10
179.1939209999999889
20
-121.3031519999999972
11
179.0986829999999941
21
-121.3507709999999946
0
LINE
8
BLACK
6
CONTINUOUS
10
179.5272539999999992
20
-121.9221999999999895
11
179.4320160000000044
21
-121.9698190000000011
0
LINE
8
BLACK
6
CONTINUOUS
10
179.4320160000000044
20
-121.9698190000000011
11
179.1939209999999889
21
-121.9698190000000011
0
LINE
8
BLACK
6
CONTINUOUS
10
179.1939209999999889
20
-121.9698190000000011
11
179.0986829999999941
21
-121.9221999999999895
0
LINE
8
BLACK
6
CONTINUOUS
10
179.0986829999999941
20
-121.9221999999999895
11
179.0510639999999967
21
-121.8269609999999972
0
LINE
8
BLACK
6
CONTINUOUS
10
179.0510639999999967
20
-121.8269609999999972
11
179.0510639999999967
21
-121.7317229999999881
0
LINE
8
BLACK
6
CONTINUOUS
10
179.0510639999999967
20
-121.7317229999999881
11
179.0986829999999941
21
-121.6364849999999933
0
LINE
8
BLACK
6
CONTINUOUS
10
179.0986829999999941
20
-121.6364849999999933
11
179.1939209999999889
21
-121.5888659999999959
0
LINE
8
BLACK
6
CONTINUOUS
10
179.1939209999999889
20
-121.5888659999999959
11
179.4320160000000044
21
-121.5888659999999959
0
LINE
8
BLACK
6
CONTINUOUS
10
179.4320160000000044
20
-121.5888659999999959
11
179.5272539999999992
21
-121.5412469999999985
0
LINE
8
BLACK
6
CONTINUOUS
10
180.0034449999999993
20
-121.9698190000000011
11
180.0034449999999993
21
-121.3031519999999972
0
LINE
8
BLACK
6
CONTINUOUS
10
180.0034449999999993
20
-121.398389999999992
11
180.0510639999999967
21
-121.3507709999999946
0
LINE
8
BLACK
6
CONTINUOUS
10
180.0510639999999967
20
-121.3507709999999946
11
180.1463019999999915
21
-121.3031519999999972
0
LINE
8
BLACK
6
CONTINUOUS
10
180.1463019999999915
20
-121.3031519999999972
11
180.2891589999999837
21
-121.3031519999999972
0
LINE
8
BLACK
6
CONTINUOUS
10
180.2891589999999837
20
-121.3031519999999972
11
180.3843969999999786
21
-121.3507709999999946
0
LINE
8
BLACK
6
CONTINUOUS
10
180.3843969999999786
20
-121.3507709999999946
11
180.4320160000000044
21
-121.4460089999999894
0
LINE
8
BLACK
6
CONTINUOUS
10
180.4320160000000044
20
-121.4460089999999894
11
180.4320160000000044
21
-121.9698190000000011
0
LINE
8
BLACK
6
CONTINUOUS
10
180.4320160000000044
20
-121.4460089999999894
11
180.4796350000000018
21
-121.3507709999999946
0
LINE
8
BLACK
6
CONTINUOUS
10
180.4796350000000018
20
-121.3507709999999946
11
180.5748729999999966
21
-121.3031519999999972
0
LINE
8
BLACK
6
CONTINUOUS
10
180.5748729999999966
20
-121.3031519999999972
11
180.7177299999999889
21
-121.3031519999999972
0
LINE
8
BLACK
6
CONTINUOUS
10
180.7177299999999889
20
-121.3031519999999972
11
180.8129689999999812
21
-121.3507709999999946
0
LINE
8
BLACK
6
CONTINUOUS
10
180.8129689999999812
20
-121.3507709999999946
11
180.8605879999999786
21
-121.4460089999999894
0
LINE
8
BLACK
6
CONTINUOUS
10
180.8605879999999786
20
-121.4460089999999894
11
180.8605879999999786
21
-121.9698190000000011
0
CIRCLE
8
BLACK
10
177.3499999999999943
20
-59.7999999999999972
40
1.5999989999999999
0
CIRCLE
8
BLACK
10
175.0600000000000023
20
-115.414999999999992
40
0.35
0
CIRCLE
8
BLACK
10
169.9799999999999898
20
-115.414999999999992
40
0.35
0
CIRCLE
8
BLACK
10
156.3499999999999943
20
-116.5450000000000017
40
2.199999
0
CIRCLE
8
BLACK
10
132.9499999999999886
20
-116.5450000000000017
40
0.875
0
CIRCLE
8
BLACK
10
175.0600000000000023
20
-109.1149999999999949
40
0.35
0
CIRCLE
8
BLACK
10
169.9799999999999898
20
-109.1149999999999949
40
0.35
0
CIRCLE
8
BLACK
10
144.2249999999999943
20
-147.
40
0.5
0
CIRCLE
8
BLACK
10
146.7649999999999864
20
-147.
40
0.5
0
CIRCLE
8
BLACK
10
177.8700000000000045
20
-117.7849999999999966
40
0.5
0
CIRCLE
8
BLACK
10
177.8700000000000045
20
-115.2449999999999903
40
0.5
0
CIRCLE
8
BLACK
10
177.8700000000000045
20
-112.7049999999999983
40
0.5
0
CIRCLE
8
BLACK
10
177.8700000000000045
20
-110.164999999999992
40
0.5
0
CIRCLE
8
BLACK
10
177.8700000000000045
20
-107.625
40
0.5
0
CIRCLE
8
BLACK
10
177.8700000000000045
20
-105.0849999999999937
40
0.5
0
CIRCLE
8
BLACK
10
177.8700000000000045
20
-102.5450000000000017
40
0.5
0
CIRCLE
8
BLACK
10
177.8700000000000045
20
-100.0049999999999955
40
0.5
0
CIRCLE
8
BLACK
10
177.8700000000000045
20
-97.4649999999999892
40
0.5
0
CIRCLE
8
BLACK
10
175.0600000000000023
20
-112.2650000000000006
40
0.35
0
CIRCLE
8
BLACK
10
169.9799999999999898
20
-112.2650000000000006
40
0.35
0
CIRCLE
8
BLACK
10
96.3079999999999927
20
-81.7000000000000028
40
0.5499999999999999
0
CIRCLE
8
BLACK
10
93.7680000000000007
20
-81.7000000000000028
40
0.5499999999999999
0
CIRCLE
8
BLACK
10
91.2279999999999944
20
-81.7000000000000028
40
0.5499999999999999
0
CIRCLE
8
BLACK
10
89.4599999999999937
20
-53.5
40
0.5
0
CIRCLE
8
BLACK
10
92.
20
-53.5
40
0.5
0
CIRCLE
8
BLACK
10
94.539999999999992
20
-53.5
40
0.5
0
CIRCLE
8
BLACK
10
97.0799999999999983
20
-53.5
40
0.5
0
CIRCLE
8
BLACK
10
99.6199999999999903
20
-53.5
40
0.5
0
CIRCLE
8
BLACK
10
102.1599999999999966
20
-53.5
40
0.5
0
CIRCLE
8
BLACK
10
104.6999999999999886
20
-53.5
40
0.5
0
CIRCLE
8
BLACK
10
107.2399999999999949
20
-53.5
40
0.5
0
CIRCLE
8
BLACK
10
109.7800000000000011
20
-53.5
40
0.5
0
CIRCLE
8
BLACK
10
112.3199999999999932
20
-53.5
40
0.5
0
CIRCLE
8
BLACK
10
114.8599999999999994
20
-53.5
40
0.5
0
CIRCLE
8
BLACK
10
117.3999999999999915
20
-53.5
40
0.5
0
CIRCLE
8
BLACK
10
119.9399999999999977
20
-53.5
40
0.5
0
CIRCLE
8
BLACK
10
122.4799999999999898
20
-53.5
40
0.5
0
CIRCLE
8
BLACK
10
125.019999999999996
20
-53.5
40
0.5
0
CIRCLE
8
BLACK
10
127.5599999999999881
20
-53.5
40
0.5
0
CIRCLE
8
BLACK
10
130.0999999999999943
20
-53.5
40
0.5
0
CIRCLE
8
BLACK
10
132.6399999999999864
20
-53.5
40
0.5
0
CIRCLE
8
BLACK
10
135.1800000000000068
20
-53.5
40
0.5
0
CIRCLE
8
BLACK
10
137.7199999999999989
20
-53.5
40
0.5
0
CIRCLE
8
BLACK
10
140.2599999999999909
20
-53.5
40
0.5
0
CIRCLE
8
BLACK
10
142.7999999999999829
20
-53.5
40
0.5
0
CIRCLE
8
BLACK
10
145.3400000000000034
20
-53.5
40
0.5
0
CIRCLE
8
BLACK
10
147.8799999999999955
20
-53.5
40
0.5
0
CIRCLE
8
BLACK
10
150.4199999999999875
20
-53.5
40
0.5
0
CIRCLE
8
BLACK
10
152.9599999999999795
20
-53.5
40
0.5
0
CIRCLE
8
BLACK
10
155.5
20
-53.5
40
0.5
0
CIRCLE
8
BLACK
10
158.039999999999992
20
-53.5
40
0.5
0
CIRCLE
8
BLACK
10
160.5799999999999841
20
-53.5
40
0.5
0
CIRCLE
8
BLACK
10
163.1200000000000045
20
-53.5
40
0.5
0
CIRCLE
8
BLACK
10
165.6599999999999966
20
-53.5
40
0.5
0
CIRCLE
8
BLACK
10
168.1999999999999886
20
-53.5
40
0.5
0
CIRCLE
8
BLACK
10
170.7399999999999807
20
-53.5
40
0.5
0
CIRCLE
8
BLACK
10
173.2800000000000011
20
-53.5
40
0.5
0
CIRCLE
8
BLACK
10
175.8199999999999932
20
-53.5
40
0.5
0
CIRCLE
8
BLACK
10
178.3599999999999852
20
-53.5
40
0.5
0
CIRCLE
8
BLACK
10
160.3160000000000025
20
-81.7000000000000028
40
0.5499999999999999
0
CIRCLE
8
BLACK
10
157.775999999999982
20
-81.7000000000000028
40
0.5499999999999999
0
CIRCLE
8
BLACK
10
155.23599999999999
20
-81.7000000000000028
40
0.5499999999999999
0
CIRCLE
8
BLACK
10
138.5499999999999829
20
-144.0024999999999977
40
0.65
0
CIRCLE
8
BLACK
10
133.5499999999999829
20
-144.0024999999999977
40
0.65
0
CIRCLE
8
BLACK
10
124.25
20
-118.5
40
1.3499989999999999
0
CIRCLE
8
BLACK
10
124.25
20
-107.25
40
0.65
0
CIRCLE
8
BLACK
10
124.25
20
-129.75
40
0.65
0
CIRCLE
8
BLACK
10
127.0499999999999972
20
-144.
40
0.65
0
CIRCLE
8
BLACK
10
122.0499999999999972
20
-144.
40
0.65
0
CIRCLE
8
BLACK
10
133.5999999999999943
20
-125.4026509999999917
40
0.4
0
CIRCLE
8
BLACK
10
133.5999999999999943
20
-121.6026509999999945
40
0.4
0
CIRCLE
8
BLACK
10
149.6479999999999961
20
-81.7000000000000028
40
0.5499999999999999
0
CIRCLE
8
BLACK
10
147.1080000000000041
20
-81.7000000000000028
40
0.5499999999999999
0
CIRCLE
8
BLACK
10
144.5679999999999836
20
-81.7000000000000028
40
0.5499999999999999
0
CIRCLE
8
BLACK
10
146.8499999999999943
20
-122.2249999999999943
40
0.999999
0
CIRCLE
8
BLACK
10
172.8499999999999943
20
-122.0249999999999915
40
0.999999
0
CIRCLE
8
BLACK
10
172.8499999999999943
20
-140.0250000000000057
40
0.999999
0
CIRCLE
8
BLACK
10
117.6439999999999912
20
-81.7000000000000028
40
0.5499999999999999
0
CIRCLE
8
BLACK
10
115.1039999999999992
20
-81.7000000000000028
40
0.5499999999999999
0
CIRCLE
8
BLACK
10
112.563999999999993
20
-81.7000000000000028
40
0.5499999999999999
0
CIRCLE
8
BLACK
10
128.3119999999999834
20
-81.7000000000000028
40
0.5499999999999999
0
CIRCLE
8
BLACK
10
125.7719999999999914
20
-81.7000000000000028
40
0.5499999999999999
0
CIRCLE
8
BLACK
10
123.2319999999999993
20
-81.7000000000000028
40
0.5499999999999999
0
CIRCLE
8
BLACK
10
84.2000000000000028
20
-52.7999999999999972
40
1.5999989999999999
0
CIRCLE
8
BLACK
10
85.25
20
-147.0649999999999977
40
0.5
0
CIRCLE
8
BLACK
10
85.25
20
-144.5250000000000057
40
0.5
0
CIRCLE
8
BLACK
10
85.25
20
-141.9849999999999852
40
0.5
0
CIRCLE
8
BLACK
10
85.25
20
-139.4449999999999932
40
0.5
0
CIRCLE
8
BLACK
10
85.25
20
-136.9050000000000011
40
0.5
0
CIRCLE
8
BLACK
10
85.25
20
-134.3649999999999807
40
0.5
0
CIRCLE
8
BLACK
10
85.25
20
-131.8249999999999886
40
0.5
0
CIRCLE
8
BLACK
10
85.25
20
-129.2849999999999966
40
0.5
0
CIRCLE
8
BLACK
10
85.25
20
-126.7449999999999903
40
0.5
0
CIRCLE
8
BLACK
10
85.25
20
-124.2049999999999983
40
0.5
0
CIRCLE
8
BLACK
10
85.25
20
-121.664999999999992
40
0.5
0
CIRCLE
8
BLACK
10
85.25
20
-119.125
40
0.5
0
CIRCLE
8
BLACK
10
85.25
20
-116.5849999999999937
40
0.5
0
CIRCLE
8
BLACK
10
85.25
20
-114.0450000000000017
40
0.5
0
CIRCLE
8
BLACK
10
85.25
20
-111.5049999999999955
40
0.5
0
CIRCLE
8
BLACK
10
85.25
20
-108.9649999999999892
40
0.5
0
CIRCLE
8
BLACK
10
85.25
20
-106.4249999999999972
40
0.5
0
CIRCLE
8
BLACK
10
85.25
20
-103.8849999999999909
40
0.5
0
CIRCLE
8
BLACK
10
85.25
20
-101.3449999999999989
40
0.5
0
CIRCLE
8
BLACK
10
85.25
20
-98.8049999999999926
40
0.5
0
CIRCLE
8
BLACK
10
85.25
20
-96.2650000000000006
40
0.5
0
CIRCLE
8
BLACK
10
85.25
20
-93.7249999999999943
40
0.5
0
CIRCLE
8
BLACK
10
85.25
20
-91.1850000000000023
40
0.5
0
CIRCLE
8
BLACK
10
85.25
20
-88.644999999999996
40
0.5
0
CIRCLE
8
BLACK
10
85.25
20
-86.1049999999999898
40
0.5
0
CIRCLE
8
BLACK
10
85.25
20
-83.5649999999999977
40
0.5
0
CIRCLE
8
BLACK
10
85.25
20
-81.0249999999999915
40
0.5
0
CIRCLE
8
BLACK
10
85.25
20
-78.4849999999999994
40
0.5
0
CIRCLE
8
BLACK
10
85.25
20
-75.9449999999999932
40
0.5
0
CIRCLE
8
BLACK
10
85.25
20
-73.4050000000000011
40
0.5
0
CIRCLE
8
BLACK
10
85.25
20
-70.8649999999999949
40
0.5
0
CIRCLE
8
BLACK
10
85.25
20
-68.3250000000000028
40
0.5
0
CIRCLE
8
BLACK
10
85.25
20
-65.7849999999999966
40
0.5
0
CIRCLE
8
BLACK
10
85.25
20
-63.2449999999999974
40
0.5
0
CIRCLE
8
BLACK
10
85.25
20
-60.7049999999999983
40
0.5
0
CIRCLE
8
BLACK
10
85.25
20
-58.1649999999999991
40
0.5
0
CIRCLE
8
BLACK
10
177.5
20
-145.75
40
1.5999989999999999
0
CIRCLE
8
BLACK
10
175.0600000000000023
20
-118.5649999999999977
40
0.35
0
CIRCLE
8
BLACK
10
169.9799999999999898
20
-118.5649999999999977
40
0.35
0
CIRCLE
8
BLACK
10
90.5
20
-145.
40
1.5999989999999999
0
CIRCLE
8
BLACK
10
151.5
20
-147.
40
0.5
0
CIRCLE
8
BLACK
10
154.039999999999992
20
-147.
40
0.5
0
CIRCLE
8
BLACK
10
103.7999999999999972
20
-144.0499999999999829
40
0.65
0
CIRCLE
8
BLACK
10
98.7999999999999972
20
-144.0499999999999829
40
0.65
0
CIRCLE
8
BLACK
10
164.2299999999999898
20
-59.9099999999999966
40
0.5
0
CIRCLE
8
BLACK
10
166.7699999999999818
20
-59.9099999999999966
40
0.5
0
CIRCLE
8
BLACK
10
169.3100000000000023
20
-59.9099999999999966
40
0.5
0
CIRCLE
8
BLACK
10
171.8499999999999943
20
-59.9099999999999966
40
0.5
0
CIRCLE
8
BLACK
10
138.9799999999999898
20
-81.7000000000000028
40
0.5499999999999999
0
CIRCLE
8
BLACK
10
136.4399999999999977
20
-81.7000000000000028
40
0.5499999999999999
0
CIRCLE
8
BLACK
10
133.9000000000000057
20
-81.7000000000000028
40
0.5499999999999999
0
CIRCLE
8
BLACK
10
106.9759999999999991
20
-81.7659999999999911
40
0.5499999999999999
0
CIRCLE
8
BLACK
10
104.4359999999999928
20
-81.7659999999999911
40
0.5499999999999999
0
CIRCLE
8
BLACK
10
101.8960000000000008
20
-81.7659999999999911
40
0.5499999999999999
0
CIRCLE
8
BLACK
10
146.9000000000000057
20
-59.75
40
2.199999
0
CIRCLE
8
BLACK
10
123.5
20
-59.75
40
0.875
0
CIRCLE
8
BLACK
10
115.2999999999999972
20
-144.
40
0.65
0
CIRCLE
8
BLACK
10
110.2999999999999972
20
-144.
40
0.65
0
CIRCLE
8
BLACK
10
143.7750000000000057
20
-127.25
40
0.5
0
CIRCLE
8
BLACK
10
143.7750000000000057
20
-129.789999999999992
40
0.5
0
CIRCLE
8
BLACK
10
143.7750000000000057
20
-132.3299999999999841
40
0.5
0
CIRCLE
8
BLACK
10
143.7750000000000057
20
-134.8700000000000045
40
0.5
  0
ENDSEC
  0
EOF
