  0
SECTION
  2
HEADER
  9
$ANGBASE
  50
0.0
  9
$ANGDIR
  70
1
  9
$MEASUREMENT
  70
1
  0
ENDSEC
  0
SECTION
  2
TABLES
  0
TABLE
  2
LTYPE
  70
4
  0
LTYPE
  5
40F
  2
CONTINUOUS
  70
0
  3
Solid line
  72
65
  73
0
  40
0.0
  0
LTYPE
  5
410
  2
DASHDOT
 70
0
  3
Dash Dot ____ _ ____ _
 72
65
 73
4
 40
2.0
 49
1.25
 49
-0.25
 49
0.25
 49
-0.25
  0
LTYPE
  5
411
  2
DASHED
 70
0
  3
Dashed __ __ __ __ __
 72
65
 73
2
 40
0.75
 49
0.5
 49
-0.25
  0
LTYPE
  5
43B
  2
DOTTED
 70
0
  3
Dotted .  .  .  .
 72
65
 73
2
 40
0.2
 49
0.0
 49
-0.2
  0
ENDTAB
  0
TABLE
  2
STYLE
  70
4
  0
STYLE
  2
KICAD
  70
0
  40
0
  41
1
  42
1
  50
0
  71
0
  3
isocp.shx
  0
STYLE
  2
KICADB
  70
0
  40
0
  41
1
  42
1
  50
0
  71
0
  3
isocp.shx
  0
STYLE
  2
KICADI
  70
0
  40
0
  41
1
  42
1
  50
15
  71
0
  3
isocp.shx
  0
STYLE
  2
KICADBI
  70
0
  40
0
  41
1
  42
1
  50
15
  71
0
  3
isocp.shx
  0
ENDTAB
  0
TABLE
  2
LAYER
  70
1
  0
LAYER
  2
BLACK
  70
0
  62
7
  6
CONTINUOUS
  0
ENDTAB
  0
ENDSEC
  0
SECTION
  2
ENTITIES
0
LINE
8
BLACK
6
CONTINUOUS
10
80.5674999999999955
20
-49.1999999999999957
11
180.5674999999999955
21
-49.1999999999999957
0
LINE
8
BLACK
6
CONTINUOUS
10
180.5674999999999955
20
-49.1999999999999957
11
180.5674999999999955
21
-149.1999999999999886
0
LINE
8
BLACK
6
CONTINUOUS
10
180.5674999999999955
20
-149.1999999999999886
11
80.5674999999999955
21
-149.1999999999999886
0
LINE
8
BLACK
6
CONTINUOUS
10
80.5674999999999955
20
-149.1999999999999886
11
80.5674999999999955
21
-49.1999999999999957
0
CIRCLE
8
BLACK
10
112.625
20
-142.914999999999992
40
0.65
0
CIRCLE
8
BLACK
10
117.625
20
-142.914999999999992
40
0.65
0
CIRCLE
8
BLACK
10
161.4000000000000057
20
-144.9399999999999977
40
0.5
0
CIRCLE
8
BLACK
10
158.8599999999999852
20
-144.9399999999999977
40
0.5
0
CIRCLE
8
BLACK
10
156.3199999999999932
20
-144.9399999999999977
40
0.5
0
CIRCLE
8
BLACK
10
140.8299999999999841
20
-132.7999999999999829
40
0.4
0
CIRCLE
8
BLACK
10
130.6699999999999875
20
-132.7999999999999829
40
0.4
0
CIRCLE
8
BLACK
10
154.3299999999999841
20
-140.0999999999999943
40
0.4
0
CIRCLE
8
BLACK
10
144.1699999999999875
20
-140.0999999999999943
40
0.4
0
CIRCLE
8
BLACK
10
174.2099999999999795
20
-126.2999999999999972
40
0.65
0
CIRCLE
8
BLACK
10
174.2099999999999795
20
-121.2999999999999972
40
0.65
0
CIRCLE
8
BLACK
10
176.1399999999999864
20
-102.625
40
0.45
0
CIRCLE
8
BLACK
10
176.1399999999999864
20
-100.0849999999999937
40
0.45
0
CIRCLE
8
BLACK
10
165.539999999999992
20
-101.9473489999999885
40
0.5499999999999999
0
CIRCLE
8
BLACK
10
165.539999999999992
20
-99.4073489999999964
40
0.5499999999999999
0
CIRCLE
8
BLACK
10
165.539999999999992
20
-96.8673489999999902
40
0.5499999999999999
0
CIRCLE
8
BLACK
10
138.2299999999999898
20
-129.6999999999999886
40
0.4
0
CIRCLE
8
BLACK
10
128.0699999999999932
20
-129.6999999999999886
40
0.4
0
CIRCLE
8
BLACK
10
89.4599999999999937
20
-53.5
40
0.5
0
CIRCLE
8
BLACK
10
92.
20
-53.5
40
0.5
0
CIRCLE
8
BLACK
10
94.539999999999992
20
-53.5
40
0.5
0
CIRCLE
8
BLACK
10
97.0799999999999983
20
-53.5
40
0.5
0
CIRCLE
8
BLACK
10
99.6199999999999903
20
-53.5
40
0.5
0
CIRCLE
8
BLACK
10
102.1599999999999966
20
-53.5
40
0.5
0
CIRCLE
8
BLACK
10
104.6999999999999886
20
-53.5
40
0.5
0
CIRCLE
8
BLACK
10
107.2399999999999949
20
-53.5
40
0.5
0
CIRCLE
8
BLACK
10
109.7800000000000011
20
-53.5
40
0.5
0
CIRCLE
8
BLACK
10
112.3199999999999932
20
-53.5
40
0.5
0
CIRCLE
8
BLACK
10
114.8599999999999994
20
-53.5
40
0.5
0
CIRCLE
8
BLACK
10
117.3999999999999915
20
-53.5
40
0.5
0
CIRCLE
8
BLACK
10
119.9399999999999977
20
-53.5
40
0.5
0
CIRCLE
8
BLACK
10
122.4799999999999898
20
-53.5
40
0.5
0
CIRCLE
8
BLACK
10
125.019999999999996
20
-53.5
40
0.5
0
CIRCLE
8
BLACK
10
127.5599999999999881
20
-53.5
40
0.5
0
CIRCLE
8
BLACK
10
130.0999999999999943
20
-53.5
40
0.5
0
CIRCLE
8
BLACK
10
132.6399999999999864
20
-53.5
40
0.5
0
CIRCLE
8
BLACK
10
135.1800000000000068
20
-53.5
40
0.5
0
CIRCLE
8
BLACK
10
137.7199999999999989
20
-53.5
40
0.5
0
CIRCLE
8
BLACK
10
140.2599999999999909
20
-53.5
40
0.5
0
CIRCLE
8
BLACK
10
142.7999999999999829
20
-53.5
40
0.5
0
CIRCLE
8
BLACK
10
145.3400000000000034
20
-53.5
40
0.5
0
CIRCLE
8
BLACK
10
147.8799999999999955
20
-53.5
40
0.5
0
CIRCLE
8
BLACK
10
150.4199999999999875
20
-53.5
40
0.5
0
CIRCLE
8
BLACK
10
152.9599999999999795
20
-53.5
40
0.5
0
CIRCLE
8
BLACK
10
155.5
20
-53.5
40
0.5
0
CIRCLE
8
BLACK
10
158.039999999999992
20
-53.5
40
0.5
0
CIRCLE
8
BLACK
10
160.5799999999999841
20
-53.5
40
0.5
0
CIRCLE
8
BLACK
10
163.1200000000000045
20
-53.5
40
0.5
0
CIRCLE
8
BLACK
10
165.6599999999999966
20
-53.5
40
0.5
0
CIRCLE
8
BLACK
10
168.1999999999999886
20
-53.5
40
0.5
0
CIRCLE
8
BLACK
10
170.7399999999999807
20
-53.5
40
0.5
0
CIRCLE
8
BLACK
10
173.2800000000000011
20
-53.5
40
0.5
0
CIRCLE
8
BLACK
10
175.8199999999999932
20
-53.5
40
0.5
0
CIRCLE
8
BLACK
10
178.3599999999999852
20
-53.5
40
0.5
0
CIRCLE
8
BLACK
10
138.2750000000000057
20
-96.8063489999999973
40
0.5499999999999999
0
CIRCLE
8
BLACK
10
138.2750000000000057
20
-99.3463489999999894
40
0.5499999999999999
0
CIRCLE
8
BLACK
10
138.2750000000000057
20
-101.8863489999999956
40
0.5499999999999999
0
CIRCLE
8
BLACK
10
152.3499999999999943
20
-129.8249999999999886
40
0.65
0
CIRCLE
8
BLACK
10
152.3499999999999943
20
-107.3249999999999886
40
0.65
0
CIRCLE
8
BLACK
10
174.5499999999999829
20
-67.2000000000000028
40
0.65
0
CIRCLE
8
BLACK
10
174.5499999999999829
20
-62.1999999999999957
40
0.65
0
CIRCLE
8
BLACK
10
170.9123490000000061
20
-113.5749999999999886
40
0.4
0
CIRCLE
8
BLACK
10
174.712348999999989
20
-113.5749999999999886
40
0.4
0
CIRCLE
8
BLACK
10
138.2750000000000057
20
-107.324348999999998
40
0.5499999999999999
0
CIRCLE
8
BLACK
10
138.2750000000000057
20
-109.86434899999999
40
0.5499999999999999
0
CIRCLE
8
BLACK
10
138.2750000000000057
20
-112.4043489999999963
40
0.5499999999999999
0
CIRCLE
8
BLACK
10
127.4499999999999886
20
-60.3999999999999986
40
1.3499989999999999
0
CIRCLE
8
BLACK
10
153.4499999999999886
20
-60.1999999999999957
40
1.3499989999999999
0
CIRCLE
8
BLACK
10
153.4499999999999886
20
-78.2000000000000028
40
1.3499989999999999
0
CIRCLE
8
BLACK
10
178.3199999999999932
20
-95.0499999999999972
40
0.4
0
CIRCLE
8
BLACK
10
168.1599999999999966
20
-95.0499999999999972
40
0.4
0
CIRCLE
8
BLACK
10
97.5499999999999972
20
-142.9699999999999989
40
0.65
0
CIRCLE
8
BLACK
10
102.5499999999999972
20
-142.9699999999999989
40
0.65
0
CIRCLE
8
BLACK
10
122.3699999999999903
20
-140.6999999999999886
40
0.4
0
CIRCLE
8
BLACK
10
132.5300000000000011
20
-140.6999999999999886
40
0.4
0
CIRCLE
8
BLACK
10
165.539999999999992
20
-122.9499999999999886
40
0.5499999999999999
0
CIRCLE
8
BLACK
10
165.539999999999992
20
-120.4099999999999966
40
0.5499999999999999
0
CIRCLE
8
BLACK
10
165.539999999999992
20
-117.8699999999999903
40
0.5499999999999999
0
CIRCLE
8
BLACK
10
154.8899999999999864
20
-94.5249999999999915
40
0.5499999999999999
0
CIRCLE
8
BLACK
10
152.3499999999999943
20
-94.5249999999999915
40
0.5499999999999999
0
CIRCLE
8
BLACK
10
149.8100000000000023
20
-94.5249999999999915
40
0.5499999999999999
0
CIRCLE
8
BLACK
10
84.1499999999999915
20
-52.8999999999999986
40
1.5999989999999999
0
CIRCLE
8
BLACK
10
164.9499999999999886
20
-60.2999999999999972
40
1.5999989999999999
0
CIRCLE
8
BLACK
10
85.25
20
-147.0649999999999977
40
0.5
0
CIRCLE
8
BLACK
10
85.25
20
-144.5250000000000057
40
0.5
0
CIRCLE
8
BLACK
10
85.25
20
-141.9849999999999852
40
0.5
0
CIRCLE
8
BLACK
10
85.25
20
-139.4449999999999932
40
0.5
0
CIRCLE
8
BLACK
10
85.25
20
-136.9050000000000011
40
0.5
0
CIRCLE
8
BLACK
10
85.25
20
-134.3649999999999807
40
0.5
0
CIRCLE
8
BLACK
10
85.25
20
-131.8249999999999886
40
0.5
0
CIRCLE
8
BLACK
10
85.25
20
-129.2849999999999966
40
0.5
0
CIRCLE
8
BLACK
10
85.25
20
-126.7449999999999903
40
0.5
0
CIRCLE
8
BLACK
10
85.25
20
-124.2049999999999983
40
0.5
0
CIRCLE
8
BLACK
10
85.25
20
-121.664999999999992
40
0.5
0
CIRCLE
8
BLACK
10
85.25
20
-119.125
40
0.5
0
CIRCLE
8
BLACK
10
85.25
20
-116.5849999999999937
40
0.5
0
CIRCLE
8
BLACK
10
85.25
20
-114.0450000000000017
40
0.5
0
CIRCLE
8
BLACK
10
85.25
20
-111.5049999999999955
40
0.5
0
CIRCLE
8
BLACK
10
85.25
20
-108.9649999999999892
40
0.5
0
CIRCLE
8
BLACK
10
85.25
20
-106.4249999999999972
40
0.5
0
CIRCLE
8
BLACK
10
85.25
20
-103.8849999999999909
40
0.5
0
CIRCLE
8
BLACK
10
85.25
20
-101.3449999999999989
40
0.5
0
CIRCLE
8
BLACK
10
85.25
20
-98.8049999999999926
40
0.5
0
CIRCLE
8
BLACK
10
85.25
20
-96.2650000000000006
40
0.5
0
CIRCLE
8
BLACK
10
85.25
20
-93.7249999999999943
40
0.5
0
CIRCLE
8
BLACK
10
85.25
20
-91.1850000000000023
40
0.5
0
CIRCLE
8
BLACK
10
85.25
20
-88.644999999999996
40
0.5
0
CIRCLE
8
BLACK
10
85.25
20
-86.1049999999999898
40
0.5
0
CIRCLE
8
BLACK
10
85.25
20
-83.5649999999999977
40
0.5
0
CIRCLE
8
BLACK
10
85.25
20
-81.0249999999999915
40
0.5
0
CIRCLE
8
BLACK
10
85.25
20
-78.4849999999999994
40
0.5
0
CIRCLE
8
BLACK
10
85.25
20
-75.9449999999999932
40
0.5
0
CIRCLE
8
BLACK
10
85.25
20
-73.4050000000000011
40
0.5
0
CIRCLE
8
BLACK
10
85.25
20
-70.8649999999999949
40
0.5
0
CIRCLE
8
BLACK
10
85.25
20
-68.3250000000000028
40
0.5
0
CIRCLE
8
BLACK
10
85.25
20
-65.7849999999999966
40
0.5
0
CIRCLE
8
BLACK
10
85.25
20
-63.2449999999999974
40
0.5
0
CIRCLE
8
BLACK
10
85.25
20
-60.7049999999999983
40
0.5
0
CIRCLE
8
BLACK
10
85.25
20
-58.1649999999999991
40
0.5
0
CIRCLE
8
BLACK
10
174.5
20
-82.4200000000000017
40
0.65
0
CIRCLE
8
BLACK
10
174.5
20
-77.4200000000000017
40
0.65
0
CIRCLE
8
BLACK
10
176.8499999999999943
20
-145.5999999999999943
40
1.5999989999999999
0
CIRCLE
8
BLACK
10
90.5
20
-145.
40
1.5999989999999999
0
CIRCLE
8
BLACK
10
138.2750000000000057
20
-117.8423489999999987
40
0.5499999999999999
0
CIRCLE
8
BLACK
10
138.2750000000000057
20
-120.3823489999999907
40
0.5499999999999999
0
CIRCLE
8
BLACK
10
138.2750000000000057
20
-122.922348999999997
40
0.5499999999999999
0
CIRCLE
8
BLACK
10
165.539999999999992
20
-112.4473489999999885
40
0.5499999999999999
0
CIRCLE
8
BLACK
10
165.539999999999992
20
-109.9073489999999964
40
0.5499999999999999
0
CIRCLE
8
BLACK
10
165.539999999999992
20
-107.3673489999999902
40
0.5499999999999999
0
CIRCLE
8
BLACK
10
107.3499999999999943
20
-144.9199999999999875
40
0.5
0
CIRCLE
8
BLACK
10
176.2649999999999864
20
-57.3499999999999943
40
0.5
0
CIRCLE
8
BLACK
10
124.375
20
-65.4249999999999972
40
0.5
0
CIRCLE
8
BLACK
10
124.375
20
-67.9650000000000034
40
0.5
0
CIRCLE
8
BLACK
10
124.375
20
-70.5049999999999955
40
0.5
0
CIRCLE
8
BLACK
10
124.375
20
-73.0450000000000017
40
0.5
0
CIRCLE
8
BLACK
10
176.2699999999999818
20
-72.5999999999999943
40
0.5
0
CIRCLE
8
BLACK
10
171.9299999999999784
20
-88.0249999999999915
40
1.5999989999999999
0
CIRCLE
8
BLACK
10
170.6599999999999966
20
-136.2849999999999966
40
1.5999989999999999
0
CIRCLE
8
BLACK
10
119.8599999999999994
20
-121.0449999999999875
40
1.5999989999999999
0
CIRCLE
8
BLACK
10
119.8599999999999994
20
-93.1049999999999898
40
1.5999989999999999
0
CIRCLE
8
BLACK
10
144.2299999999999898
20
-136.2999999999999829
40
0.5
0
CIRCLE
8
BLACK
10
146.7699999999999818
20
-136.2999999999999829
40
0.5
0
CIRCLE
8
BLACK
10
149.3100000000000023
20
-136.2999999999999829
40
0.5
0
CIRCLE
8
BLACK
10
151.8499999999999943
20
-136.2999999999999829
40
0.5
0
CIRCLE
8
BLACK
10
154.3899999999999864
20
-136.2999999999999829
40
0.5
0
CIRCLE
8
BLACK
10
156.9300000000000068
20
-136.2999999999999829
40
0.5
0
CIRCLE
8
BLACK
10
159.4699999999999989
20
-136.2999999999999829
40
0.5
0
CIRCLE
8
BLACK
10
162.0099999999999909
20
-136.2999999999999829
40
0.5
0
CIRCLE
8
BLACK
10
164.5499999999999829
20
-136.2999999999999829
40
0.5
0
CIRCLE
8
BLACK
10
167.0900000000000034
20
-136.2999999999999829
40
0.5
0
CIRCLE
8
BLACK
10
122.3900000000000006
20
-136.2949999999999875
40
0.5
0
CIRCLE
8
BLACK
10
124.9299999999999926
20
-136.2949999999999875
40
0.5
0
CIRCLE
8
BLACK
10
127.4699999999999989
20
-136.2949999999999875
40
0.5
0
CIRCLE
8
BLACK
10
130.0099999999999909
20
-136.2949999999999875
40
0.5
0
CIRCLE
8
BLACK
10
132.5499999999999829
20
-136.2949999999999875
40
0.5
0
CIRCLE
8
BLACK
10
135.0900000000000034
20
-136.2949999999999875
40
0.5
0
CIRCLE
8
BLACK
10
137.6299999999999955
20
-136.2949999999999875
40
0.5
0
CIRCLE
8
BLACK
10
140.1699999999999875
20
-136.2949999999999875
40
0.5
0
CIRCLE
8
BLACK
10
122.4099999999999966
20
-88.0249999999999915
40
0.5
0
CIRCLE
8
BLACK
10
124.9499999999999886
20
-88.0249999999999915
40
0.5
0
CIRCLE
8
BLACK
10
127.4899999999999949
20
-88.0249999999999915
40
0.5
0
CIRCLE
8
BLACK
10
130.0300000000000011
20
-88.0249999999999915
40
0.5
0
CIRCLE
8
BLACK
10
132.5699999999999932
20
-88.0249999999999915
40
0.5
0
CIRCLE
8
BLACK
10
135.1099999999999852
20
-88.0249999999999915
40
0.5
0
CIRCLE
8
BLACK
10
140.2099999999999795
20
-88.0150000000000006
40
0.5
0
CIRCLE
8
BLACK
10
142.75
20
-88.0150000000000006
40
0.5
0
CIRCLE
8
BLACK
10
145.289999999999992
20
-88.0150000000000006
40
0.5
0
CIRCLE
8
BLACK
10
147.8299999999999841
20
-88.0150000000000006
40
0.5
0
CIRCLE
8
BLACK
10
150.3700000000000045
20
-88.0150000000000006
40
0.5
0
CIRCLE
8
BLACK
10
152.9099999999999966
20
-88.0150000000000006
40
0.5
0
CIRCLE
8
BLACK
10
155.4499999999999886
20
-88.0150000000000006
40
0.5
0
CIRCLE
8
BLACK
10
157.9899999999999807
20
-88.0150000000000006
40
0.5
  0
ENDSEC
  0
EOF
